{"glyphs":{"0":{"ha":714,"x_min":0,"x_max":0,"o":"m 635 740 l 635 733 b 640 736 639 735 640 735 l 640 744 b 649 731 644 740 646 735 b 674 675 665 715 674 699 b 675 654 674 669 674 660 b 675 608 679 639 679 624 b 665 578 671 600 668 589 b 671 560 664 572 664 564 b 660 529 674 549 671 539 l 660 532 b 658 542 658 538 658 539 b 650 539 656 542 654 539 b 640 507 644 528 639 518 l 646 507 b 640 493 646 499 646 494 l 640 507 b 624 479 629 501 624 493 b 631 486 625 482 629 483 l 640 493 b 610 449 633 476 625 463 l 610 461 b 603 449 603 461 603 453 l 610 449 b 596 429 610 442 604 433 l 596 443 b 589 429 589 442 589 436 l 596 429 b 589 418 596 426 596 421 l 589 429 b 574 414 581 428 579 421 b 579 406 569 411 572 407 b 569 397 578 401 574 399 b 558 383 558 388 558 388 l 553 375 l 547 368 l 547 372 b 542 368 544 372 542 371 l 547 368 b 542 361 544 367 542 365 b 508 325 533 346 519 336 b 439 251 485 301 467 275 b 331 165 404 222 367 194 b 181 83 285 133 236 103 b 114 68 163 68 139 68 l 75 68 b 54 74 68 69 63 72 b 47 88 49 76 44 81 b 53 115 49 99 50 107 b 64 146 53 125 54 138 b 68 153 67 149 69 153 b 78 175 64 164 78 168 b 85 199 79 183 82 192 b 93 210 85 203 90 204 b 133 271 106 229 121 249 b 146 299 139 279 146 286 b 169 318 149 310 163 311 b 181 340 174 325 178 332 b 201 375 189 351 196 361 b 226 411 208 388 219 397 l 263 458 b 301 510 278 474 289 493 b 340 549 313 524 326 539 l 382 588 b 447 643 401 606 422 628 b 518 690 472 656 493 675 b 544 704 524 699 533 701 b 558 721 558 710 558 710 b 563 731 558 726 558 729 b 565 735 563 733 564 735 b 569 731 568 735 569 733 b 568 699 572 719 572 710 b 550 654 563 683 554 669 b 535 619 544 643 539 633 b 539 613 535 618 538 613 b 549 613 542 610 544 613 b 553 618 550 613 550 615 b 558 631 554 621 557 625 b 608 696 565 658 581 681 b 615 715 615 700 618 706 b 589 750 611 731 604 744 b 542 761 574 757 557 761 b 504 754 529 764 515 761 b 468 735 492 749 478 742 b 378 668 436 715 401 696 b 367 656 376 664 372 658 b 350 643 361 654 354 650 b 317 606 342 631 326 621 b 293 583 311 597 300 590 b 247 528 281 563 263 544 b 239 518 246 525 240 524 b 175 432 221 489 194 461 b 146 390 165 417 156 403 b 121 349 136 376 125 365 b 93 306 110 336 100 318 b 60 260 82 290 68 275 b 29 200 49 240 44 218 b 8 104 19 169 4 139 l 8 94 b 44 33 8 68 24 47 b 114 11 64 18 89 11 b 163 18 129 11 146 18 b 221 33 185 18 204 24 b 250 47 232 38 240 43 b 317 85 275 54 296 69 b 376 124 336 99 351 115 b 393 138 382 125 388 133 b 404 149 397 140 400 146 b 443 183 417 161 431 169 b 482 219 457 194 468 210 b 499 238 485 226 492 231 b 507 246 503 240 504 242 b 553 296 522 264 538 279 b 594 342 568 311 581 326 b 629 392 604 360 615 376 b 665 447 643 411 654 429 b 681 474 674 456 675 467 b 711 533 699 492 704 513 b 724 604 721 557 724 579 l 724 628 b 710 681 721 646 715 664 b 671 742 699 701 689 725 b 585 800 646 769 618 790 b 539 813 569 806 554 810 b 522 817 535 815 529 817 b 446 829 497 822 472 822 b 431 829 442 831 438 829 l 396 817 b 336 801 376 815 357 810 b 321 794 331 800 322 800 b 304 790 315 792 311 792 b 267 767 290 782 278 779 l 271 767 b 275 765 274 767 274 765 b 271 764 274 764 274 764 b 265 761 269 761 267 761 l 265 767 b 254 761 260 767 256 767 l 251 761 b 240 754 246 761 242 760 b 240 749 246 751 246 751 b 235 744 239 746 236 746 b 231 736 232 742 231 740 b 236 735 231 733 232 735 b 285 749 251 736 269 740 b 297 750 289 750 293 749 b 304 749 300 754 300 754 l 301 750 l 301 749 l 304 749 b 342 760 317 746 328 754 b 411 775 363 765 388 772 l 467 781 b 472 790 469 781 472 785 l 472 797 b 550 790 499 797 524 794 b 600 772 569 788 585 781 b 640 744 615 764 628 751 b 635 740 639 742 635 742 z m 504 288 b 463 246 492 272 478 260 b 454 244 461 244 457 244 b 468 261 458 249 463 256 b 499 294 478 272 488 285 b 508 299 500 296 504 299 b 504 288 508 294 508 290 z m 408 204 b 439 229 422 222 426 226 b 408 204 432 218 424 207 z m 660 529 b 646 507 660 518 660 510 b 660 529 646 514 650 524 z m 529 311 b 515 306 524 310 519 307 b 522 318 515 310 515 314 b 533 322 526 318 532 321 b 529 311 533 318 533 314 z m 674 563 b 683 588 671 572 674 583 b 674 563 681 575 679 568 z m 365 168 b 385 181 369 176 376 181 b 365 168 381 172 376 168 z m 539 329 b 535 325 539 326 538 325 b 539 332 535 326 538 329 b 553 342 542 342 542 342 b 539 329 550 336 549 332 z m 578 372 l 578 361 l 565 361 b 578 372 568 367 572 371 z m 385 181 b 396 192 385 192 388 192 b 385 181 396 185 392 183 z m 624 479 b 615 468 614 479 615 474 b 624 479 619 471 624 476 z m 328 144 b 342 149 331 149 335 149 b 328 144 340 140 332 144 z m 558 349 b 565 361 558 356 563 360 b 558 349 565 356 565 351 z m 683 588 b 686 600 686 590 686 594 b 689 603 686 603 686 603 b 683 588 690 594 690 590 z m 307 124 l 304 124 b 306 129 304 125 306 129 l 313 129 b 307 124 311 125 311 125 z m 328 788 l 321 788 l 321 792 l 328 792 b 332 790 328 792 331 790 b 328 788 331 790 328 788 z m 265 761 b 254 761 258 754 258 754 z m 351 153 b 342 150 347 153 346 150 b 347 156 343 153 346 154 b 351 156 347 160 350 156 z m 508 299 b 515 306 508 303 511 306 b 508 299 515 301 514 299 z m 574 346 b 574 351 574 349 572 351 b 578 354 574 353 576 353 l 578 349 z m 603 449 b 596 443 599 449 599 447 b 603 449 600 443 603 444 z m 317 782 b 313 782 317 781 315 782 l 315 785 b 321 788 317 788 319 785 b 317 782 319 785 319 782 z m 401 199 b 408 204 404 203 407 204 b 401 199 408 200 407 199 z m 694 613 b 692 619 692 615 692 618 b 694 621 692 619 692 621 z m 615 467 b 610 463 611 467 610 464 b 615 467 614 463 614 464 z m 236 751 b 240 750 236 750 239 750 l 240 754 b 236 751 239 754 236 751 z m 558 349 b 553 344 557 346 554 344 b 558 349 553 346 554 349 z m 468 801 b 472 800 472 806 472 801 b 468 801 469 800 468 800 z m 211 735 b 210 731 210 733 210 733 b 211 735 211 731 215 731 z m 346 794 l 343 796 b 347 797 346 796 347 797 b 350 796 350 797 350 796 b 346 794 350 796 347 794 z m 208 731 b 206 726 206 729 204 731 b 208 731 208 726 208 729 z m 397 194 b 401 199 397 196 400 199 b 397 194 401 196 400 194 z m 550 381 b 547 375 549 376 549 375 l 553 375 b 550 381 553 375 550 376 z m 300 744 b 301 749 301 746 301 749 l 297 749 b 300 744 297 749 300 746 z m 442 231 b 446 235 442 233 443 235 b 442 231 446 233 443 231 z m 583 413 b 579 406 581 411 581 407 b 583 413 579 411 581 413 z m 535 365 b 539 361 538 365 539 361 l 539 367 b 535 365 539 367 538 367 z m 583 357 b 579 356 581 357 579 357 l 579 360 b 583 357 579 360 581 358 z m 301 124 b 300 119 301 122 301 122 b 301 124 297 124 300 122 z m 361 165 b 365 168 363 165 363 165 b 363 164 365 165 363 165 b 361 165 363 164 361 164 z m 286 769 l 286 772 l 289 772 z m 146 336 b 144 332 144 333 144 333 b 146 336 143 336 144 336 z m 285 110 b 282 107 282 108 282 108 b 285 110 281 110 282 110 z m 286 115 b 285 114 289 110 286 113 b 286 115 286 114 286 115 z m 328 140 b 326 139 326 140 326 139 b 328 140 321 140 326 140 z m 154 344 l 156 346 b 154 344 158 344 156 344 z m 599 382 l 599 383 l 600 383 z m 593 371 l 594 372 l 594 371 z m 193 721 l 193 719 l 194 719 z m 650 482 l 649 483 l 650 483 z m 453 242 b 451 239 453 240 451 239 b 453 242 451 239 451 240 z m 581 376 l 581 375 l 579 375 z m 539 367 l 539 368 z m 451 239 b 449 238 450 238 450 238 b 451 239 450 238 450 238 z "},"1":{"ha":535,"x_min":0,"x_max":0,"o":"m 313 421 b 307 424 311 421 311 424 b 322 444 313 429 319 439 b 328 456 326 447 326 454 b 338 458 331 458 336 456 b 346 469 340 460 346 464 b 365 510 346 486 353 496 b 369 508 365 508 365 504 b 365 510 367 508 365 510 b 378 532 369 519 378 521 b 392 551 386 536 386 546 b 415 596 396 569 401 585 b 431 617 422 601 426 611 b 447 643 433 626 438 636 b 453 650 449 646 449 647 b 474 686 454 665 463 674 b 497 721 485 693 492 707 b 542 808 511 751 528 778 b 557 835 544 818 553 828 b 568 864 563 844 563 857 b 572 893 578 875 569 883 b 578 903 572 896 574 900 b 574 915 578 908 578 913 b 522 943 563 933 543 944 b 507 939 515 943 511 940 b 447 894 488 919 463 913 b 331 792 403 864 365 829 b 304 761 321 783 313 769 b 301 739 300 754 300 746 b 328 711 306 726 315 718 b 346 718 335 708 340 711 b 361 733 350 722 353 728 b 428 789 385 753 408 769 b 446 799 433 793 439 799 b 428 758 446 783 433 772 b 397 708 417 742 407 726 b 356 636 382 686 369 661 b 317 576 343 617 331 596 b 286 524 304 561 296 540 b 260 478 276 508 269 493 b 239 447 254 467 244 458 b 178 338 219 410 196 375 b 150 289 169 322 160 304 b 100 203 133 263 115 233 l 54 115 b 14 35 42 86 28 61 b 14 0 7 24 4 14 b 18 -7 17 -1 18 -4 b 42 -32 18 -21 32 -26 b 57 -29 47 -35 54 -32 b 103 60 72 0 89 29 b 99 67 104 64 103 65 b 100 71 97 69 97 71 b 110 75 103 75 108 71 b 131 111 115 86 125 97 b 129 115 131 111 131 115 b 128 122 128 117 118 117 b 154 161 140 131 150 143 b 161 178 156 168 158 172 b 175 196 169 183 174 190 b 196 236 179 211 189 222 b 208 263 201 243 208 251 b 219 272 214 264 219 268 b 226 289 221 279 224 286 b 244 318 236 297 240 307 b 257 339 250 325 256 332 b 267 360 257 347 271 349 b 282 378 271 364 276 369 b 289 389 286 379 286 383 b 306 408 292 394 297 404 b 307 415 307 410 307 414 b 307 424 304 421 304 421 l 307 415 z m 432 682 l 374 585 b 331 510 365 556 343 536 b 300 464 321 494 311 479 b 296 463 300 463 297 463 b 300 478 297 467 297 474 b 321 525 306 494 317 508 b 369 600 340 550 347 578 b 376 613 374 604 376 608 b 381 621 376 617 378 619 b 397 650 386 631 393 640 b 415 678 400 661 411 671 b 442 718 422 693 431 704 b 453 736 446 722 447 728 b 463 747 454 742 457 746 b 432 682 458 724 446 703 z m 161 256 b 144 256 156 251 158 249 b 156 272 144 263 146 268 b 164 279 164 267 164 272 l 171 279 b 161 256 171 271 169 263 z m 118 183 l 115 183 l 114 186 b 124 213 113 196 115 206 b 131 211 124 213 129 211 b 118 183 128 203 124 193 z m 194 349 l 194 335 b 204 339 196 338 201 338 l 206 339 b 206 333 206 338 208 335 b 201 328 206 332 204 329 b 196 329 199 325 196 328 b 194 335 196 332 196 333 l 190 335 b 194 349 190 339 189 347 z m 171 279 l 171 292 l 181 299 b 171 279 181 289 179 283 z m 285 444 l 285 451 b 296 460 289 454 290 458 l 296 449 b 290 447 292 447 290 447 b 285 444 289 444 286 444 z m 265 436 b 257 424 265 429 265 425 b 265 436 257 428 257 435 z m 239 397 b 235 385 239 393 240 389 b 239 397 231 390 231 397 z m 219 304 b 217 301 219 303 219 303 b 210 307 214 303 211 304 b 214 310 211 307 211 310 l 221 310 b 219 304 221 310 221 307 z m 244 413 b 257 424 250 415 251 421 b 244 413 256 413 256 413 z m 201 360 b 194 349 201 354 201 351 b 201 360 196 353 196 358 z m 239 399 b 244 410 239 404 240 408 b 239 399 244 406 244 400 z m 100 117 b 108 128 103 122 103 126 b 100 117 108 125 108 121 z m 133 211 l 133 222 b 133 211 140 218 140 218 z m 265 436 b 269 447 265 440 265 444 b 265 436 271 443 271 439 z m 275 460 b 271 449 275 456 276 451 b 275 460 271 454 271 458 z m 221 368 b 225 379 221 374 221 378 b 221 368 225 375 225 369 z m 239 329 l 235 329 b 236 333 235 332 236 333 l 242 333 z m 465 747 b 468 753 465 751 465 751 b 465 747 469 747 468 747 z m 201 286 b 206 283 204 283 206 283 b 201 286 201 282 204 283 b 196 288 199 288 199 288 b 201 286 201 292 201 288 z m 226 379 b 231 385 226 383 229 385 b 226 379 231 382 229 379 z m 201 268 b 196 271 199 268 199 268 b 201 268 201 272 201 271 z m 183 299 b 186 303 183 301 183 301 b 183 299 189 299 186 299 z m 251 374 b 254 369 253 374 254 369 b 251 374 251 368 251 369 z m 201 267 b 208 263 204 264 206 264 l 201 263 z m 196 256 b 193 257 194 256 193 257 l 193 258 l 200 258 b 196 256 197 257 196 257 z m 296 447 b 300 444 297 447 300 447 b 296 447 296 443 297 444 z m 219 367 l 219 363 b 219 367 214 367 217 367 z m 447 803 b 446 799 453 799 447 799 b 447 803 446 800 447 800 z m 265 390 b 269 389 267 390 267 390 b 265 390 265 385 265 390 z m 189 335 b 186 332 189 333 189 333 b 189 335 183 335 186 335 z m 103 156 l 103 160 b 103 156 108 156 103 156 z m 231 329 b 229 325 231 328 231 328 b 231 329 226 329 229 329 z m 110 135 b 108 131 113 131 110 131 b 110 135 110 131 110 132 z m 282 496 b 281 493 282 496 282 494 b 282 496 276 496 281 496 z m 169 292 b 165 294 169 294 165 294 b 169 292 169 297 169 294 z m 246 378 b 250 375 250 378 250 378 l 251 375 b 246 378 250 375 250 375 z m 144 256 b 143 251 144 253 144 251 b 144 256 140 253 143 253 z m 100 156 b 99 150 100 153 99 150 b 100 156 97 153 99 153 z m 131 224 b 129 226 131 224 129 224 b 131 224 133 228 131 226 z m 164 282 l 160 282 b 164 282 164 286 161 282 z m 251 443 b 254 447 254 444 254 444 b 251 443 256 443 254 443 z m 154 213 l 156 217 l 156 213 z m 281 400 l 281 404 l 282 400 z m 251 440 b 250 439 250 440 250 439 b 251 440 246 440 250 440 z m 221 313 l 224 314 b 221 313 225 313 224 313 z m 260 394 b 261 393 261 397 261 394 z m 290 425 l 292 428 l 292 425 z m 219 390 l 217 389 l 217 390 z m 63 94 l 60 96 l 63 96 z m 65 50 l 65 51 l 68 51 z m 149 238 l 146 239 l 149 239 z m 174 310 l 175 307 l 174 307 z m 335 475 l 336 478 l 336 475 z m 210 378 l 211 378 l 210 375 z m 260 458 l 261 458 l 260 456 z m 124 157 l 124 160 l 125 160 z m 160 201 l 160 203 l 161 201 z m 211 353 l 211 351 l 210 351 z m 99 113 l 99 115 z m 274 419 l 274 421 l 275 421 z m 281 464 l 281 463 l 279 463 b 281 464 279 463 281 463 z m 286 501 b 285 500 286 501 286 500 z "},"2":{"ha":838,"x_min":0,"x_max":0,"o":"m 701 500 b 710 504 704 500 706 501 l 701 504 l 706 508 b 710 504 706 507 710 507 b 715 513 711 508 713 511 b 732 547 721 526 728 538 b 736 549 735 547 735 549 b 740 567 743 554 732 563 b 747 581 746 569 746 576 b 750 589 747 585 750 588 b 757 618 743 603 751 611 b 772 668 767 633 772 649 b 772 693 772 678 771 685 b 782 753 781 711 774 733 b 782 761 786 756 782 760 b 751 846 776 792 772 821 b 740 867 747 854 743 860 b 701 913 732 882 715 900 b 647 940 686 925 667 932 b 594 956 632 950 614 953 b 543 956 578 957 560 961 b 529 956 539 953 535 956 b 513 953 525 953 519 953 b 374 906 464 940 418 925 b 261 842 336 888 297 867 b 185 783 236 822 210 804 b 156 761 176 776 165 771 b 104 710 139 746 121 729 b 64 657 89 694 74 678 b 56 603 53 639 50 622 b 79 553 60 585 69 568 b 111 524 86 539 99 531 b 126 526 117 522 121 522 b 136 538 131 528 136 528 b 150 553 135 543 144 549 b 161 568 156 557 160 561 b 161 572 164 568 164 572 l 156 574 b 144 569 151 572 149 569 b 101 576 129 563 115 568 b 96 589 99 581 96 585 b 100 604 99 596 99 600 b 108 624 101 611 106 618 b 126 657 111 638 117 649 b 151 683 135 665 144 674 b 179 708 161 693 167 700 b 215 738 192 715 206 725 b 317 814 247 764 281 792 b 382 857 338 829 357 846 b 463 894 410 869 433 886 b 504 907 478 900 490 903 b 593 922 535 915 563 925 b 617 918 600 922 608 922 b 629 918 619 918 625 917 b 650 917 636 922 644 918 l 671 901 b 726 846 697 890 713 872 b 740 799 732 831 740 815 l 740 749 b 726 672 742 719 735 696 b 671 557 711 633 692 593 b 651 528 665 546 661 538 b 569 421 624 493 594 458 b 536 386 560 407 547 397 b 524 381 532 382 528 381 b 479 372 508 376 494 375 b 414 360 458 369 436 367 b 301 324 374 350 338 339 b 196 271 265 308 229 294 b 115 224 167 258 142 240 b 53 175 93 210 71 193 b -25 97 24 150 -3 128 b -28 85 -26 93 -28 89 b -12 3 -31 57 -26 28 b 49 -33 3 -22 21 -33 b 115 -22 71 -35 93 -35 b 133 -14 119 -18 126 -18 b 175 8 149 -8 161 -3 b 222 39 190 21 206 28 b 231 42 225 39 226 42 b 253 51 240 39 246 46 b 290 82 263 61 276 72 b 311 101 297 88 308 89 b 322 113 318 99 321 104 b 328 117 322 114 325 117 b 351 124 336 119 343 122 b 368 138 357 129 367 133 b 394 160 374 149 383 154 b 403 169 399 163 401 165 b 421 183 403 181 410 185 b 449 210 429 190 443 197 b 454 228 451 215 458 221 b 469 229 463 229 467 229 b 494 250 482 233 489 243 b 500 269 489 260 494 264 b 513 274 504 271 508 274 b 543 300 524 279 535 289 b 571 329 551 310 567 317 b 582 336 574 335 578 336 b 604 335 589 336 599 339 b 636 329 615 329 625 329 b 692 324 656 329 674 324 b 726 315 701 315 715 319 b 786 304 743 308 763 304 b 793 304 790 304 792 306 b 822 304 803 300 811 300 b 882 325 843 301 863 311 b 897 336 886 329 889 335 b 904 347 903 339 903 342 b 899 354 907 351 904 356 b 889 354 897 354 892 356 b 824 340 868 344 846 340 l 811 340 b 774 351 796 335 782 339 b 767 351 774 354 771 351 b 763 342 771 347 771 342 l 756 342 b 686 360 732 350 711 354 b 608 375 663 367 636 372 l 606 375 l 606 381 b 625 389 614 385 621 385 b 646 422 635 400 646 407 b 663 442 647 435 651 442 b 667 450 669 443 667 446 b 674 458 667 453 671 457 b 681 465 676 461 681 463 b 685 478 678 469 681 476 b 701 497 696 481 697 489 b 701 504 697 500 697 501 z m 106 51 b 35 36 99 46 44 36 b 24 53 21 36 19 39 b 49 85 29 67 35 78 b 133 163 69 117 106 133 b 169 188 144 172 156 179 b 236 229 192 200 215 214 b 296 261 256 244 275 254 b 386 294 325 275 356 286 b 421 308 397 300 410 301 b 464 317 433 317 449 319 b 413 264 451 296 432 279 b 379 235 401 256 389 244 b 332 197 364 224 349 210 b 297 169 321 188 307 181 b 246 132 281 154 263 144 b 192 93 226 119 211 104 b 151 72 179 85 165 76 b 106 51 136 67 119 61 z m 585 385 b 574 381 582 382 578 381 b 567 382 571 381 569 382 b 569 385 567 382 567 385 b 625 457 589 407 606 432 b 644 481 632 465 636 472 b 654 493 646 485 647 492 b 663 504 658 496 663 500 b 676 526 665 513 671 519 b 692 549 682 532 686 542 b 696 553 692 549 694 553 b 700 547 696 549 697 547 b 697 542 700 546 700 543 b 644 457 685 511 665 482 b 608 407 631 442 619 422 b 585 385 600 400 593 390 z m 529 324 b 490 279 521 306 506 293 b 478 264 483 275 479 274 b 474 260 475 261 475 260 b 428 224 453 250 444 233 b 428 235 428 228 421 231 b 440 244 432 239 436 240 b 494 304 458 264 478 281 b 519 326 500 311 513 317 b 524 329 519 326 521 329 b 529 326 525 329 528 329 b 529 324 529 326 532 325 z m 231 276 b 293 306 253 286 272 294 b 388 340 325 321 357 329 b 394 340 389 340 393 342 b 401 339 397 340 399 340 b 399 336 399 339 399 339 b 353 319 383 329 368 324 b 286 293 328 311 307 304 b 236 269 271 286 250 279 b 221 265 232 265 226 269 b 231 276 222 274 226 275 z m 151 49 l 151 51 b 217 92 164 61 201 85 l 221 92 l 221 89 b 151 49 207 74 175 54 z m 383 215 b 363 193 379 206 368 200 l 353 193 b 383 215 358 206 368 214 z m 444 354 b 449 351 447 354 447 351 l 447 350 b 410 344 436 347 425 339 b 444 354 422 350 432 356 z m 317 163 b 347 185 322 172 332 183 b 317 163 338 172 328 164 z m 265 122 b 290 143 271 133 276 143 b 265 122 286 132 276 124 z m 438 265 b 413 240 429 258 422 246 b 404 238 410 239 406 239 b 432 264 411 249 421 256 b 438 265 433 265 436 265 z m 290 143 b 313 163 293 153 303 160 b 290 143 308 150 303 143 z m 222 92 b 246 113 226 103 232 108 b 222 92 240 101 232 93 z m 356 154 b 349 158 353 154 351 158 l 349 160 b 371 172 356 165 358 172 b 356 154 368 165 363 163 z m 190 249 b 171 235 186 239 181 235 b 190 249 175 244 181 249 z m 246 113 b 263 122 247 119 256 124 b 246 113 261 114 256 108 z m 151 224 b 135 213 149 214 142 213 b 151 224 136 218 144 224 z m 414 213 b 428 224 417 221 417 224 b 414 213 425 215 421 213 z m 758 724 b 763 726 758 725 761 725 l 763 710 b 761 703 763 708 761 704 b 758 708 761 704 758 704 z m 389 193 b 401 203 393 199 397 200 b 389 193 401 194 401 194 z m 710 578 b 701 568 710 574 710 569 b 710 578 701 572 701 576 z m 504 367 b 514 365 508 367 510 365 b 504 363 510 363 506 363 b 499 365 500 363 499 363 b 504 367 500 365 500 367 z m 164 229 b 151 224 161 224 156 224 b 164 229 154 229 160 229 z m 403 206 b 414 210 404 210 410 213 b 403 206 413 206 407 206 z m 483 347 b 492 344 488 347 489 344 b 483 342 489 343 488 342 b 479 344 483 342 482 344 b 483 347 482 344 483 347 z m 124 31 b 117 33 121 31 119 31 b 121 36 119 33 119 36 l 126 36 b 124 31 126 33 124 33 z m 313 293 b 303 286 311 286 307 286 b 313 293 306 293 308 290 z m 301 286 b 296 281 297 285 297 281 b 292 285 293 279 292 281 l 293 285 b 301 286 296 286 297 286 z m 146 43 b 142 46 146 42 144 43 l 144 46 b 151 49 146 49 149 49 b 146 43 150 46 149 43 z m 383 185 b 389 193 383 190 386 193 b 383 185 388 188 388 185 z m 196 254 b 200 250 196 254 197 250 l 197 249 l 190 249 b 196 254 192 250 194 254 z m 846 329 l 842 335 l 849 335 l 851 332 b 846 329 849 332 846 332 z m 389 224 b 383 215 389 218 388 218 b 389 224 383 221 386 224 z m 397 229 b 389 224 394 225 393 224 b 397 229 389 228 393 229 z m 726 608 l 725 607 b 721 608 725 608 721 608 b 725 614 721 610 724 613 b 726 608 725 613 726 610 z m 79 11 b 74 13 75 13 74 13 b 75 17 74 17 74 17 b 79 13 78 17 79 13 z m 378 179 b 383 185 378 183 379 185 b 378 179 383 181 382 179 z m 464 340 l 467 339 b 460 336 464 339 463 336 b 454 340 458 339 458 339 z m 351 193 b 347 185 351 188 349 185 b 351 193 347 190 349 193 z m 382 315 l 379 311 b 372 315 378 311 375 314 l 374 315 z m 371 172 b 378 179 372 178 372 179 b 371 172 378 178 374 175 z m 483 931 l 482 931 b 475 932 479 932 478 932 l 475 933 l 482 933 b 485 932 483 933 483 933 b 483 931 485 932 483 932 z m 325 294 b 321 293 322 294 322 293 l 317 293 b 318 296 317 294 317 294 b 325 294 321 296 322 296 z m 463 925 l 454 925 b 460 928 458 928 458 928 b 463 925 460 928 463 928 z m 250 261 b 247 264 250 261 250 264 b 256 265 250 264 253 264 l 256 264 b 250 261 254 263 251 261 z m 407 906 l 403 906 l 404 907 b 413 907 407 910 410 907 b 407 906 410 907 410 906 z m 169 235 b 165 229 169 231 167 229 b 169 235 165 233 167 235 z m 479 357 b 478 356 479 356 478 356 l 469 356 l 468 357 z m 363 308 b 357 306 358 308 358 306 b 356 308 356 306 356 308 b 358 310 357 308 357 310 z m 336 301 l 338 304 b 342 301 339 304 340 301 b 340 300 342 300 342 300 b 336 301 340 301 338 301 z m 728 553 b 732 547 731 554 732 550 b 728 553 731 549 729 549 z m 407 326 b 413 325 410 326 410 326 l 410 325 b 404 326 407 325 407 325 z m 700 563 b 700 567 696 565 699 567 z m 378 892 b 379 897 379 894 379 894 b 378 892 382 892 379 892 z m 444 274 b 440 269 443 271 443 269 b 444 274 440 271 443 274 z m 464 293 l 458 286 b 464 293 460 290 460 290 z m 126 203 l 124 200 b 126 203 121 203 124 203 z m 108 193 b 111 197 111 194 111 194 b 108 193 114 193 111 193 z m 281 275 l 278 275 b 275 276 276 275 275 275 l 276 276 b 281 275 278 276 278 276 z m 397 229 l 401 233 b 397 229 401 231 399 229 z m 458 286 b 453 279 454 285 453 282 b 458 286 453 285 454 285 z m 221 265 b 215 261 217 264 217 264 b 221 265 215 264 217 265 z m 467 321 b 464 317 468 317 467 318 b 467 321 465 319 467 321 z m 731 626 l 731 624 l 728 626 z m 717 596 l 719 596 l 717 593 z m 401 903 b 399 901 401 903 401 901 b 401 903 397 903 399 903 z m 322 861 l 325 865 b 322 861 325 865 325 861 z m 451 279 b 447 275 449 276 449 275 b 451 279 447 276 449 276 z m 129 38 b 131 39 129 38 129 39 b 129 38 133 38 131 38 z m 374 888 b 375 890 372 889 374 890 b 374 888 374 889 374 888 z m 318 860 l 321 860 b 318 857 318 860 318 858 z m 710 581 b 711 583 711 581 711 583 b 710 581 713 581 711 581 z m 499 938 l 497 938 l 499 940 z m 436 918 l 436 921 l 438 921 z m 663 432 l 661 435 l 661 432 z m 213 260 b 211 258 213 260 213 258 b 213 260 210 260 211 260 z m 186 225 l 185 225 l 186 228 z m 244 810 b 242 807 244 810 244 807 z m 247 811 l 246 811 l 247 813 z m 268 825 l 265 825 b 268 826 267 825 268 825 z m 394 319 l 393 319 l 393 321 z m 464 293 l 468 296 b 464 293 467 294 465 293 z m 54 7 l 54 8 l 56 7 z m 493 321 l 493 319 l 492 319 b 493 321 492 319 493 319 z m 336 869 l 336 871 l 338 871 z m 261 822 l 263 822 l 261 821 z "},"3":{"ha":694,"x_min":0,"x_max":0,"o":"m 328 260 b 317 256 326 254 322 256 l 317 260 b 317 256 311 258 311 258 b 296 246 311 246 304 244 b 267 235 282 250 276 243 b 269 233 267 233 269 233 b 267 235 267 231 267 233 l 265 235 b 247 224 261 231 250 231 b 228 215 242 221 232 218 b 185 190 213 208 200 199 b 161 179 178 185 171 179 l 161 181 b 200 213 172 193 186 203 b 388 311 261 249 324 281 b 458 344 413 324 435 335 b 479 350 464 347 474 347 b 493 354 481 354 485 354 b 479 347 490 347 483 350 b 449 329 469 339 458 336 b 429 317 443 325 433 325 b 443 310 433 317 439 317 b 453 317 446 310 453 310 b 449 319 453 319 450 319 b 453 317 453 324 453 319 b 461 325 460 317 468 315 b 478 335 468 329 474 335 b 496 342 485 336 490 340 b 518 354 504 347 511 351 l 518 360 l 510 360 b 525 371 511 367 521 367 b 533 381 526 372 533 372 b 506 372 525 381 514 381 b 479 363 496 369 489 365 b 424 340 461 356 443 350 b 369 315 407 335 388 324 b 267 261 335 300 303 279 b 161 197 231 243 196 221 b 125 175 150 188 136 179 b 96 160 115 172 106 165 b 50 128 81 150 65 138 b 13 69 29 114 14 93 b 31 -8 8 42 4 13 b 65 -33 39 -22 54 -24 l 71 -33 b 143 -28 96 -33 119 -37 b 193 -14 157 -22 176 -19 l 211 -11 b 231 -4 217 -8 224 -4 b 246 7 235 -4 239 3 b 278 21 254 13 265 21 b 317 33 292 21 303 31 b 332 43 319 33 328 38 b 335 43 332 43 333 46 b 350 49 342 42 347 43 l 361 54 b 379 69 369 57 376 61 b 399 78 383 76 389 78 b 400 74 399 78 400 76 b 401 78 400 75 401 76 l 399 78 b 403 78 400 85 403 85 b 419 85 408 78 415 82 b 515 149 453 103 489 122 b 511 150 514 149 514 150 b 515 149 515 153 515 150 b 533 163 525 149 531 153 b 544 178 536 168 539 175 b 607 229 565 193 586 213 b 646 275 622 243 636 258 b 651 290 647 279 647 286 b 678 329 665 301 671 317 b 686 385 686 347 696 365 b 686 407 685 390 686 400 l 686 419 b 654 467 685 442 671 457 l 640 478 b 601 504 631 489 615 497 b 508 524 585 511 529 524 l 397 524 b 376 522 389 524 383 524 b 343 517 365 517 354 517 b 293 511 326 517 308 517 b 278 513 289 511 286 513 b 376 574 313 532 349 549 b 400 585 383 578 394 581 b 438 615 414 593 424 607 b 465 639 446 624 458 633 b 483 646 474 642 479 642 b 529 696 500 663 518 674 b 554 750 539 714 546 731 b 560 764 556 756 560 760 b 560 806 560 776 561 792 b 540 840 556 819 554 831 b 529 851 536 842 533 846 b 496 869 521 860 510 865 b 428 881 475 875 450 881 b 350 872 400 881 376 872 b 289 861 332 871 308 865 b 226 846 267 857 247 846 b 104 807 185 835 143 821 b 28 776 76 799 54 785 b -1 753 15 774 8 764 b -4 744 -4 750 -4 746 b 21 703 4 729 6 714 b 44 708 29 696 39 696 b 65 729 50 715 56 725 b 104 746 76 735 90 742 b 219 789 143 758 178 779 b 231 792 222 789 226 792 b 289 810 250 799 269 806 b 338 821 304 814 322 815 b 379 829 350 825 365 826 b 499 836 419 838 460 836 l 510 836 b 524 815 518 835 525 825 b 508 771 518 800 511 785 b 499 753 506 764 504 758 b 458 711 483 740 478 719 b 450 704 454 710 453 708 b 368 639 428 679 397 658 b 235 561 324 611 281 585 b 143 513 204 543 172 528 b 135 497 136 508 136 504 b 135 467 131 486 136 478 b 140 447 132 461 139 453 b 154 442 143 443 150 442 b 167 446 157 443 163 443 b 222 453 185 451 201 457 b 297 463 247 451 272 458 b 383 474 326 467 354 474 l 399 474 b 460 481 419 478 439 481 b 475 481 465 478 469 478 b 496 485 483 481 490 485 b 521 481 506 485 511 481 l 556 481 b 596 469 571 481 581 472 b 625 461 604 461 615 461 b 640 450 632 461 636 457 b 647 428 646 443 647 436 b 638 363 647 406 642 385 b 610 311 632 342 622 326 b 506 218 576 279 542 246 b 357 129 458 185 407 158 b 238 72 318 107 276 89 b 182 51 219 64 200 58 l 178 51 b 124 42 161 51 143 43 b 93 38 113 42 104 42 b 58 43 82 33 69 36 b 56 49 56 43 54 46 b 74 74 60 57 60 69 b 82 78 76 74 81 76 b 157 143 104 104 135 119 b 251 203 186 165 219 183 b 347 256 282 224 317 239 b 403 293 365 265 388 275 b 392 296 399 293 392 290 b 383 296 388 300 385 300 b 318 264 358 289 338 279 b 317 260 317 261 317 261 z m 561 224 l 510 178 b 479 158 500 168 489 168 b 453 138 474 149 461 143 b 419 117 443 129 431 122 b 404 113 415 114 413 113 l 404 114 l 407 117 b 450 150 424 124 435 139 b 540 221 481 172 514 193 b 571 246 549 229 564 233 b 579 249 571 249 575 246 b 575 235 576 244 576 240 z m 385 614 l 419 639 b 429 642 422 642 424 642 b 428 633 429 639 429 635 b 379 599 413 622 394 611 l 372 599 b 385 614 374 607 382 608 z m 408 293 b 414 294 413 293 414 294 b 408 296 414 296 413 296 b 404 300 407 300 404 300 b 408 304 404 301 407 304 b 429 310 418 304 422 308 b 439 310 435 304 435 304 l 429 310 l 429 317 b 400 308 419 315 408 311 b 392 300 397 308 394 301 l 404 300 l 404 293 z m 592 261 b 617 286 596 274 606 279 b 592 261 615 271 606 261 z m 215 42 l 213 43 l 213 46 b 242 54 222 51 231 54 b 215 42 235 43 226 43 z m 635 306 b 617 286 631 296 625 289 b 631 308 617 296 622 301 l 632 308 z m 242 54 b 265 67 247 64 257 67 b 242 54 261 54 251 53 z m 324 92 b 347 104 328 101 338 103 b 324 92 343 92 333 92 z m 443 657 l 444 657 b 446 653 444 657 446 654 b 429 642 443 646 438 642 b 443 657 431 650 438 653 z m 621 411 b 615 413 621 415 619 415 b 604 404 611 411 606 411 b 619 406 607 406 615 406 b 621 411 619 406 621 407 z m 178 31 l 167 31 b 185 36 171 38 178 36 b 178 31 185 31 181 31 z m 493 354 b 499 360 493 357 494 360 l 510 360 b 493 354 506 351 499 356 z m 379 286 b 365 279 376 276 372 279 b 379 286 368 286 374 286 z m 342 265 b 328 261 339 261 333 260 b 342 265 332 269 335 265 z m 197 38 b 185 36 193 36 190 36 b 196 42 186 39 192 42 b 200 39 197 42 197 39 z m 311 85 b 322 92 313 92 318 92 b 311 85 319 85 317 85 z m 297 78 b 308 85 301 85 304 85 b 297 78 308 78 303 78 z m 379 124 b 392 129 382 129 385 129 b 379 124 389 122 383 124 z m 585 396 l 581 397 b 574 392 576 397 574 397 l 581 392 z m 106 11 b 100 13 104 11 101 13 b 106 17 101 17 104 17 b 111 13 107 17 108 13 b 106 11 108 11 107 11 z m 154 172 b 140 168 151 168 146 168 b 154 172 143 172 147 172 z m 349 104 b 358 108 350 113 354 108 b 349 104 357 104 353 104 z m 403 135 b 392 129 403 129 397 132 b 403 135 394 135 399 135 z m 288 43 l 281 43 b 286 49 282 46 286 46 l 292 49 b 288 43 289 46 289 43 z m 361 113 b 372 117 364 117 368 117 b 361 113 369 113 365 113 z m 544 382 b 540 385 544 385 542 386 b 536 381 539 385 539 382 l 542 381 b 544 382 544 381 544 382 z m 161 24 b 156 26 157 24 156 26 b 157 28 156 26 156 28 l 165 28 b 161 24 163 26 163 26 z m 372 599 b 365 592 372 593 369 593 b 372 599 368 596 368 599 z m 531 365 b 533 363 531 363 531 363 b 539 365 536 363 536 363 b 536 367 539 365 539 367 b 531 365 533 365 533 365 z m 274 68 l 267 68 l 272 72 b 276 69 274 72 276 69 b 274 68 276 69 276 68 z m 289 78 l 296 78 b 292 74 296 76 293 74 b 288 76 292 74 289 76 b 289 78 288 76 288 78 z m 561 389 b 565 386 564 389 565 386 l 571 390 l 564 390 z m 579 249 b 585 254 579 250 581 254 b 579 249 585 250 581 249 z m 135 18 b 131 21 132 18 132 21 b 136 22 132 21 135 22 l 139 21 b 135 18 136 21 135 18 z m 394 101 l 388 101 b 392 103 389 103 389 103 b 397 104 394 104 394 104 b 394 101 397 103 394 101 z m 669 382 b 667 386 669 385 667 386 b 669 389 667 389 669 389 b 671 385 669 386 671 386 b 669 382 671 382 669 382 z m 308 54 b 307 58 308 57 307 57 l 311 58 b 313 57 313 58 313 58 b 308 54 313 57 311 57 z m 601 400 b 604 404 601 401 604 401 b 601 400 601 404 596 404 z m 376 507 l 374 508 l 383 508 b 376 507 382 507 379 507 z m 404 135 b 407 139 404 138 404 138 b 404 135 408 135 407 135 z m 372 92 b 374 97 374 93 374 97 b 372 92 379 92 374 93 z m 586 256 b 590 260 586 258 589 260 b 586 256 590 258 589 256 z m 292 49 b 293 53 293 51 293 53 b 292 49 297 49 293 49 z m 379 286 b 382 290 382 289 382 289 b 379 286 385 286 382 286 z m 140 165 b 135 163 140 164 139 163 b 140 165 136 164 139 165 z m 651 319 b 650 325 650 321 650 324 l 651 326 z m 365 279 b 364 275 365 276 364 276 b 365 279 361 279 364 279 z m 365 592 b 364 588 365 589 364 589 b 365 592 361 592 364 592 z m 372 92 b 369 88 369 89 369 89 b 372 92 368 92 369 92 z m 342 269 l 343 271 b 342 269 347 269 343 269 z m 135 160 l 132 158 b 135 160 131 160 132 160 z m 332 69 b 329 68 332 68 332 68 b 332 69 332 68 332 69 z m 400 507 l 399 508 l 400 508 z m 282 844 l 281 844 l 282 846 z "},"4":{"ha":733,"x_min":0,"x_max":0,"o":"m 206 467 b 219 496 207 478 211 486 b 235 517 225 501 229 511 l 250 538 b 261 561 260 542 256 554 b 265 567 265 561 265 567 b 294 608 279 578 286 593 b 351 694 313 638 335 664 b 357 704 353 699 356 700 b 392 742 371 715 382 729 l 422 783 b 443 829 432 799 436 814 l 443 838 b 415 867 436 851 426 860 b 383 872 407 871 396 871 b 376 871 382 872 378 871 l 353 844 b 335 810 347 831 342 821 b 336 796 332 807 336 800 b 325 776 335 790 331 783 b 261 685 303 746 285 715 b 200 592 242 653 224 622 b 138 496 176 561 160 528 b 99 438 124 478 111 458 b 49 357 81 413 63 386 b 35 336 43 351 39 344 b 8 276 24 319 14 300 b 8 258 7 271 4 264 b 15 250 8 254 14 254 b 19 256 15 254 18 254 b 22 256 22 258 22 258 b 24 240 24 250 24 244 b 31 215 22 231 26 224 b 63 208 38 208 49 203 b 88 215 69 210 79 215 b 153 239 111 214 133 229 b 231 289 181 250 204 274 b 257 315 242 294 250 308 b 288 340 267 325 276 332 b 292 357 294 344 294 351 b 300 372 286 367 294 369 l 300 367 b 313 357 301 356 303 354 b 322 367 317 360 322 360 b 307 372 325 371 321 372 l 300 372 b 322 390 307 381 317 386 b 342 411 332 397 338 401 b 332 407 338 411 335 411 b 254 356 306 392 276 375 b 231 350 246 350 240 350 b 256 372 236 357 246 365 l 315 417 l 467 528 b 560 593 497 553 529 572 b 575 600 565 596 569 599 b 581 600 575 603 579 600 b 579 596 581 599 581 599 b 554 561 569 585 560 574 b 482 450 528 524 507 486 b 457 413 474 436 464 426 b 392 301 433 375 415 336 b 322 181 367 261 347 221 b 294 133 315 165 303 150 b 244 38 276 101 261 68 b 239 26 242 36 240 31 b 221 -12 235 13 226 1 b 165 -137 200 -54 181 -96 b 115 -271 149 -183 133 -226 b 108 -300 111 -279 110 -287 b 108 -310 104 -301 108 -306 b 110 -311 108 -311 110 -311 b 114 -311 111 -311 114 -315 b 133 -286 124 -303 124 -290 b 165 -242 156 -276 160 -257 b 171 -221 171 -236 165 -226 b 189 -206 174 -214 181 -210 b 192 -194 190 -200 192 -196 b 207 -161 199 -183 200 -171 b 204 -140 211 -153 211 -149 b 206 -133 199 -139 200 -135 b 211 -137 207 -135 210 -137 b 215 -137 211 -139 214 -137 b 214 -135 215 -135 214 -135 b 206 -133 211 -133 210 -133 b 219 -126 207 -129 211 -126 b 231 -111 226 -126 231 -119 l 231 -103 b 224 -104 226 -103 225 -104 l 221 -103 b 225 -93 221 -100 224 -96 b 226 -90 225 -90 226 -90 b 229 -96 229 -93 229 -93 b 231 -103 231 -99 231 -100 b 242 -83 239 -99 239 -89 b 239 -81 242 -83 240 -79 b 231 -75 236 -81 231 -81 b 240 -53 235 -68 239 -60 b 250 -44 242 -50 246 -49 b 244 -64 246 -53 244 -57 l 244 -68 l 251 -68 b 272 -35 261 -58 267 -44 b 269 -26 272 -33 271 -29 b 275 -8 276 -24 272 -14 b 279 1 279 -7 282 -4 b 288 24 276 17 276 17 b 292 28 290 24 292 26 b 303 26 297 28 301 26 b 321 54 303 39 317 43 b 338 82 322 67 328 76 b 342 89 340 82 342 88 b 347 103 336 97 342 101 b 350 117 357 107 351 113 b 368 133 363 119 367 122 l 368 144 b 381 163 368 153 368 163 b 392 172 386 163 386 168 b 386 179 393 178 392 179 l 376 179 b 386 199 376 188 378 194 b 393 199 388 203 392 203 l 388 199 b 392 194 388 197 388 194 b 393 199 392 194 393 197 b 407 206 399 199 403 199 b 422 225 411 213 407 225 b 428 231 424 225 428 229 b 449 271 432 246 443 258 b 457 286 451 275 457 281 b 469 310 454 296 461 304 b 482 326 476 315 478 321 b 503 357 489 339 494 350 b 524 389 508 369 519 376 b 539 421 526 401 538 407 b 554 442 542 428 550 432 b 568 461 560 447 568 453 b 583 481 569 472 579 472 b 608 517 589 493 603 501 b 644 572 618 538 629 557 b 649 576 646 574 649 574 b 694 646 656 604 676 624 b 733 700 707 664 725 679 b 744 704 733 703 740 703 l 744 703 l 744 704 b 753 715 744 711 744 718 b 800 740 772 714 786 729 b 794 749 801 742 800 746 b 760 725 786 733 771 733 l 753 725 b 756 731 753 726 753 729 b 822 822 776 761 801 792 b 863 865 833 840 844 856 b 868 871 867 867 868 869 b 864 900 868 882 871 890 b 838 921 857 907 849 917 b 822 918 832 922 826 922 b 756 840 796 894 776 867 b 686 749 731 810 710 779 b 626 665 665 719 644 694 b 599 638 618 654 611 643 b 588 622 593 635 590 626 b 583 619 585 622 583 619 b 565 614 572 626 569 618 b 553 603 560 608 557 603 b 538 593 543 603 542 599 b 528 581 535 589 533 583 b 478 549 508 574 494 561 b 368 472 442 524 407 497 l 310 428 l 165 335 b 103 300 146 321 125 311 l 99 300 b 99 306 96 301 96 304 b 100 315 99 308 99 310 b 140 372 114 335 126 354 b 156 389 144 381 149 385 b 168 400 160 390 164 397 b 171 417 175 406 168 413 b 206 467 181 435 190 451 z m 81 356 b 49 296 69 336 58 317 b 38 285 47 293 42 289 b 31 285 35 281 33 281 l 31 286 b 33 293 31 289 31 290 b 74 369 47 319 63 342 b 89 389 79 375 81 382 b 100 406 96 390 94 401 b 114 426 108 411 110 419 b 138 463 119 438 131 450 l 160 496 b 221 581 181 524 199 553 b 239 599 225 588 229 596 b 225 572 239 588 231 578 b 160 476 200 542 181 508 b 118 415 146 453 133 435 b 81 356 104 396 94 375 z m 392 246 b 335 144 371 214 351 179 b 310 99 328 129 319 114 l 300 92 b 303 104 301 97 301 101 b 397 274 332 163 365 215 l 407 279 b 411 296 403 286 408 290 l 457 372 b 474 392 461 381 464 389 b 488 411 474 401 478 407 b 476 392 488 401 483 396 b 474 386 474 390 476 386 b 426 300 458 356 442 326 b 407 279 418 290 415 285 b 392 246 407 265 397 256 z m 288 57 b 246 -18 271 33 261 7 l 244 -19 b 246 -3 244 -14 244 -8 b 290 78 260 24 272 53 l 292 78 b 288 57 294 69 292 64 z m 479 493 b 494 496 488 493 492 493 b 483 497 493 501 488 497 b 476 497 479 500 478 497 b 479 504 476 500 478 501 b 499 524 489 508 494 515 b 492 522 494 524 493 524 b 458 501 479 515 469 508 l 458 496 l 461 496 b 474 497 463 496 468 497 l 476 497 b 479 493 478 496 478 493 z m 382 442 b 383 446 382 443 386 442 b 381 443 382 446 382 443 b 351 417 365 438 363 436 b 382 442 365 419 376 428 z m 331 376 b 346 376 336 372 338 372 b 350 390 350 382 350 386 b 331 386 342 389 336 389 b 331 376 328 385 328 381 z m 276 357 b 282 354 276 357 282 356 b 265 340 282 342 276 339 b 256 342 261 342 260 342 b 276 357 261 350 271 351 z m 519 461 b 507 443 519 451 514 446 b 518 461 507 451 511 458 b 529 481 519 469 524 476 b 519 461 533 469 528 465 z m 371 407 b 363 411 368 411 365 411 b 350 392 353 407 350 401 b 368 401 356 396 363 400 b 371 407 371 404 371 406 z m 194 -126 b 206 -96 192 -114 196 -104 b 194 -126 207 -108 204 -118 z m 214 332 b 207 332 211 329 210 332 l 207 335 b 231 347 214 340 221 350 b 214 332 226 340 221 336 z m 225 -58 b 236 -33 225 -49 225 -37 b 225 -58 236 -43 235 -53 z m 447 485 l 447 486 b 446 489 447 489 447 489 b 426 474 436 486 428 482 b 447 485 433 474 442 478 z m 463 481 b 467 472 463 478 464 476 b 478 481 472 476 474 476 l 478 485 b 463 481 474 489 464 486 z m 426 450 b 424 453 426 450 426 451 b 413 436 417 450 417 443 b 426 450 424 438 424 438 z m 543 497 b 557 517 543 507 549 513 b 543 497 557 508 553 501 z m 557 517 b 568 533 557 526 560 532 b 557 517 568 526 565 519 z m 499 431 b 488 411 499 419 494 415 b 499 431 488 419 492 426 z m 443 461 b 426 453 436 461 428 463 b 443 461 432 453 439 451 z m 332 113 b 338 122 332 117 332 119 b 350 118 342 124 347 122 b 332 113 342 118 336 114 z m 569 538 b 581 554 568 546 572 549 b 569 538 581 546 575 539 z m 328 93 b 325 93 328 93 325 92 b 321 97 322 93 321 97 b 331 108 325 101 325 107 b 328 93 331 104 332 99 z m 388 432 b 392 431 392 432 392 431 b 413 436 399 431 407 428 b 392 435 403 435 397 435 z m 211 -83 b 219 -72 211 -79 211 -72 b 211 -83 219 -75 219 -81 z m 292 78 b 300 92 294 85 292 89 b 292 78 300 88 300 82 z m 499 431 b 507 442 499 435 499 438 b 499 431 507 436 507 432 z m 206 -96 b 211 -83 206 -90 206 -85 b 206 -96 211 -89 211 -93 z m 588 561 b 593 574 589 567 588 572 b 588 561 593 568 593 563 z m 225 -58 b 219 -69 225 -64 225 -68 b 225 -58 219 -65 219 -60 z m 543 497 b 538 486 543 493 543 489 b 543 497 538 492 538 496 z m 614 599 b 618 611 614 603 614 608 b 614 599 618 607 618 600 z m 499 524 b 507 531 504 524 507 526 b 499 524 503 528 499 528 z m 242 611 b 239 599 242 604 244 600 b 242 611 239 603 239 608 z m 257 -24 b 261 -22 260 -24 261 -22 b 269 -26 265 -24 267 -24 l 260 -26 b 257 -24 260 -26 260 -24 z m 176 -168 b 175 -164 176 -168 175 -165 b 181 -160 176 -161 179 -161 b 179 -165 181 -161 179 -164 b 176 -168 179 -168 179 -168 z m 239 -33 b 242 -22 239 -28 236 -22 b 239 -33 242 -26 242 -29 z m 185 -153 b 181 -156 185 -154 183 -154 l 181 -150 b 183 -149 181 -149 183 -149 b 185 -153 183 -149 185 -150 z m 529 481 b 538 486 529 482 533 485 b 529 481 538 482 535 481 z m 424 474 b 418 467 422 472 418 472 b 424 474 422 467 424 469 z m 619 611 b 624 618 619 614 619 618 b 619 611 624 614 622 611 z m 256 -39 b 251 -43 254 -40 251 -42 l 251 -37 l 254 -35 b 256 -39 254 -37 256 -39 z m 593 574 b 600 578 593 576 596 578 b 593 574 600 576 599 574 z m 681 699 b 686 704 681 703 683 703 b 681 699 685 700 685 699 z m 306 54 b 300 49 303 53 301 51 b 301 57 301 53 301 54 l 303 58 b 306 54 303 57 306 54 z m 160 -218 l 158 -218 l 158 -211 b 161 -211 160 -210 160 -210 b 160 -218 161 -214 160 -215 z m 256 342 b 250 336 256 339 254 336 b 256 342 251 340 254 340 z m 611 599 b 608 593 611 596 611 596 b 611 599 607 599 608 599 z m 451 472 b 449 467 451 469 451 469 b 451 472 451 467 457 467 z m 350 143 b 347 138 350 139 347 139 b 350 143 346 143 347 143 z m 190 -137 b 189 -133 190 -135 189 -133 b 192 -129 190 -131 192 -129 l 192 -135 z m 300 49 b 297 43 300 46 297 46 b 300 49 294 49 297 49 z m 244 611 b 246 615 244 614 244 614 b 244 611 250 611 246 611 z m 269 -8 b 271 -4 271 -7 271 -4 b 275 -8 272 -4 272 -7 z m 250 336 b 246 332 250 335 246 332 b 250 336 244 336 246 335 z m 342 413 b 350 417 346 413 347 415 b 342 413 347 417 346 415 z m 600 581 b 603 585 600 581 603 583 b 600 581 607 581 603 581 z m 288 33 b 292 31 292 36 292 33 b 288 33 292 31 290 31 z m 690 704 l 686 704 l 690 708 z m 313 72 b 310 68 310 72 310 69 b 313 72 306 72 310 72 z m 175 311 b 176 315 176 311 176 315 b 175 311 181 311 176 311 z m 415 463 l 418 467 b 415 463 417 467 413 467 z m 350 143 b 351 147 351 144 351 144 b 350 143 356 143 351 143 z m 164 -199 l 164 -196 b 165 -192 164 -194 164 -194 l 165 -194 b 164 -199 165 -196 165 -199 z m 372 179 b 371 175 372 178 372 178 b 372 179 368 179 371 179 z m 192 324 b 190 319 192 321 192 321 b 192 324 189 324 190 324 z m 626 618 l 626 622 b 626 618 631 618 626 618 z m 749 703 l 744 703 b 749 703 744 701 744 699 z m 508 533 b 507 531 508 532 507 531 b 508 533 508 531 513 531 z m 269 -8 b 267 -12 267 -11 267 -11 b 269 -8 265 -8 267 -8 z m 210 465 b 207 467 210 465 207 465 b 210 465 207 465 207 461 z m 313 74 b 315 76 315 74 315 76 b 313 74 319 74 315 74 z m 194 324 b 196 326 194 325 196 326 b 194 324 199 324 196 324 z m 443 463 b 449 467 446 463 447 465 z m 171 -181 b 174 -179 171 -179 171 -179 l 174 -181 z m 638 638 b 639 639 639 638 639 639 b 638 638 644 638 639 638 z m 790 750 l 792 749 b 790 750 792 750 792 753 z m 422 261 l 422 264 l 424 264 z m 174 310 b 171 308 174 310 174 308 b 174 310 171 308 171 310 z m 442 289 l 439 289 l 442 290 z m 214 -118 l 214 -115 l 215 -118 z m 254 628 l 254 626 l 251 626 z m 668 771 l 669 771 l 669 768 z m 679 696 b 681 699 679 699 679 699 b 679 696 679 697 679 696 z m 401 458 l 403 457 l 403 458 z m 183 -186 l 183 -185 l 185 -185 z m 635 635 l 638 635 b 635 633 635 635 635 635 z "},"5":{"ha":551,"x_min":0,"x_max":0,"o":"m 842 928 b 788 922 825 922 806 922 b 744 918 772 922 757 922 b 713 915 732 915 725 915 b 682 913 701 914 690 918 b 660 918 675 914 667 908 b 628 929 651 924 640 928 b 560 904 601 931 579 919 b 521 874 547 897 533 885 b 497 850 513 867 501 861 b 483 842 494 846 489 843 b 464 822 478 835 468 828 b 386 726 438 792 407 761 b 364 700 379 717 371 708 b 340 663 356 689 349 676 b 313 617 332 647 322 635 b 275 524 296 589 286 556 b 265 432 264 493 265 463 b 267 422 265 429 265 425 b 281 376 272 407 276 392 b 306 292 288 349 297 321 b 317 201 313 263 317 232 b 306 171 313 192 311 181 b 265 125 294 154 281 140 b 164 58 238 96 201 74 b 125 43 150 54 136 51 b 115 40 124 40 119 40 b 90 35 106 40 99 36 b -7 21 33 24 29 19 b -89 44 -37 24 -64 29 b -97 51 -92 49 -94 50 b -136 135 -114 78 -133 101 b -137 136 -136 135 -136 136 b -139 132 -137 135 -139 135 b -136 89 -143 117 -137 101 b -112 39 -132 69 -122 54 b -82 4 -103 25 -94 10 b 22 -29 -49 -17 -17 -29 l 93 -29 l 133 -22 b 150 -17 139 -22 146 -21 b 161 -11 151 -14 156 -11 b 186 -3 171 -11 179 -7 b 222 14 200 1 211 8 b 240 19 229 19 235 14 l 257 33 l 264 36 b 306 71 279 44 290 60 b 313 82 310 74 311 78 b 326 97 318 86 321 93 b 356 147 342 111 349 129 b 364 201 361 163 368 182 b 344 278 360 228 353 253 b 326 338 340 297 332 318 b 310 444 317 372 307 407 b 325 514 311 468 322 490 l 326 515 b 361 585 340 539 351 561 b 424 681 382 619 403 650 b 449 708 433 690 447 696 b 499 765 467 728 482 746 b 540 807 513 778 528 793 b 574 835 553 815 563 824 b 586 835 578 838 579 838 b 621 838 599 832 608 832 b 682 846 640 843 660 847 b 701 847 689 846 696 846 b 778 858 726 857 751 847 b 808 871 797 857 789 865 z m 265 85 b 267 96 265 89 265 93 l 296 121 b 294 111 296 117 296 114 b 265 85 286 101 275 93 z m 149 28 b 140 29 146 28 144 29 l 144 33 b 151 35 149 33 150 33 b 149 28 150 33 149 29 z m 296 121 b 303 129 296 125 297 125 b 296 121 303 124 301 121 z m 160 35 l 151 35 b 156 39 154 36 154 36 b 161 36 160 39 161 39 z m 260 78 b 264 82 260 81 261 82 b 260 78 264 82 261 81 z m 114 18 l 110 19 l 114 19 z m 250 67 b 250 69 249 69 249 69 z m 306 129 l 303 129 z m 200 54 l 199 56 l 200 56 z "},"6":{"ha":675,"x_min":0,"x_max":0,"o":"m 899 1011 b 892 1021 894 1015 893 1019 b 817 1036 868 1033 843 1042 b 788 1025 807 1031 797 1029 b 722 1000 765 1019 743 1011 b 651 958 700 985 675 974 b 543 879 615 933 575 907 b 481 826 521 863 499 847 b 383 728 449 792 415 761 b 349 693 372 717 357 707 b 319 656 339 678 328 669 b 301 636 313 650 304 643 l 219 535 b 128 394 186 489 154 444 l 121 383 b 90 338 108 369 100 353 b 71 299 85 324 78 311 b 51 258 65 286 56 272 b 19 213 44 240 36 224 b 21 207 15 211 15 207 b 28 196 25 206 28 200 l 21 182 b 8 101 14 156 6 126 b 19 31 8 65 8 54 b 28 10 21 24 25 17 b 75 -37 36 -11 54 -26 b 132 -51 93 -46 113 -51 b 171 -46 146 -51 157 -47 b 235 -29 192 -40 213 -37 b 333 25 267 -14 301 4 b 385 71 353 39 369 51 b 419 101 400 79 408 90 b 468 156 438 117 458 131 b 496 181 474 165 485 175 b 539 226 514 192 529 207 b 549 251 543 236 544 243 b 546 283 556 261 556 272 b 499 322 533 301 518 314 b 453 339 483 329 468 336 b 443 344 449 342 444 342 b 376 354 419 349 399 349 b 361 357 372 357 368 357 l 297 349 b 292 347 296 349 292 349 b 261 333 282 336 272 338 b 232 322 251 332 242 332 b 215 317 228 318 222 317 b 186 307 204 317 196 314 b 176 301 185 303 181 301 b 132 278 161 297 146 288 b 124 276 131 276 125 276 l 124 286 b 131 293 125 289 131 292 b 171 357 140 318 154 338 b 185 382 176 364 185 369 b 192 389 185 383 190 388 b 231 447 204 410 217 429 b 258 490 239 463 247 478 b 281 515 265 499 274 506 b 304 543 286 528 297 535 l 307 544 b 357 608 322 567 339 589 b 392 646 368 621 382 632 b 414 669 399 651 404 663 b 449 713 428 685 443 693 b 453 717 449 715 450 715 b 526 788 478 742 506 758 b 533 793 526 789 531 792 l 549 804 b 625 868 571 832 600 847 b 646 883 632 872 639 876 b 697 919 663 897 678 913 b 721 935 706 922 715 929 b 803 979 746 954 774 968 b 864 1006 824 989 846 990 b 876 999 868 1008 876 1004 b 872 968 878 989 876 979 b 876 964 872 968 874 964 l 879 964 l 900 989 b 899 1011 904 996 904 1006 z m 146 243 b 293 292 193 268 243 278 b 308 293 301 293 304 293 b 353 299 324 293 339 292 b 372 299 358 301 367 299 b 392 304 379 299 385 299 b 438 317 404 317 422 308 b 443 317 438 318 443 318 b 483 289 458 308 475 304 b 485 261 490 282 493 272 b 469 240 481 253 475 246 b 453 215 464 231 460 224 b 454 211 453 215 453 211 b 460 208 454 208 458 208 b 469 211 464 211 465 211 b 450 190 465 203 460 196 b 392 144 431 176 413 161 b 322 90 369 125 347 110 b 317 86 319 89 318 89 b 235 40 288 74 261 56 b 207 28 226 35 215 31 b 128 6 181 19 154 13 b 60 21 104 1 82 8 b 46 46 51 25 46 36 b 51 113 44 67 44 89 b 60 146 56 125 58 135 b 74 182 61 160 69 172 b 90 224 78 196 85 208 b 100 226 93 228 96 228 l 108 226 z m 328 60 l 297 46 l 293 46 b 292 49 293 46 292 46 l 293 50 b 326 67 304 56 317 60 l 332 67 b 328 60 332 65 332 64 z m 121 351 b 135 368 121 360 125 364 b 121 351 135 360 131 353 z m 228 499 b 239 519 228 510 232 514 b 228 499 239 510 238 504 z m 232 475 b 226 460 231 468 228 464 l 224 460 l 222 463 b 226 475 222 465 222 474 b 231 478 228 478 231 478 z m 165 418 b 178 435 165 428 169 433 b 165 418 178 428 175 424 z m 165 418 b 157 404 165 414 165 410 b 165 418 157 413 157 415 z m 408 719 b 419 731 413 724 415 728 b 408 719 419 722 419 719 z m 201 468 b 208 481 201 474 201 479 b 201 468 208 475 208 471 z m 78 274 b 71 263 78 271 78 263 b 78 274 71 268 71 272 z m 85 288 b 78 274 82 283 85 276 b 85 288 78 278 78 286 z m 108 332 b 104 318 108 326 108 319 b 108 332 104 322 101 329 z m 115 342 b 108 332 115 338 115 333 b 115 342 110 336 108 342 z m 135 368 b 139 382 135 372 135 379 b 135 368 139 374 139 369 z m 190 456 b 185 444 190 450 190 447 b 190 456 185 449 185 454 z m 379 686 b 389 693 382 693 385 693 b 379 686 388 688 383 686 z m 60 246 b 65 247 61 247 61 247 l 65 243 b 61 240 65 242 61 242 b 60 246 60 242 60 243 z m 86 299 b 89 292 89 297 89 293 l 85 288 b 86 297 85 289 85 292 z m 71 261 b 65 251 71 257 71 253 b 71 261 67 256 65 258 z m 496 238 b 490 231 496 232 494 231 b 496 238 490 236 493 238 z m 483 224 b 490 231 485 228 485 231 b 483 224 490 226 489 226 z m 518 272 b 518 267 518 271 521 268 b 515 263 518 263 515 263 l 515 268 b 518 272 515 271 518 271 z m 101 318 b 97 311 101 314 100 311 b 101 318 97 317 100 318 z m 328 625 b 332 631 328 625 328 628 b 328 625 333 625 332 625 z m 50 215 b 51 211 50 213 51 213 b 50 208 51 208 50 208 b 46 213 50 211 46 211 z m 121 349 b 115 344 121 347 119 344 b 121 349 115 347 117 349 z m 128 324 b 131 329 128 326 131 329 b 128 324 132 324 131 324 z m 96 311 b 93 307 96 308 96 308 b 96 311 90 311 93 311 z m 428 738 b 422 731 428 732 424 732 b 428 738 424 732 424 735 z m 192 456 b 196 463 192 460 193 463 b 192 456 196 458 193 458 z m 308 606 b 317 611 311 608 313 611 b 308 606 313 608 313 606 z m 281 540 b 278 543 281 540 278 540 b 281 546 278 543 281 544 b 282 543 281 544 282 543 b 281 540 282 540 281 540 z m 208 481 l 215 486 b 208 481 215 483 213 481 z m 151 399 b 157 404 154 403 154 404 b 151 399 157 403 156 400 z m 163 382 b 161 383 163 382 163 383 b 167 385 163 385 165 385 l 169 383 b 163 382 167 383 165 383 z m 514 261 b 511 257 514 261 514 258 b 514 261 510 261 511 261 z m 282 574 b 278 569 282 571 281 569 b 282 574 278 571 281 574 z m 521 824 b 518 819 521 822 518 822 b 521 824 515 824 518 824 z m 304 600 b 308 606 304 601 307 604 b 304 600 308 601 307 601 z m 347 650 b 343 646 347 647 343 647 b 347 650 342 650 343 647 z m 478 221 b 483 224 479 222 481 224 b 478 221 483 222 481 221 z m 303 600 b 301 596 301 597 301 597 b 303 600 297 600 301 600 z m 226 499 b 222 494 226 496 224 496 b 226 499 222 496 224 499 z m 128 324 b 125 319 125 322 125 322 b 128 324 121 324 125 324 z m 140 382 b 143 385 140 383 140 383 b 140 382 146 382 143 382 z m 154 368 b 156 372 154 369 154 372 b 154 368 157 368 156 368 z m 151 399 b 150 394 151 399 150 397 b 151 399 146 399 150 399 z m 176 404 l 176 400 b 176 404 171 404 176 404 z m 435 743 b 439 747 435 746 438 747 b 435 743 439 746 438 746 z m 292 582 l 292 586 b 292 582 296 582 292 582 z m 265 551 l 267 554 b 265 551 271 551 267 551 z m 561 863 l 564 863 l 561 858 z m 485 793 b 489 796 485 796 485 796 z m 479 788 b 483 792 481 789 481 792 b 479 788 483 789 481 789 z m 219 493 b 215 489 219 490 217 490 b 219 493 217 490 217 493 z m 263 550 b 260 544 263 546 261 546 b 263 550 261 547 261 550 z m 496 238 b 499 242 499 240 499 240 b 496 238 500 238 499 238 z m 201 468 b 197 463 200 465 197 464 b 201 468 197 465 200 468 z m 392 697 b 389 693 396 696 392 696 b 392 697 390 696 392 697 z m 185 413 b 186 415 185 414 185 415 b 185 413 190 414 186 414 z m 36 182 l 36 185 l 39 185 z m 211 454 l 213 456 l 213 450 z m 119 308 l 117 308 l 119 311 z m 178 439 b 181 443 178 440 179 442 b 178 439 181 442 179 440 z m 569 864 l 565 864 l 569 865 z m 367 669 b 368 672 367 671 368 671 b 367 669 369 669 368 669 z m 274 567 l 276 567 b 274 565 276 567 275 565 z m 469 781 b 467 776 469 778 468 776 b 469 781 468 776 468 778 z m 407 717 l 407 715 b 407 717 403 717 407 717 z m 213 286 l 213 283 l 211 283 z m 96 272 l 93 271 l 93 272 z m 267 525 l 265 525 l 267 526 z m 263 524 l 261 521 b 263 524 261 524 263 524 z m 499 803 l 499 804 l 500 803 z m 43 196 l 43 197 l 44 196 z m 374 685 l 376 686 b 374 685 376 685 374 685 z m 178 404 b 181 408 179 406 181 407 b 178 404 181 407 179 406 z m 242 519 b 243 521 242 521 243 521 z m 150 367 b 151 368 150 368 151 368 z m 250 536 l 251 536 b 250 535 250 536 250 535 z "},"7":{"ha":625,"x_min":0,"x_max":0,"o":"m 96 169 b 92 175 96 171 93 174 b 101 183 93 183 97 183 b 103 189 101 185 101 186 b 103 194 97 190 97 190 l 103 189 b 121 201 113 186 118 193 b 128 214 128 201 128 208 l 114 214 l 114 225 b 108 214 108 224 108 219 b 97 204 106 210 99 208 b 36 113 76 175 53 144 b 26 97 33 106 31 101 b 21 75 21 90 21 83 b 15 64 17 74 15 68 b 7 51 7 63 7 57 b -4 44 6 49 1 47 b 10 82 0 58 3 72 b 63 175 25 114 40 147 b 111 251 72 206 97 225 b 167 326 132 274 144 304 b 189 351 176 335 182 344 b 225 403 197 372 210 388 b 235 415 229 406 233 411 b 268 456 243 428 254 443 b 299 493 278 468 290 478 b 321 521 304 504 315 513 b 392 600 344 551 368 575 b 417 632 401 610 410 619 b 444 663 426 643 438 649 b 460 678 447 669 451 674 b 481 697 465 685 475 690 b 497 724 488 706 497 710 b 533 760 513 735 522 750 b 575 800 549 774 560 789 l 588 819 b 603 835 592 826 603 826 b 651 881 618 850 633 865 b 658 882 651 882 656 882 b 644 865 653 876 651 869 b 622 839 638 858 632 847 b 603 815 617 832 607 824 b 597 808 601 811 599 808 b 576 786 588 801 582 796 b 567 775 575 782 571 776 b 526 729 551 761 538 747 l 518 721 b 476 674 503 706 490 690 b 444 639 467 660 456 650 b 385 569 422 617 404 593 l 356 539 b 315 488 340 524 329 504 b 272 436 300 471 288 453 b 253 407 263 426 256 418 b 268 413 260 407 265 408 b 289 426 272 426 281 426 b 269 397 288 413 275 407 b 256 390 260 403 258 393 l 250 390 l 250 393 b 253 407 250 397 253 403 b 235 392 244 406 239 397 b 238 378 235 388 238 381 b 222 375 233 375 225 376 l 213 365 l 149 279 b 157 269 144 276 149 271 l 158 269 b 147 256 157 258 157 258 b 142 239 144 250 147 244 b 153 233 142 231 147 233 b 157 240 153 235 153 240 b 164 250 160 240 164 240 b 179 264 164 258 172 264 b 183 276 192 264 188 269 b 192 279 183 279 188 281 l 199 279 b 213 297 204 285 210 292 b 208 315 214 301 210 311 b 203 326 207 319 204 321 l 197 326 b 203 332 199 329 203 331 b 218 335 208 340 208 340 b 240 336 225 331 233 331 b 243 344 243 336 243 342 b 253 351 238 357 244 351 l 254 356 b 268 381 265 361 272 367 b 274 388 265 386 269 388 b 283 388 278 388 281 382 b 310 421 290 397 303 407 b 318 442 315 426 321 431 b 329 449 318 443 321 451 b 333 453 333 446 333 451 b 329 463 333 457 331 458 b 351 476 339 463 346 468 b 365 488 356 482 361 486 b 376 504 371 492 379 497 b 360 507 369 504 365 507 l 360 514 b 356 524 351 521 351 521 b 371 532 361 528 365 529 l 371 518 b 386 522 375 514 381 517 b 425 557 400 533 411 547 b 426 563 426 557 426 560 b 461 593 432 578 446 585 b 472 608 467 597 471 600 b 490 629 476 617 479 625 b 506 644 496 632 501 639 b 547 690 517 663 532 675 b 567 721 556 700 567 708 b 575 729 567 725 571 728 b 586 739 579 735 583 736 l 624 782 b 667 824 642 796 653 811 b 693 854 675 835 689 842 b 699 861 694 858 697 861 b 771 922 724 881 747 900 b 783 931 774 926 778 931 b 821 965 800 939 813 947 b 831 969 824 968 825 968 b 831 974 831 972 833 974 b 801 1003 821 986 819 1003 b 801 1007 800 1003 800 1004 b 799 1019 804 1013 804 1018 b 749 1018 783 1022 764 1022 b 694 1013 732 1013 714 1013 b 671 1011 689 1013 678 1017 b 624 1007 656 1007 642 1008 b 579 1001 608 1003 594 1003 b 513 993 557 1001 536 999 b 401 976 476 986 440 983 b 306 961 369 972 339 963 b 275 957 299 961 288 957 b 260 954 272 957 265 957 b 224 947 247 953 238 953 b 188 946 213 943 199 946 l 178 946 b 149 897 144 938 142 931 b 153 885 149 893 151 890 b 193 874 163 869 176 865 b 244 890 210 882 225 890 b 296 897 263 890 278 893 b 314 897 303 900 306 897 b 335 901 319 897 329 900 b 415 921 361 913 390 913 b 447 924 426 922 438 924 b 488 932 464 926 476 928 b 536 939 503 938 518 939 b 551 942 540 939 544 939 b 601 951 567 943 583 947 b 690 961 632 957 663 954 b 694 958 693 961 694 961 b 693 953 694 957 694 954 b 679 942 689 947 683 946 b 582 832 647 906 614 869 l 496 740 b 486 728 492 736 488 732 b 460 700 476 717 467 708 b 444 685 456 693 447 689 b 407 639 435 665 419 654 b 392 624 400 633 396 628 b 369 597 385 614 376 604 b 325 547 354 582 339 567 b 281 489 314 528 299 507 b 199 390 253 458 225 425 b 167 346 189 376 179 360 b 113 271 147 321 129 297 b 92 244 106 264 99 251 b 71 214 82 233 76 224 l 61 193 b -8 74 32 156 11 114 b -21 36 -12 63 -15 49 b -12 -14 -25 18 -28 1 b 0 -14 -8 -17 -4 -17 b 26 43 11 3 21 22 b 36 63 32 49 32 57 b 63 104 47 75 49 90 b 71 125 67 108 71 117 b 88 147 78 132 82 140 b 97 147 92 147 96 149 b 101 153 101 144 101 149 b 97 163 101 156 99 160 b 78 156 92 160 83 158 b 92 175 78 168 82 174 b 96 169 92 174 93 171 z m 128 215 b 147 221 133 217 142 217 b 151 225 149 221 149 224 l 143 225 b 128 246 132 229 129 231 b 114 225 121 240 114 236 b 128 215 126 224 126 224 z m 467 632 b 446 614 465 619 456 617 b 444 617 446 614 444 614 l 444 618 b 464 639 446 629 456 633 l 467 639 b 467 632 471 635 467 633 z m 336 478 b 333 482 336 478 335 478 b 331 486 331 482 329 486 b 351 501 335 493 340 501 b 336 478 349 493 344 486 z m 682 901 b 660 882 674 896 667 890 b 679 907 660 896 668 901 b 682 906 679 907 682 907 z m 64 125 b 47 108 61 117 56 110 b 53 124 47 114 49 119 b 64 125 57 125 61 125 z m 318 458 b 310 463 315 458 314 461 b 314 468 310 463 310 468 b 321 471 315 468 319 471 l 329 463 b 318 458 324 461 321 458 z m 290 426 b 296 443 290 433 288 442 b 303 440 299 442 300 440 b 290 426 300 433 296 428 z m 164 276 b 178 294 164 285 168 292 b 164 276 178 285 174 279 z m 494 658 b 479 650 490 654 486 650 b 490 663 481 658 482 663 l 494 663 z m 193 311 b 178 296 192 301 189 294 b 189 313 182 300 183 306 l 192 313 z m 401 557 b 400 569 401 563 396 567 b 404 572 401 572 404 572 b 410 568 407 572 410 569 b 401 557 410 564 410 560 z m 147 256 b 136 264 144 261 142 265 b 133 254 136 261 133 256 l 133 251 b 147 256 139 251 143 254 z m 108 201 b 111 214 108 204 108 208 l 114 214 l 121 201 z m 503 685 l 501 685 l 501 686 l 517 694 b 503 685 513 685 511 681 z m 426 588 b 422 583 426 585 425 583 b 419 588 419 583 419 585 b 417 593 419 590 419 590 b 425 593 419 593 422 594 b 426 588 426 593 426 590 z m 392 544 b 401 557 392 554 392 557 b 392 544 400 551 396 547 z m 642 989 l 629 989 b 624 992 629 989 628 992 b 629 993 624 992 628 993 l 642 993 b 643 992 643 993 643 992 z m 228 351 b 225 347 228 350 225 347 b 222 356 224 350 222 351 b 228 363 222 360 224 361 z m 71 153 b 64 139 71 144 71 140 b 71 153 67 143 64 149 z m 67 125 b 64 132 64 128 64 129 b 64 139 61 135 61 135 b 67 132 67 138 67 135 b 71 125 67 129 68 128 z m 371 533 b 383 538 375 538 379 538 b 371 533 383 532 376 533 z m 303 440 l 303 443 l 299 443 b 300 451 299 446 299 449 b 303 443 300 449 303 446 b 306 442 304 443 306 442 b 303 440 306 442 304 440 z m 542 724 l 542 729 b 547 725 544 728 547 728 b 542 724 547 725 544 724 z m 224 321 b 222 315 222 319 222 317 b 225 319 224 315 225 317 b 224 325 228 319 225 321 z m 160 269 b 164 276 160 274 163 276 b 160 269 164 271 163 271 z m 133 246 l 133 250 b 128 246 132 250 129 249 z m 533 708 l 532 710 b 533 713 532 713 532 713 b 538 710 533 713 536 713 b 533 708 536 710 536 708 z m 157 231 l 153 233 l 153 226 b 157 231 153 229 157 229 z m 101 168 b 97 169 99 168 99 169 l 97 164 b 101 168 97 164 99 164 z m 33 89 b 32 83 32 88 32 88 b 33 89 26 89 32 89 z m 517 694 b 518 700 517 697 518 697 b 517 694 521 694 518 694 z m 361 518 b 360 514 361 517 361 517 b 361 518 361 514 365 514 z m 194 326 b 193 321 194 325 194 321 b 194 326 192 325 193 325 z m 108 179 b 103 181 106 179 103 179 b 108 179 103 178 103 175 z m 219 310 b 222 313 219 311 219 311 b 219 310 219 313 214 313 z m 385 539 b 390 544 385 543 386 544 b 385 539 386 543 385 539 z m 419 582 l 419 578 b 419 582 415 582 419 582 z m 207 329 b 204 332 207 331 204 331 l 204 326 b 207 329 204 329 207 329 z m 476 650 b 475 647 476 649 476 649 b 476 650 472 650 475 650 z m -6 42 b -4 44 -10 44 -6 44 b -6 42 -6 43 -6 43 z m 228 363 b 229 367 229 365 229 367 b 228 363 233 363 229 365 z m 682 996 l 679 999 l 682 999 z m 10 51 b 11 49 10 49 11 49 b 10 51 10 44 10 49 z m 47 106 b 46 104 46 106 46 104 b 47 106 40 106 46 106 z m 22 75 l 25 74 b 22 75 22 72 22 74 z m 689 915 l 686 917 l 689 917 z m 17 60 l 17 63 l 18 60 z "},"8":{"ha":644,"x_min":0,"x_max":0,"o":"m 542 524 b 567 551 550 533 560 540 b 603 615 581 575 594 596 b 618 653 610 629 614 640 b 631 703 622 668 631 682 b 638 721 631 706 636 714 b 644 740 642 726 644 733 b 649 763 642 747 644 756 b 640 806 651 778 649 790 b 636 814 638 807 636 811 b 631 850 640 828 631 840 b 622 874 631 861 626 867 b 572 914 607 890 590 901 b 494 943 549 932 525 943 b 474 947 486 943 481 947 b 449 943 465 947 456 943 b 415 938 438 942 425 943 b 379 935 403 947 390 935 b 364 931 374 935 369 932 b 344 921 358 924 353 921 b 317 914 335 921 326 919 b 289 904 308 910 299 907 b 263 890 283 890 272 896 b 246 885 261 875 251 890 b 228 869 242 881 233 875 b 140 794 199 857 157 817 b 106 689 117 765 100 731 l 106 681 b 131 613 103 653 115 629 b 161 569 140 597 150 581 b 157 558 163 564 163 561 b 115 494 140 539 131 515 b 103 474 110 488 107 478 b 75 417 90 457 81 435 b 64 386 71 406 65 396 b 29 213 42 331 25 272 l 29 200 b 57 103 29 165 39 131 b 69 76 61 94 65 88 b 94 47 75 64 81 53 b 110 35 101 43 107 39 b 146 13 121 22 132 18 b 193 0 163 8 178 3 b 201 -3 197 -3 199 -3 b 246 3 217 3 232 1 b 304 13 264 7 283 7 b 363 43 326 18 344 25 b 379 58 369 51 375 53 b 429 111 400 75 418 90 b 438 135 433 121 435 126 b 419 246 439 174 438 213 b 347 375 394 290 375 335 b 292 449 328 400 311 426 b 236 518 274 474 257 496 b 236 535 232 524 232 528 l 247 546 b 268 563 253 550 263 554 l 311 599 b 329 603 314 606 322 608 b 354 599 338 599 344 599 b 368 614 360 601 368 606 b 363 629 369 618 368 624 b 344 649 357 636 350 640 b 314 664 339 657 326 657 b 308 660 313 664 311 664 b 282 649 299 657 292 653 b 246 625 272 640 258 636 b 201 599 231 618 214 608 b 175 603 183 585 183 581 b 161 651 168 618 163 632 b 156 675 157 657 153 668 b 167 717 163 688 161 704 b 188 754 175 728 181 740 b 213 783 197 763 206 776 b 221 793 214 790 218 790 b 322 861 253 817 283 844 b 439 900 360 881 399 893 b 446 901 440 900 444 900 b 481 907 456 910 469 907 b 546 900 504 910 525 904 b 581 867 564 897 576 885 b 590 840 582 857 586 846 b 590 794 594 824 594 810 b 586 758 588 782 581 771 b 582 747 586 754 586 751 b 515 596 564 693 544 642 b 489 551 507 581 500 564 b 422 422 464 511 444 467 b 418 404 418 418 419 410 b 419 400 418 404 418 400 b 424 400 419 400 422 399 b 431 408 425 404 429 406 b 446 410 435 410 439 418 b 454 413 449 410 453 410 b 474 431 461 418 468 425 b 518 476 489 444 500 467 b 525 494 521 478 525 488 b 533 508 525 500 526 507 l 544 524 z m 213 507 b 253 457 228 489 238 472 b 278 431 263 449 272 439 b 329 357 293 406 314 383 b 343 322 338 347 338 332 b 350 290 350 314 350 303 b 353 281 350 289 350 281 b 364 244 364 272 360 257 b 372 207 369 232 369 218 b 369 167 375 194 374 182 b 328 110 363 143 347 126 b 299 86 319 100 308 94 b 282 82 294 82 288 82 b 199 69 253 74 228 65 b 138 75 181 69 157 71 b 115 86 131 75 122 82 b 100 97 110 88 106 94 b 75 142 81 104 76 122 b 75 224 72 167 72 194 b 79 244 75 229 79 238 b 81 272 81 254 90 264 b 85 281 81 276 85 281 b 96 307 94 285 92 297 b 103 331 100 314 101 322 b 171 456 126 371 146 417 b 213 507 183 472 197 489 z m 533 585 b 542 590 535 586 539 588 b 540 572 544 583 544 578 b 533 563 536 567 533 564 b 510 524 529 546 511 540 b 486 488 507 507 494 499 b 464 447 481 472 471 460 b 460 447 464 444 461 447 l 460 454 b 525 567 481 490 496 533 b 533 585 526 572 529 579 z m 556 614 b 543 592 556 603 551 596 b 551 615 542 601 549 608 b 556 614 556 615 556 614 z m 415 914 b 408 918 414 914 411 917 b 415 919 410 918 414 919 b 425 919 418 921 422 919 b 429 918 425 919 429 919 l 425 918 b 424 914 425 914 424 914 z m 343 893 b 329 886 342 885 335 886 b 343 893 332 896 339 893 z m 353 896 b 343 893 350 896 344 896 b 360 900 347 901 357 900 b 353 896 360 896 357 896 z m 390 907 b 389 913 390 910 390 910 l 394 913 l 399 910 b 390 907 394 910 393 910 z m 368 901 b 360 900 364 900 363 900 b 364 904 363 901 363 904 l 372 904 b 368 901 369 901 369 901 z m 319 883 b 322 885 322 883 322 885 l 328 885 l 324 881 b 319 883 324 881 322 883 z m 618 754 b 617 747 617 751 617 751 b 618 754 611 754 617 754 z m 449 431 b 446 425 449 431 449 426 b 444 431 446 426 444 431 z m 294 868 l 289 868 b 292 869 289 869 292 869 l 294 869 z m 453 435 b 450 431 454 431 451 432 b 453 435 450 432 450 435 z m 621 758 b 618 754 624 754 619 756 b 621 758 619 756 621 756 z m 610 717 l 610 714 l 607 714 z m 314 49 l 314 51 l 317 49 z m 565 642 l 564 642 l 565 647 z m 439 435 b 440 432 439 435 440 433 b 439 435 439 433 439 433 z m 542 524 b 540 525 540 524 540 524 l 542 525 z m 440 918 l 439 918 l 439 919 z "},"9":{"ha":625,"x_min":0,"x_max":0,"o":"m 699 886 b 671 897 693 894 683 901 l 661 897 b 644 889 654 897 649 894 b 638 886 643 885 643 885 l 606 903 b 557 910 589 903 575 911 b 526 910 547 910 535 911 b 492 911 514 910 503 913 b 463 910 482 910 472 910 b 417 906 444 911 431 907 b 339 875 389 897 365 886 l 304 851 b 272 825 293 844 282 835 b 225 781 258 811 239 797 b 168 718 207 763 189 739 b 149 693 163 708 154 699 b 94 615 126 667 110 643 b 85 599 90 608 89 604 b 51 540 68 582 60 563 b 40 513 49 535 44 522 b 26 450 32 494 26 472 b 28 425 28 443 26 435 b 51 392 35 413 40 401 b 82 381 60 385 68 381 b 121 389 94 381 108 386 b 154 403 135 389 146 394 b 175 415 160 410 167 413 b 190 425 179 421 186 422 b 258 481 214 443 236 463 l 275 494 l 321 535 b 358 567 335 544 344 558 b 369 576 363 568 369 572 b 386 594 372 585 382 585 b 404 608 390 603 399 607 l 431 633 b 444 651 435 639 442 647 b 476 679 457 658 468 668 b 489 685 479 681 485 681 b 503 699 493 690 499 693 l 528 722 b 557 749 535 735 547 743 b 575 767 563 754 571 758 b 589 779 576 772 582 779 b 617 806 600 789 607 794 b 619 807 617 806 619 806 b 621 803 621 806 621 803 b 597 721 615 775 603 749 b 557 608 585 683 572 647 b 533 543 549 589 540 567 b 472 392 515 493 492 440 b 426 296 458 358 438 329 b 421 292 422 294 422 294 l 381 222 b 328 147 365 196 347 171 b 265 69 308 119 285 96 b 258 61 263 64 261 63 b 246 54 253 60 249 58 b 181 6 228 32 204 19 b 138 -6 167 -1 153 -6 b 122 -10 132 -6 126 -8 b 88 -10 110 -10 96 -14 b 32 19 64 -6 44 -3 b 17 31 28 24 22 28 b 13 31 14 32 13 32 b 10 24 10 28 10 26 b 50 -37 21 3 32 -17 b 99 -60 64 -50 78 -56 b 136 -67 110 -64 124 -62 b 153 -67 140 -68 149 -68 b 199 -53 167 -62 186 -60 b 218 -42 204 -50 210 -44 b 247 -24 231 -40 239 -31 b 279 8 260 -14 267 0 b 285 17 282 11 282 14 b 308 42 290 26 300 36 l 321 49 b 344 83 328 61 335 72 b 371 118 351 96 363 106 b 379 131 372 121 375 126 b 394 154 386 135 390 146 b 414 182 403 163 406 172 b 417 200 417 186 419 192 b 421 208 414 204 418 206 b 431 214 426 208 431 210 b 443 236 435 218 440 228 b 454 254 447 242 454 244 b 486 314 465 275 471 296 b 490 322 489 315 490 321 b 490 331 492 326 492 328 b 492 336 490 335 490 336 b 503 354 500 340 506 344 b 511 368 503 358 507 364 b 513 382 515 372 515 378 b 515 392 511 386 513 389 b 531 415 519 396 533 413 b 543 444 531 426 540 436 b 561 482 549 457 554 468 b 568 507 563 490 564 499 b 592 563 578 522 585 543 b 600 589 597 571 592 581 b 606 613 611 594 599 607 b 611 622 607 615 607 621 b 617 639 613 626 615 633 b 668 779 633 685 647 733 b 672 786 671 781 672 783 b 681 815 674 794 675 806 b 688 843 683 825 685 835 b 701 871 697 851 697 863 b 699 886 706 876 703 879 z m 635 865 b 606 843 621 863 617 849 b 601 835 603 840 603 838 b 578 819 594 831 586 825 b 563 803 572 815 567 807 b 554 797 561 799 557 799 b 551 799 554 797 554 803 b 554 797 553 799 553 797 b 519 767 543 786 531 776 b 490 739 511 756 500 749 b 476 725 486 735 479 731 b 421 669 463 704 442 689 b 365 621 404 653 385 636 b 336 603 357 613 349 607 b 321 590 333 597 328 594 b 307 575 318 583 313 579 b 235 515 286 550 261 535 b 217 507 231 511 222 510 b 179 478 204 496 190 486 b 121 439 160 464 139 453 b 93 431 113 436 103 431 l 71 431 b 63 443 64 431 63 436 b 68 475 60 454 64 464 b 78 501 71 485 76 493 b 93 522 82 508 89 515 b 101 535 94 525 101 529 b 114 561 101 544 107 553 b 163 625 132 581 146 603 b 163 629 163 626 163 629 b 204 683 181 644 193 665 b 232 717 217 693 225 704 b 260 743 244 721 247 735 b 293 769 272 751 285 756 b 339 806 308 779 322 794 b 394 835 357 817 375 831 b 431 849 408 838 418 849 b 468 861 444 851 457 858 b 540 876 490 875 515 867 b 568 881 549 878 558 879 b 600 886 578 885 589 881 b 635 871 613 889 626 881 b 635 865 638 871 635 865 z m 558 557 b 557 553 558 554 557 554 b 529 481 551 526 539 504 b 503 408 521 454 511 431 b 496 392 503 401 499 399 l 465 322 b 444 289 461 310 454 299 b 438 275 443 282 440 279 b 406 214 431 254 417 236 b 399 200 404 210 403 204 b 390 190 394 196 390 194 b 379 163 389 182 381 172 l 379 161 b 356 126 363 154 361 138 b 353 124 356 124 353 124 b 349 126 353 126 353 131 b 353 124 351 126 351 124 l 326 96 b 300 61 317 85 308 72 b 275 33 290 50 282 42 b 224 -14 260 14 240 0 b 217 -14 222 -14 218 -14 b 218 -10 211 -14 217 -11 b 260 36 232 6 246 19 b 263 46 263 36 263 42 l 253 46 b 258 50 253 47 254 49 b 261 54 258 54 260 54 b 263 49 261 54 263 50 l 263 46 b 282 63 272 50 276 58 b 285 69 285 64 285 68 b 290 85 281 76 282 82 b 308 104 299 89 304 96 b 333 133 317 114 326 124 b 344 147 335 140 339 144 b 361 172 349 157 356 164 b 369 185 363 176 367 178 b 403 238 376 204 390 218 b 431 292 414 254 421 275 b 476 378 447 321 463 350 b 486 400 479 385 482 392 b 517 475 496 425 507 450 b 529 507 525 485 526 496 b 544 549 531 522 540 535 l 571 615 b 576 622 572 618 572 621 b 558 557 576 599 571 579 z m 582 640 b 597 683 582 657 592 669 b 599 685 597 685 599 685 b 600 683 599 685 600 685 b 582 640 597 668 597 653 z m 224 17 b 208 6 221 11 217 6 b 224 17 210 14 217 17 z m 578 622 b 582 639 578 629 575 636 b 578 622 582 633 586 626 z m 399 635 b 407 644 400 640 404 643 b 399 635 407 636 407 636 z m 168 -17 b 179 -11 172 -11 175 -11 b 168 -17 176 -17 174 -14 z m 196 0 b 207 6 199 4 203 4 b 196 0 204 0 200 0 z m 408 647 b 419 651 413 651 417 651 b 408 647 418 647 414 647 z m 163 -22 b 160 -19 163 -22 160 -19 b 163 -17 160 -19 160 -17 l 167 -17 b 163 -22 164 -19 164 -22 z m 375 613 b 372 615 372 613 372 613 b 376 618 375 615 375 615 l 379 615 b 375 613 376 613 375 613 z m 232 496 l 228 496 b 231 499 228 499 231 499 b 235 499 232 499 235 499 b 232 496 235 499 235 496 z m 193 -31 b 186 -31 190 -32 189 -31 b 190 -28 189 -31 189 -28 l 194 -28 b 193 -31 194 -28 194 -31 z m 389 625 l 385 625 l 386 626 b 393 629 389 629 390 629 b 389 625 390 626 390 625 z m 196 -26 b 200 -24 196 -25 199 -24 b 196 -26 200 -25 199 -26 z m 454 685 b 457 689 454 685 454 689 b 454 685 458 685 457 685 z m 601 697 l 601 706 l 603 704 b 601 697 603 703 603 699 z m 235 499 b 236 504 235 501 236 501 b 235 499 239 499 236 499 z m 272 526 b 272 522 272 525 272 525 b 272 526 268 526 272 526 z m 444 676 b 447 679 443 679 444 679 b 444 676 447 679 447 676 z m 258 515 l 254 513 b 258 515 253 515 254 515 z m 449 681 b 454 683 449 681 451 683 z m 428 657 l 428 661 b 428 657 431 657 428 658 z m 421 653 b 426 657 421 654 422 657 b 421 653 422 654 421 653 z m 349 590 b 353 594 349 593 351 593 b 349 590 351 593 351 590 z m 179 -11 b 182 -8 181 -10 181 -8 b 179 -11 186 -11 181 -10 z m 194 0 l 194 -3 b 194 0 190 -1 194 -1 z m 601 844 b 606 843 603 844 603 843 b 601 844 603 844 606 847 z m 203 -22 l 204 -19 b 203 -22 207 -22 204 -22 z m 260 518 b 261 521 260 518 260 521 b 260 518 263 518 260 518 z m 250 44 b 247 40 250 42 249 40 b 250 44 249 42 249 44 z m 240 33 b 246 39 243 35 244 36 b 240 33 246 36 243 36 z m 607 717 l 607 718 l 611 717 z m 235 29 b 239 32 236 31 238 32 z m 406 186 l 406 189 l 407 189 z m 308 554 b 307 553 307 554 307 553 b 308 554 304 554 307 554 z m 217 485 l 214 486 l 217 486 z m 444 261 l 444 263 l 447 261 z m 289 540 b 286 539 289 539 286 539 b 289 540 286 540 289 540 z m 361 603 l 358 603 z m 393 176 l 394 178 l 394 176 z m 317 563 l 315 563 z "}," ":{"ha":535,"x_min":0,"x_max":0,"o":""},"a":{"ha":793,"x_min":0,"x_max":0,"o":"m 818 289 b 822 294 821 293 822 294 b 790 303 813 297 801 299 l 790 304 b 864 322 813 313 839 322 b 869 328 865 325 868 326 b 871 333 869 328 869 332 l 868 338 b 857 335 864 335 861 335 b 801 321 839 328 818 325 b 575 236 725 297 651 265 l 500 203 b 396 181 465 189 431 181 b 361 185 383 181 374 181 b 369 213 354 196 369 200 b 383 247 372 225 378 236 b 408 304 390 265 399 286 b 418 347 413 317 411 333 b 421 369 425 351 418 363 b 411 390 421 379 403 379 b 401 394 407 392 403 392 b 363 413 389 401 374 396 b 354 410 361 413 357 413 b 339 401 350 408 346 404 b 253 344 310 383 282 365 b 135 264 214 317 175 289 b 19 193 99 238 60 213 b -14 181 8 189 -1 181 b 7 213 -21 185 -21 185 b 21 238 15 218 10 232 b 86 303 43 260 60 283 b 135 351 104 321 122 335 b 221 418 163 376 186 400 b 307 432 243 425 271 443 b 311 450 317 429 318 440 b 240 476 301 467 260 486 b 144 438 207 467 174 457 b 49 363 110 413 78 392 b -43 268 19 333 -14 303 b -76 224 -53 253 -67 238 b -86 181 -82 213 -87 196 b -29 111 -81 139 -67 118 b 17 111 -14 110 1 111 b 31 117 21 111 26 115 b 106 164 56 132 82 146 b 168 208 128 175 147 193 b 224 243 185 219 204 232 l 322 313 b 328 311 324 315 324 315 l 328 308 b 311 253 322 289 314 272 b 328 157 304 219 300 186 b 333 140 329 150 332 146 b 372 111 340 122 357 117 b 426 110 389 106 407 96 l 440 110 b 508 122 464 115 486 118 b 594 157 539 129 567 140 l 635 171 b 663 189 644 175 646 190 l 667 189 b 703 215 675 200 686 213 l 704 215 l 704 217 b 663 203 689 213 675 207 b 657 207 663 203 660 207 b 660 213 657 208 657 208 b 747 247 671 218 719 238 b 788 272 757 260 771 269 b 818 289 796 283 808 288 z m 524 161 l 519 161 b 457 156 494 175 476 158 b 454 157 454 156 454 157 b 451 158 451 157 451 158 l 451 161 b 460 167 457 164 458 167 b 544 186 490 174 517 181 b 575 186 556 189 565 186 b 524 161 561 171 538 171 z m 728 282 l 728 283 b 790 299 747 293 767 303 l 789 299 b 728 282 768 289 749 283 z m 669 256 b 635 246 660 247 646 243 b 669 258 644 258 654 260 z m 669 260 b 704 272 681 269 690 275 b 669 260 696 260 685 258 z m 293 351 b 314 365 299 363 301 367 b 293 351 310 354 301 351 z m 250 322 b 271 338 254 333 260 338 b 250 322 265 326 260 322 z m 314 367 b 333 379 317 376 324 379 b 314 367 332 369 324 365 z m 207 294 b 226 308 213 304 219 308 b 207 294 225 299 219 293 z m 708 272 b 711 282 708 275 710 282 l 728 282 b 708 272 721 269 714 272 z m 231 311 b 250 322 232 321 240 322 b 231 311 249 313 236 311 z m 272 338 b 293 351 275 347 282 350 b 272 338 288 343 282 338 z m 625 238 l 613 238 b 632 246 617 247 628 243 b 625 238 632 240 631 238 z m 186 282 b 204 294 190 288 197 294 b 186 282 203 286 196 282 z m 822 308 b 828 299 818 303 822 303 l 829 299 b 835 308 829 301 832 306 b 822 308 831 308 829 311 z m 613 189 l 601 189 b 611 196 601 193 606 196 b 614 193 613 196 613 193 b 613 189 614 190 613 189 z m 585 225 b 581 229 585 225 583 225 l 583 229 b 588 225 585 229 588 229 z m 181 275 b 185 282 181 276 183 282 b 181 275 185 275 183 275 z m 611 233 l 607 236 l 611 236 z m 594 185 b 596 189 593 189 594 189 b 594 185 596 186 594 186 z m 175 269 l 175 272 l 178 272 z m 839 311 b 836 308 836 311 836 311 b 839 311 836 310 838 310 z m 757 276 l 760 276 l 760 275 z m 704 217 b 707 218 704 217 706 218 b 704 217 706 218 704 217 z m 338 383 l 338 385 l 339 385 z "},"b":{"ha":913,"x_min":0,"x_max":0,"o":"m 192 342 b 164 321 179 342 169 332 l 176 321 b 144 293 172 306 158 297 b 154 315 147 301 151 306 b 135 303 147 317 142 308 b 60 246 111 283 85 265 b 61 257 60 249 60 251 b 89 292 65 271 76 279 b 150 374 106 319 128 346 b 179 417 158 388 169 403 b 197 435 183 424 192 428 b 231 446 203 447 217 456 b 249 446 238 443 244 443 b 271 453 256 446 265 451 b 356 496 299 468 331 478 b 374 504 360 500 368 503 l 454 553 b 583 639 503 576 539 611 b 629 668 600 647 613 657 b 746 754 665 697 706 726 b 750 758 746 756 749 756 b 829 824 776 783 801 804 b 933 936 874 856 903 896 b 936 971 942 946 942 960 b 875 1032 925 996 904 1021 b 815 1039 856 1038 835 1042 l 806 1039 b 715 999 774 1028 743 1019 b 647 954 692 982 669 969 b 510 856 600 925 554 889 b 418 778 476 833 447 804 b 350 718 393 760 374 738 b 183 536 292 661 238 600 b 176 521 179 532 176 526 b 207 547 192 525 199 536 b 271 622 229 572 249 600 b 340 683 294 644 314 667 b 335 668 344 676 339 674 b 299 632 324 657 310 644 b 229 554 274 606 249 582 b 174 490 213 532 192 513 b 150 451 164 478 154 464 b 157 453 151 451 154 451 b 164 447 163 456 163 451 b 163 443 164 446 164 446 b 150 451 157 443 151 442 b 119 413 132 443 124 429 b 82 371 104 403 93 388 b 61 342 75 360 67 350 b 40 310 53 331 44 321 b 36 301 38 308 38 306 l 50 308 b 63 317 53 310 54 321 b 63 299 65 315 63 306 b 54 297 63 297 61 297 l 53 297 b 21 279 44 286 26 289 b 31 267 33 276 33 276 b 26 265 26 267 26 265 b 33 257 31 263 36 258 b 26 242 33 251 31 247 b 25 240 25 242 25 240 b 21 246 22 242 21 242 l 21 257 b 10 251 19 253 14 253 l 10 265 b -22 222 -7 253 -17 240 l -14 222 b -22 207 -14 214 -14 208 l -22 222 b -53 183 -36 213 -42 197 b -76 143 -61 169 -71 154 b -82 140 -78 140 -82 140 b -83 149 -83 143 -83 144 b -49 207 -72 168 -58 189 b -36 233 -43 218 -35 224 b -49 224 -37 231 -47 229 b -93 150 -64 200 -78 174 b -93 115 -101 139 -101 126 b -86 82 -87 107 -87 93 b -82 72 -83 81 -83 75 b -29 61 -65 64 -49 53 b 63 125 10 72 40 93 b 94 168 72 139 82 154 b 132 214 111 179 119 197 b 150 246 138 224 144 233 b 176 271 157 257 168 265 b 267 332 207 292 238 315 b 363 400 299 356 331 378 b 476 471 401 425 443 443 b 504 486 485 478 494 482 b 608 535 539 500 574 521 b 631 538 618 544 626 532 b 653 547 639 547 647 544 b 679 556 663 550 671 554 b 750 564 704 564 726 576 b 765 543 760 560 765 553 b 733 451 760 510 758 478 b 728 442 731 447 731 443 b 676 367 715 413 697 388 b 639 349 665 356 657 346 b 636 344 636 349 633 346 l 640 344 b 640 332 647 338 647 332 b 613 321 633 328 624 322 b 543 303 589 319 568 308 b 450 269 510 293 481 283 b 374 240 425 258 397 251 b 300 201 350 226 324 219 b 296 200 300 201 299 200 b 238 163 276 190 254 179 b 221 156 231 156 226 156 b 229 169 221 165 226 168 b 260 200 239 182 254 189 l 254 200 b 176 149 226 182 199 168 b 106 75 151 125 128 103 b 89 42 100 65 90 53 b 93 -22 82 18 85 -3 b 150 -65 104 -47 122 -65 b 199 -60 164 -65 183 -65 b 217 -50 203 -56 213 -54 b 242 -33 225 -42 232 -37 l 281 -14 b 318 8 296 -8 304 6 b 353 32 333 14 340 25 b 379 53 360 42 367 53 b 385 57 383 53 385 54 b 418 81 393 72 406 75 b 460 111 432 88 447 97 b 518 154 476 126 499 140 b 665 289 569 194 619 242 b 700 308 676 299 686 308 b 714 317 706 310 710 315 l 714 321 b 710 326 710 321 706 322 b 731 328 715 328 724 328 b 736 331 733 328 736 331 b 731 332 733 332 731 332 b 724 338 728 336 724 336 b 731 342 721 344 726 342 b 754 344 738 344 746 344 l 754 342 l 756 342 b 765 336 756 338 760 336 b 775 338 769 336 772 338 b 767 342 774 338 769 342 b 756 342 763 344 758 342 l 756 344 l 754 344 l 754 349 b 731 350 746 350 738 350 b 728 354 728 350 728 354 l 728 356 b 739 361 733 358 736 361 b 774 367 750 367 760 367 l 774 368 b 736 374 763 371 754 371 b 776 422 758 385 758 410 b 779 433 778 424 779 429 b 801 497 783 456 796 475 b 803 525 803 507 806 514 b 799 543 801 531 799 536 b 763 583 793 556 778 576 l 749 593 b 690 604 731 604 710 606 b 688 600 688 604 688 601 l 690 600 b 715 596 699 596 706 596 b 686 589 706 593 697 583 b 543 535 639 571 585 556 b 463 493 514 521 489 504 b 369 442 431 481 401 458 b 207 331 317 406 260 368 b 176 321 197 322 190 321 b 192 342 179 328 192 332 z m 289 554 b 318 589 296 565 306 579 b 344 614 328 596 335 606 b 383 663 356 632 367 651 b 392 676 385 667 389 672 b 406 697 396 681 397 690 b 432 726 415 703 424 718 b 457 754 443 732 450 742 b 514 806 475 774 494 789 b 613 879 550 829 582 857 b 810 992 676 922 739 964 b 824 1003 815 993 818 996 b 839 1011 828 1006 833 1011 b 867 1004 851 1011 857 1011 b 881 971 875 999 882 981 b 857 935 875 957 868 944 l 817 894 l 810 885 b 796 878 806 885 801 883 b 733 824 778 857 756 838 b 726 811 731 819 728 815 b 738 815 731 811 736 811 b 810 878 765 833 788 856 b 813 883 810 878 810 879 b 829 889 817 883 825 885 b 890 950 847 913 874 926 b 897 950 892 953 894 954 b 900 942 900 946 903 942 b 875 913 882 936 886 918 b 863 896 868 907 864 903 l 858 896 b 796 843 836 883 817 860 b 679 751 758 811 719 781 b 543 657 636 718 589 689 b 486 622 525 644 504 632 b 476 622 485 619 481 619 b 499 640 482 629 489 635 b 556 679 518 654 539 667 b 583 707 568 686 579 690 b 574 703 579 707 578 707 b 475 635 539 681 506 658 b 289 521 413 596 350 556 l 258 500 b 251 503 256 500 254 500 b 254 507 251 503 251 504 b 260 519 256 510 258 513 b 289 554 271 531 281 543 z m 457 168 b 379 113 432 149 406 129 b 238 19 333 76 288 51 b 213 8 229 15 219 13 b 154 -4 192 3 172 1 b 142 -4 150 -7 147 -4 b 138 6 138 -7 135 1 b 172 51 147 24 154 38 b 232 107 196 68 215 88 b 294 144 251 122 271 133 b 385 197 324 160 356 179 b 443 222 403 208 421 222 b 450 224 446 222 447 222 b 544 263 476 246 511 249 b 572 276 554 267 564 269 l 579 276 b 578 267 579 274 579 269 l 528 222 b 457 168 504 201 482 183 z m 1001 371 b 992 378 1001 376 994 378 b 956 378 982 378 969 376 b 907 367 939 378 921 378 b 890 371 903 361 892 361 b 885 374 886 374 885 374 b 844 361 875 358 858 367 l 803 361 b 756 350 793 361 765 356 b 796 344 767 349 783 349 b 824 346 803 342 813 344 l 825 349 b 836 354 829 350 835 354 b 863 350 844 350 856 349 b 892 350 874 356 882 349 b 926 346 904 356 914 349 b 943 346 932 344 942 344 b 961 349 950 356 954 350 b 994 354 974 344 988 349 b 1001 371 1004 358 1001 361 z m 61 361 b 150 478 89 403 119 438 b 172 504 157 486 164 496 b 176 521 174 510 176 514 b 150 496 164 514 157 504 b 67 390 122 458 94 425 b 50 358 61 381 50 371 b 61 361 53 358 60 360 z m 300 28 b 215 -25 271 8 242 -4 b 190 -32 207 -28 199 -28 b 188 -26 190 -32 188 -28 l 188 -25 b 190 -22 190 -25 190 -22 b 304 43 226 1 265 19 l 314 43 b 300 28 314 36 306 32 z m 324 43 l 314 43 b 318 53 314 46 317 51 b 363 76 333 61 349 71 b 368 76 367 81 368 76 b 324 43 360 61 340 53 z m 475 271 b 550 293 500 281 525 286 b 554 292 550 293 551 293 b 550 286 551 289 551 286 b 476 265 525 279 500 271 l 471 265 b 475 271 472 267 475 269 z m 144 433 b 163 435 151 428 157 433 b 150 413 163 425 158 418 l 144 407 b 142 413 144 410 144 410 l 129 413 b 144 433 132 424 138 428 z m 551 319 b 574 328 560 321 572 317 b 506 308 550 328 529 317 b 504 306 504 308 504 308 b 551 319 522 306 538 310 z m 719 806 b 661 765 697 794 679 781 l 661 764 b 719 806 686 771 704 786 z m 10 299 b -22 265 -7 292 -14 279 l -22 257 b 10 299 -7 267 3 281 z m 601 301 b 554 293 585 297 572 289 b 556 297 554 293 554 297 b 603 306 572 301 585 308 b 601 301 603 303 601 301 z m 653 756 b 611 726 633 749 626 740 b 653 756 631 729 643 738 z m 310 428 b 271 400 296 424 281 413 b 310 428 294 406 300 410 z m 521 543 b 481 525 503 543 493 535 b 476 521 476 525 476 522 b 518 538 493 525 504 532 z m 299 222 b 265 200 283 219 271 214 b 299 222 278 201 292 207 z m 796 374 b 839 371 810 371 825 371 b 851 374 842 371 847 374 b 839 378 847 376 844 378 b 796 376 825 378 810 376 z m 447 776 b 431 754 446 765 435 760 b 421 756 431 751 425 754 b 447 776 425 768 435 776 z m 421 115 b 454 133 428 129 442 133 b 421 115 447 121 435 115 z m 418 754 b 413 740 418 751 415 747 b 393 732 406 738 401 731 b 418 754 397 747 406 754 z m 14 306 b 36 336 26 310 33 321 b 14 306 22 328 15 321 z m 188 139 b 213 150 196 144 201 151 b 183 129 207 139 197 133 b 188 139 183 132 183 139 z m 611 726 b 583 707 600 726 589 718 b 611 726 597 707 607 715 z m 556 222 b 582 242 561 231 569 242 b 556 222 578 231 569 222 z m 594 576 b 583 571 589 575 583 576 b 624 583 601 572 613 576 b 594 576 613 586 603 582 z m 436 281 b 442 286 442 281 442 283 b 406 271 428 283 415 281 b 436 281 418 271 428 276 z m 368 711 b 349 690 368 699 363 692 b 368 711 353 701 360 708 z m 176 463 b 183 464 179 464 181 464 b 190 468 183 468 188 468 b 190 463 190 464 192 463 b 172 443 183 456 176 451 b 176 463 169 451 174 457 z m 403 271 b 369 257 392 271 379 267 b 403 271 385 257 396 263 z m 653 593 l 636 593 b 626 583 631 593 629 589 b 647 586 633 583 639 583 b 653 593 649 586 651 589 z m 476 156 b 499 172 482 168 486 172 b 476 156 494 163 486 156 z m 415 103 b 407 100 415 103 408 100 l 397 100 b 421 115 403 107 408 113 b 415 103 418 111 418 107 z m 369 81 b 392 93 374 90 379 94 b 369 81 385 82 383 81 z m 50 356 b 36 336 40 354 36 346 b 50 356 44 338 50 346 z m 232 371 b 215 356 225 371 217 368 b 232 371 225 356 229 361 z m 213 356 b 192 344 203 356 196 354 b 213 356 203 342 208 349 z m 349 447 b 328 435 339 447 331 446 b 349 447 335 435 346 442 z m 622 338 b 619 342 622 342 622 342 b 600 336 611 342 603 344 b 622 338 607 336 613 336 z m 463 144 b 475 156 465 151 467 154 b 463 144 475 144 475 144 z m 265 390 b 249 385 256 394 251 394 b 265 390 256 385 260 385 z m 482 299 l 467 299 b 463 293 467 299 465 297 b 482 299 471 293 481 292 z m 463 292 b 443 286 454 293 447 293 l 453 286 b 463 292 457 286 460 289 z m 36 143 b 26 139 33 140 31 140 l 25 139 b 22 140 25 140 22 140 b 33 149 25 143 26 144 l 38 149 b 36 143 38 149 38 144 z m 500 172 b 511 183 500 182 500 183 b 500 172 510 178 506 172 z m 568 561 l 554 561 b 550 556 551 561 550 560 b 568 561 556 556 564 554 z m -29 249 b -36 236 -36 247 -36 242 b -29 249 -26 236 -26 246 z m 582 571 b 569 564 578 571 572 571 b 582 571 574 561 582 561 z m 314 229 b 299 222 306 229 300 229 b 314 229 306 222 310 222 z m 532 849 b 521 839 529 839 525 839 b 532 849 522 849 528 849 z "},"c":{"ha":671,"x_min":0,"x_max":0,"o":"m 769 336 b 768 346 768 338 768 343 b 747 364 764 354 760 364 b 738 369 746 364 744 368 b 688 375 725 386 704 392 b 663 354 681 368 676 360 l 576 318 b 365 226 506 286 438 253 b 143 135 294 193 221 160 b 100 121 129 129 114 124 b 22 124 72 119 46 114 b 11 147 11 129 7 135 b 54 250 17 183 35 218 b 100 311 68 271 85 290 b 140 350 113 325 125 338 b 160 365 147 354 151 360 b 246 392 188 382 217 388 b 296 354 274 392 289 379 b 297 315 300 343 303 329 b 297 297 296 311 297 306 b 307 279 297 290 300 286 b 342 279 318 275 329 272 b 357 315 353 289 358 300 b 333 372 354 338 346 357 b 318 392 328 376 324 382 b 257 438 303 413 279 425 b 215 450 244 444 228 447 b 124 417 179 451 151 440 b 96 394 118 411 108 404 b 21 301 68 369 43 338 b -7 250 11 286 0 268 b -29 199 -15 235 -24 217 b -28 129 -39 174 -35 151 b 78 56 -12 82 43 56 b 164 69 103 57 135 60 b 222 90 183 74 203 85 b 306 121 250 96 276 114 b 417 174 342 143 382 151 b 421 176 417 174 421 174 b 579 246 474 199 528 221 b 650 278 603 256 626 267 l 696 297 l 769 328 z m 681 329 b 663 319 676 325 668 319 b 619 300 647 318 632 307 b 524 261 586 289 553 275 l 438 222 l 376 206 b 392 218 376 215 382 218 b 471 253 417 226 443 243 b 551 290 496 267 524 278 b 610 314 569 297 588 307 b 619 315 613 314 617 315 b 678 343 636 329 658 336 b 704 347 685 346 694 353 b 681 329 700 336 688 336 z m 354 199 b 375 203 358 206 368 203 b 354 199 369 196 364 199 z "},"d":{"ha":785,"x_min":0,"x_max":0,"o":"m 899 360 b 889 368 896 361 893 367 b 860 385 882 376 864 371 b 828 383 850 388 838 390 b 707 306 788 358 746 336 b 531 168 649 258 589 218 b 418 86 497 139 457 111 b 321 42 389 65 354 47 b 292 68 290 29 285 38 b 329 151 301 97 313 126 b 346 179 336 163 342 169 b 369 224 353 194 360 213 b 417 299 388 247 399 274 b 428 326 421 306 422 319 b 439 350 436 332 440 338 b 440 356 439 350 439 356 b 472 388 457 358 463 376 b 557 504 501 428 528 468 b 607 572 576 525 589 550 b 661 650 625 596 644 624 b 700 690 674 663 690 676 b 799 799 725 731 763 764 b 835 835 810 810 822 824 b 843 863 844 843 849 853 b 843 883 840 868 840 878 b 844 901 844 888 844 894 b 804 918 843 918 821 932 b 763 879 792 907 775 894 b 701 808 746 853 724 829 b 636 740 682 786 658 764 b 632 729 633 738 632 732 b 608 681 633 708 622 697 b 531 583 585 650 558 615 b 482 521 515 561 501 538 b 450 493 471 513 461 503 b 369 403 428 457 394 433 l 361 399 b 351 400 354 396 353 399 b 349 413 349 403 346 407 b 353 435 353 418 353 425 b 346 428 351 433 349 429 b 324 428 335 422 335 422 b 290 451 314 438 301 443 b 218 468 267 463 244 464 b 149 442 194 468 169 456 b 63 360 118 418 90 388 b 11 303 44 344 25 322 b -67 163 -21 258 -46 213 b -81 93 -76 140 -85 117 b -21 15 -79 61 -56 25 b 8 15 -11 14 -1 13 b 65 46 29 24 47 29 b 81 54 69 47 72 53 b 121 93 97 64 110 76 b 136 104 125 94 131 100 b 235 204 169 133 204 168 b 285 265 250 226 267 246 b 343 328 303 286 325 303 b 369 349 351 336 360 344 b 360 328 369 342 364 332 b 314 251 343 303 329 276 b 256 133 294 213 274 172 b 250 111 251 126 250 117 b 303 -15 240 64 251 13 b 329 -21 313 -21 319 -21 b 375 -8 343 -14 361 -11 b 408 3 389 -7 399 -4 b 489 51 436 18 461 36 b 528 75 500 57 515 65 b 636 165 565 104 599 133 b 668 192 647 172 656 183 b 704 219 682 200 692 208 b 844 319 751 253 799 289 b 888 338 858 328 871 336 b 899 344 889 338 896 342 b 899 360 901 346 901 358 z m 114 190 b 39 125 88 168 63 144 l -18 88 b -28 86 -21 86 -24 86 b -29 97 -29 88 -32 93 b -1 172 -21 122 -14 150 b 68 267 21 208 40 236 b 92 299 75 276 88 286 b 108 319 96 306 100 315 b 167 368 125 336 144 354 b 264 399 193 388 218 400 l 296 399 b 301 388 301 399 303 394 b 260 338 286 371 274 356 b 228 310 250 328 240 321 b 114 190 194 269 153 229 z m 324 360 l 314 349 b 279 310 303 336 292 322 b 188 224 250 281 222 249 b 169 214 183 219 176 218 b 188 236 175 222 183 229 b 199 249 193 242 197 246 l 290 350 b 310 374 294 358 301 367 b 321 374 314 378 319 376 b 324 360 324 368 325 361 z m 375 442 b 411 482 392 453 399 468 l 411 485 b 417 486 414 485 417 485 b 468 543 436 504 451 522 b 510 582 482 554 496 571 b 528 614 524 589 525 601 b 525 619 528 614 525 615 b 524 615 525 619 524 619 b 515 604 519 614 518 610 b 506 600 514 601 506 601 b 479 572 500 586 490 579 b 461 550 471 565 467 556 b 418 507 446 535 431 522 b 411 485 411 503 408 496 b 399 486 404 485 400 486 l 361 443 b 375 442 365 442 371 438 z m 690 253 b 658 246 678 247 672 242 b 694 274 668 257 683 263 b 729 297 704 283 713 293 b 779 332 744 310 761 322 b 814 344 792 342 803 344 b 782 322 804 336 793 328 b 690 253 751 301 719 276 z m 608 201 b 632 214 615 208 622 214 b 608 201 626 204 619 200 z m 647 229 b 658 242 647 236 651 242 b 647 229 658 229 658 229 z "},"e":{"ha":501,"x_min":0,"x_max":0,"o":"m 589 297 b 576 306 585 299 581 301 b 536 317 565 321 554 322 b 501 299 526 310 513 303 b 461 283 488 293 475 292 b 325 222 418 265 371 242 b 307 214 317 219 310 219 b 271 192 293 208 281 201 b 257 192 264 183 264 183 b 186 156 233 179 213 168 b 115 129 164 149 139 133 b 26 113 88 122 57 113 b -21 117 13 104 -6 113 b -32 143 -31 121 -36 129 b 31 240 -19 179 8 208 b 43 246 36 246 39 246 b 106 242 65 246 88 242 b 146 246 118 242 133 240 b 275 297 192 253 238 267 l 294 310 b 351 368 322 321 333 346 b 354 422 365 383 365 403 b 332 453 350 429 343 443 b 317 458 331 456 322 457 b 304 463 311 463 307 458 b 254 458 288 474 272 471 b 213 446 242 453 225 451 b 163 425 194 443 175 435 b 36 332 115 400 75 368 b -61 208 -6 299 -39 258 l -71 190 b -71 129 -76 165 -76 160 b -42 82 -65 113 -58 94 b -6 61 -32 72 -21 65 b 69 54 18 53 42 43 b 89 64 75 61 81 61 b 225 111 138 71 183 88 b 315 151 254 125 285 139 b 407 194 344 168 379 174 b 418 200 408 197 414 197 b 521 242 451 214 486 226 b 588 265 544 251 564 263 b 596 269 589 265 596 267 b 589 297 604 276 599 292 z m 61 281 l 99 317 b 189 378 126 338 154 361 b 276 406 215 394 246 403 b 293 413 285 406 292 407 b 304 418 294 417 300 422 b 311 403 310 413 315 410 b 307 383 311 396 311 388 b 272 342 300 367 288 350 b 175 292 243 319 213 303 b 128 274 157 283 144 279 b 88 267 117 271 100 269 l 88 269 b 69 267 81 269 75 269 b 53 267 65 267 57 263 b 61 281 51 271 60 279 z "},"f":{"ha":578,"x_min":0,"x_max":0,"o":"m 674 342 b 661 346 669 344 661 344 b 619 358 650 367 636 361 b 485 321 575 346 529 331 b 324 283 433 308 379 293 b 118 233 254 269 186 249 b 115 229 118 231 115 231 l 118 229 b 146 226 128 226 138 226 b 143 222 146 224 143 222 b 92 214 125 219 107 219 b 85 218 89 214 85 218 b 107 258 93 231 97 247 b 142 317 124 274 135 292 l 154 350 b 175 367 160 356 171 360 l 190 388 b 243 464 206 413 222 443 l 254 481 b 300 550 268 503 279 531 l 303 556 b 319 579 307 564 313 572 b 382 654 342 601 363 629 l 449 726 b 500 778 465 742 483 760 b 525 789 507 783 515 789 b 546 794 533 789 539 792 b 553 810 551 799 556 806 b 539 829 547 817 546 828 b 444 826 500 853 478 856 b 421 808 436 819 428 815 b 382 771 408 794 397 783 l 361 742 b 254 614 322 703 285 661 b 246 601 251 611 250 606 b 190 522 225 579 206 553 b 135 446 172 496 153 471 b 40 299 103 396 69 346 b 11 249 31 281 21 267 l -8 219 l -12 218 b -49 213 -28 224 -35 213 b -112 200 -71 218 -90 207 b -131 179 -124 197 -128 189 b -119 140 -131 165 -132 150 b -104 126 -112 139 -110 132 b -90 121 -103 122 -99 121 l -74 121 b -69 113 -71 121 -68 115 b -99 61 -79 94 -87 76 b -176 -100 -124 8 -150 -47 b -185 -122 -181 -106 -181 -112 b -224 -192 -201 -143 -211 -168 b -253 -258 -233 -215 -240 -236 l -303 -389 b -308 -435 -307 -404 -308 -418 b -296 -474 -312 -447 -308 -464 b -286 -486 -290 -476 -289 -482 b -235 -522 -278 -511 -257 -517 b -176 -522 -215 -529 -196 -529 b -131 -506 -160 -517 -143 -517 b -71 -446 -110 -486 -87 -465 b -8 -385 -51 -425 -35 -397 b -1 -372 -6 -382 -4 -378 b 53 -294 11 -340 35 -318 b 69 -276 64 -292 67 -282 b 96 -244 78 -261 89 -256 b 142 -179 114 -222 124 -199 b 190 -108 157 -157 171 -131 b 200 -94 194 -106 199 -100 b 232 -32 206 -72 221 -51 b 246 -4 236 -25 243 -14 b 240 75 261 28 260 51 b 200 121 225 90 211 104 b 181 139 193 126 186 129 b 154 156 172 143 165 150 b 157 168 153 160 154 165 b 171 172 160 169 165 169 b 185 174 175 174 181 174 b 194 182 190 174 193 182 b 250 192 215 178 232 183 b 303 208 268 200 283 207 b 369 218 324 213 347 226 l 375 219 b 382 226 376 224 379 226 b 419 231 397 229 406 236 b 436 242 424 229 426 242 b 494 253 456 240 476 247 b 519 263 503 258 510 263 b 661 303 571 271 614 289 b 679 317 669 306 674 310 b 674 342 688 322 683 336 z m 171 68 b 171 25 175 53 176 42 b 160 3 165 18 165 13 b 125 -61 147 -15 142 -42 b 89 -115 114 -79 103 -100 b 78 -131 83 -118 83 -125 b 64 -153 74 -139 68 -147 b 53 -162 57 -157 56 -161 b 39 -190 49 -174 44 -182 b 18 -215 31 -201 24 -208 b -58 -311 -6 -249 -31 -282 b -171 -426 -93 -353 -131 -392 b -235 -461 -187 -443 -210 -456 b -240 -461 -237 -464 -239 -461 b -240 -456 -240 -461 -246 -456 b -228 -403 -237 -436 -233 -418 b -181 -276 -217 -357 -200 -317 b -172 -258 -178 -269 -176 -261 b -172 -242 -165 -250 -165 -249 b -156 -212 -172 -231 -167 -218 b -153 -206 -153 -210 -153 -208 b -157 -203 -156 -206 -156 -203 b -153 -201 -156 -201 -156 -201 b -132 -176 -146 -192 -137 -186 b -81 -76 -114 -143 -101 -108 l -46 -11 b -39 14 -39 -4 -35 3 b -29 25 -33 18 -31 24 b 28 125 -12 64 11 90 b 44 139 31 129 39 133 b 68 144 50 140 63 140 b 124 132 92 154 107 150 b 171 68 142 113 157 93 z m 0 -276 l -1 -272 b -4 -269 -1 -272 -1 -269 b 40 -219 14 -256 26 -236 b 44 -208 49 -215 40 -212 b 64 -181 50 -199 56 -187 b 78 -161 68 -174 74 -164 b 92 -140 85 -157 89 -151 b 114 -125 93 -131 103 -129 b 108 -112 118 -125 118 -122 b 125 -100 114 -101 114 -101 b 142 -79 125 -89 131 -82 b 143 -83 142 -82 142 -82 b 146 -82 143 -83 143 -82 b 142 -79 143 -82 143 -79 b 146 -64 142 -74 142 -65 b 160 -44 146 -54 150 -47 l 160 -51 l 164 -54 b 169 -51 165 -54 169 -54 l 169 -44 b 164 -42 165 -44 164 -42 b 165 -37 164 -42 164 -37 b 169 -44 165 -37 169 -42 b 182 -36 172 -42 176 -42 b 210 -8 190 -25 199 -14 l 210 -14 b 142 -135 193 -56 169 -100 b 67 -240 115 -171 89 -203 b 57 -249 64 -242 63 -244 b -12 -321 33 -272 11 -300 b -87 -394 -42 -346 -62 -372 b -97 -396 -90 -396 -93 -396 l -99 -396 l -99 -394 b -81 -375 -93 -386 -87 -382 b -68 -353 -75 -368 -69 -362 b -62 -346 -68 -350 -68 -346 b -39 -315 -49 -339 -46 -325 b -12 -281 -31 -301 -22 -289 b -4 -269 -11 -276 -6 -272 b -1 -272 -4 -272 -1 -272 b 0 -276 -1 -276 0 -276 z m 574 289 b 472 258 539 274 506 267 b 333 226 426 249 381 236 b 228 213 300 219 265 214 b 172 201 210 213 190 204 b 171 207 172 201 171 204 l 171 208 b 233 226 193 218 210 229 b 254 231 243 226 246 229 b 329 253 279 240 303 249 b 438 276 365 258 404 271 b 483 283 454 281 467 281 b 563 301 510 289 536 292 b 643 319 590 308 614 317 b 603 299 631 306 619 301 b 574 289 592 297 581 293 z m -260 -385 b -256 -364 -257 -378 -257 -368 b -253 -340 -253 -357 -253 -350 b -264 -362 -260 -344 -260 -356 b -274 -368 -267 -364 -267 -368 b -274 -357 -274 -364 -275 -358 b -253 -315 -264 -344 -262 -328 l -253 -340 b -229 -299 -239 -329 -237 -311 b -225 -281 -228 -292 -225 -287 b -224 -269 -224 -278 -224 -276 b -187 -206 -207 -253 -200 -228 l -187 -192 b -192 -197 -189 -192 -192 -192 b -217 -244 -201 -212 -207 -228 b -225 -269 -224 -253 -224 -261 b -233 -281 -228 -272 -229 -276 b -237 -285 -233 -282 -235 -282 b -235 -265 -237 -278 -237 -269 b -172 -133 -217 -218 -199 -176 b -167 -129 -171 -131 -167 -131 b -172 -153 -165 -139 -167 -147 b -181 -179 -178 -161 -182 -168 b -165 -161 -172 -176 -171 -168 b -153 -143 -160 -157 -162 -147 b -156 -171 -156 -153 -158 -161 b -167 -192 -156 -181 -165 -186 b -178 -210 -171 -201 -176 -206 b -187 -228 -172 -219 -185 -219 b -210 -278 -192 -244 -206 -260 l -253 -375 b -260 -385 -253 -379 -256 -382 z m 379 281 b 483 308 414 289 449 299 b 515 310 494 315 506 310 b 485 299 507 301 496 301 b 449 289 474 299 460 292 b 433 283 444 289 438 283 b 376 276 414 283 397 274 b 379 281 376 279 379 281 z m -162 -106 b -114 -22 -143 -79 -131 -50 b -110 -15 -114 -21 -112 -21 b -112 -33 -110 -22 -110 -28 b -160 -125 -128 -65 -146 -96 b -165 -129 -162 -125 -165 -129 b -162 -106 -167 -122 -167 -111 z m -112 -79 b -124 -85 -114 -82 -121 -83 b -124 -76 -124 -82 -126 -79 b -99 -25 -114 -60 -108 -42 b -87 -14 -97 -21 -90 -15 b -85 -28 -85 -21 -81 -25 b -112 -79 -97 -47 -103 -61 z m -58 24 b -75 -8 -68 14 -74 3 b -87 -14 -79 -14 -83 -14 b -56 42 -83 8 -71 25 b -53 43 -56 43 -53 43 b -58 24 -51 36 -56 28 z m 211 246 b 218 247 215 246 215 247 l 261 253 l 269 253 l 265 249 l 260 249 b 215 240 246 240 229 246 b 211 242 215 240 211 240 z m -97 15 b -74 47 -90 28 -85 38 b -97 15 -74 32 -81 19 z m -153 -143 b -137 -115 -153 -131 -149 -122 b -153 -143 -136 -129 -137 -139 z m -237 -285 b -253 -311 -239 -300 -240 -306 b -237 -285 -253 -300 -250 -289 z m 351 276 l 375 276 b 363 271 375 271 369 271 l 347 271 b 351 276 349 272 349 276 z m 582 326 l 603 326 b 581 321 597 317 586 321 l 576 322 b 582 326 581 322 581 326 z m 289 263 l 308 263 b 289 257 303 253 297 257 b 285 258 285 257 285 258 z m 322 269 l 343 269 b 339 265 343 267 342 265 l 311 265 b 322 269 313 267 318 269 z m 169 229 b 147 226 160 229 154 226 b 169 233 153 236 160 233 b 171 231 171 233 171 231 z m -131 -101 b -124 -85 -131 -94 -132 -89 b -131 -101 -124 -90 -121 -100 z m 193 242 l 199 242 b 203 236 199 240 200 240 b 194 233 200 236 199 236 l 193 233 b 185 236 190 236 186 236 b 193 242 186 240 190 240 z m -31 86 b -39 71 -31 76 -31 72 b -31 86 -39 76 -39 82 z m -46 64 b -53 43 -46 54 -44 47 b -46 64 -51 51 -53 57 z m -53 86 b -58 71 -53 76 -53 72 b -53 86 -61 76 -61 82 z m 563 319 b 564 317 563 319 563 317 b 563 315 563 317 563 315 l 546 315 b 563 319 547 321 556 321 z "},"g":{"ha":639,"x_min":0,"x_max":0,"o":"m 251 29 b 249 32 250 32 250 32 l 249 36 b 254 47 249 42 249 46 b 271 71 267 53 271 61 b 283 88 278 72 279 81 b 308 125 290 100 300 113 l 307 129 b 308 132 307 132 308 132 b 324 143 314 133 319 139 l 324 140 l 328 140 b 329 139 328 139 328 133 b 328 140 329 140 328 140 l 328 143 l 324 143 b 329 163 324 149 319 154 b 361 178 340 168 349 174 l 361 169 b 379 165 369 168 371 160 b 408 179 388 169 399 174 l 406 183 b 404 189 406 189 404 189 b 394 183 399 189 397 189 b 361 178 385 182 375 174 b 368 183 361 179 365 182 b 410 207 381 192 397 201 b 446 219 425 213 433 219 b 431 204 446 208 438 207 l 417 197 b 414 194 414 197 414 194 l 417 192 b 443 194 425 194 433 192 b 460 219 450 197 460 204 l 446 219 b 460 226 449 226 454 226 l 460 219 b 482 222 468 222 474 219 b 494 224 483 224 488 226 b 506 226 499 222 501 222 b 511 240 507 229 511 233 b 476 233 499 233 488 231 b 511 249 483 246 496 249 l 511 251 b 568 269 528 263 547 269 b 561 263 564 267 563 265 l 556 257 b 585 258 564 257 575 257 b 586 269 586 258 586 265 l 568 269 b 574 276 571 271 571 274 b 610 283 585 281 597 283 b 601 276 604 281 603 276 b 590 269 596 274 590 274 b 619 267 597 265 607 258 b 631 269 622 269 626 269 b 711 276 658 279 683 289 l 717 276 b 728 292 722 276 728 283 b 710 310 728 303 714 306 b 654 328 694 328 678 342 b 578 308 626 326 603 317 b 488 276 547 301 518 292 b 483 269 485 274 485 271 b 511 276 494 267 504 271 b 546 283 522 281 533 283 b 543 279 546 281 546 279 b 464 242 517 267 489 251 b 401 214 443 233 421 224 b 349 189 385 204 368 197 b 346 189 349 183 346 183 b 346 194 340 190 346 192 b 361 213 349 201 358 201 b 361 219 357 214 357 218 l 361 213 b 379 214 368 214 375 213 b 438 246 399 224 419 233 l 438 247 b 404 236 426 249 417 242 b 361 219 388 231 379 219 b 375 251 361 231 369 242 b 381 265 379 253 381 258 b 408 322 386 286 397 306 b 433 368 419 338 426 354 b 485 497 454 407 468 456 b 483 507 485 500 483 504 b 443 513 472 526 456 531 b 431 503 438 510 433 504 b 381 458 414 490 397 475 b 368 457 375 453 371 453 b 300 485 347 478 322 481 b 283 482 296 486 290 485 b 210 451 260 475 233 458 b 89 378 169 429 128 406 b -24 276 46 350 10 315 b -56 229 -35 265 -49 247 b -56 163 -68 207 -62 183 b -3 126 -46 140 -31 125 b 32 132 10 126 18 126 b 67 150 40 140 54 143 b 146 201 94 165 124 179 b 215 265 165 224 193 242 l 272 315 b 322 354 290 326 304 342 b 392 418 347 374 371 394 b 399 425 394 422 397 424 b 406 429 401 428 404 428 l 408 429 b 410 424 408 428 410 425 b 375 350 399 400 386 376 b 347 283 365 328 351 308 l 353 283 l 353 276 b 351 271 351 276 351 274 b 349 276 349 274 349 276 b 347 283 347 279 347 281 b 324 242 331 274 328 258 b 318 231 322 240 318 236 b 300 204 308 224 304 214 b 268 165 292 190 282 174 b 263 154 267 163 267 156 b 267 143 268 151 271 149 b 257 133 263 140 263 139 b 213 113 243 125 231 115 l 203 100 b 115 42 171 86 143 64 b 83 19 106 32 94 28 b 92 36 83 25 86 32 b 131 65 103 46 115 54 b 147 82 136 71 146 72 b 136 81 143 82 138 82 b 4 -21 92 47 44 18 b -39 -60 -11 -33 -24 -47 b -104 -143 -62 -83 -82 -115 b -128 -210 -121 -162 -126 -186 b -103 -301 -132 -242 -122 -276 b -35 -318 -82 -329 -62 -335 b -25 -311 -31 -317 -29 -315 b 6 -287 -12 -307 -6 -294 b 50 -242 22 -272 36 -258 b 64 -215 57 -236 64 -226 b 83 -201 74 -215 78 -210 b 114 -164 94 -187 103 -179 b 153 -112 128 -151 143 -133 b 186 -56 164 -94 175 -76 b 199 -50 189 -51 199 -60 b 208 -33 199 -42 203 -36 b 221 -22 204 -25 213 -22 l 222 -15 b 225 1 218 -8 221 -3 b 240 28 240 6 240 18 b 249 32 243 29 244 32 b 251 29 249 29 249 28 z m 204 -4 b 165 -65 193 -26 181 -47 b 154 -72 164 -67 157 -67 l 154 -60 b 164 -44 160 -56 164 -51 b 171 -36 169 -44 169 -42 b 175 -22 175 -33 175 -28 b 169 -36 169 -25 171 -32 b 160 -44 165 -36 164 -37 b 154 -60 154 -47 153 -51 b 142 -79 143 -61 142 -67 l 154 -72 l 151 -89 b 94 -174 136 -122 114 -147 b 63 -215 83 -187 72 -201 b 24 -256 46 -226 35 -240 b -1 -272 17 -261 13 -272 b 4 -258 -3 -265 -1 -260 b 40 -215 18 -244 28 -231 b 49 -201 46 -212 46 -206 b 57 -197 50 -199 56 -199 b 83 -158 68 -182 83 -176 b 46 -201 67 -168 56 -182 b 22 -228 39 -210 28 -218 b -31 -269 6 -242 -11 -258 b -61 -281 -40 -276 -49 -278 b -85 -276 -71 -285 -79 -281 b -92 -256 -92 -269 -92 -265 b -90 -250 -92 -256 -92 -253 b -46 -162 -79 -219 -71 -187 l -35 -149 b -6 -112 -29 -133 -19 -124 b 18 -89 0 -106 10 -96 b 72 -36 36 -72 50 -54 b 160 29 101 -14 131 8 b 182 46 169 36 175 42 b 225 81 199 53 213 65 l 231 81 b 232 75 232 81 232 75 b 225 54 231 68 228 64 b 210 36 215 53 213 46 b 204 19 204 32 204 25 b 213 36 213 24 213 28 b 225 42 218 36 221 38 l 225 28 b 204 -4 218 18 213 6 z m 319 403 b 203 306 282 371 243 338 l 114 240 l 97 231 b 46 201 79 222 64 208 b 6 192 35 197 22 189 b 24 226 10 204 15 218 b 128 322 56 263 89 297 b 131 326 128 326 128 326 b 181 368 143 346 160 358 b 239 406 200 378 218 396 b 292 435 257 413 272 429 b 304 446 297 438 300 442 l 314 453 b 331 453 319 457 329 456 b 331 438 331 447 333 443 b 319 418 329 433 324 425 l 331 418 b 319 403 331 410 324 406 z m 228 126 b 240 140 232 129 239 132 l 239 140 b 171 104 213 132 193 117 l 171 97 b 189 104 175 97 181 103 b 210 113 194 111 203 115 b 228 126 213 121 221 125 z m 35 -15 b 40 -15 36 -14 39 -14 b -7 -64 28 -36 13 -51 b -6 -54 -7 -60 -7 -54 b 35 -15 6 -37 22 -26 z m 113 -122 b 83 -158 97 -131 89 -140 b 114 -124 97 -151 107 -139 b 125 -101 121 -118 125 -111 b 113 -122 115 -106 113 -111 z m 531 249 b 511 247 525 247 518 249 l 511 242 b 524 236 517 240 518 236 b 543 240 531 233 535 236 b 553 253 547 246 553 247 b 531 249 546 253 538 253 z m 49 -3 b 83 19 57 8 67 19 b 49 -7 75 6 67 -7 z m 610 283 b 613 286 610 283 610 286 b 658 297 625 293 640 297 b 610 283 642 286 626 281 z m -29 -292 b -3 -272 -24 -281 -15 -272 b -29 -292 -7 -282 -12 -294 z m 175 -22 b 192 -3 186 -21 192 -11 b 175 -22 181 -4 175 -11 z m 467 263 b 449 257 460 263 454 258 b 443 249 444 257 438 253 b 467 263 450 249 460 251 z m 228 43 l 228 54 b 240 64 231 57 233 61 b 228 43 240 53 239 46 z m 192 -3 b 204 19 200 3 204 13 b 192 -3 194 15 192 8 z m 260 90 b 249 76 257 86 254 76 b 254 94 249 86 250 90 l 257 97 b 260 90 260 94 260 93 z m 574 292 l 561 292 b 581 297 564 299 574 297 b 574 292 581 293 578 292 z m 476 233 b 460 226 474 224 467 226 b 474 233 463 232 467 233 z m 233 103 b 250 111 240 104 244 107 b 251 111 250 113 250 111 b 240 97 249 104 244 103 l 239 100 b 233 103 233 100 233 103 z m 240 64 b 249 76 240 71 239 75 b 240 64 249 71 249 65 z m 133 -94 b 142 -79 142 -90 142 -85 b 133 -94 133 -82 133 -89 z m 546 283 b 561 292 547 292 556 289 b 546 283 557 281 553 283 z m 597 299 l 582 299 b 596 303 585 303 590 306 b 601 301 597 303 601 301 b 597 299 601 301 601 299 z m 650 319 b 656 317 651 319 653 317 b 653 315 654 315 654 315 l 632 315 b 650 319 636 319 644 319 z m 254 149 b 240 143 249 149 243 150 b 254 149 249 140 251 140 z "},"h":{"ha":743,"x_min":0,"x_max":0,"o":"m -79 169 b -85 154 -85 168 -85 163 l -79 154 b -85 140 -79 150 -79 143 l -85 154 b -97 126 -97 150 -101 140 l -101 126 l -101 125 l -97 125 l -97 126 l -93 126 b -85 140 -93 132 -90 139 b -93 125 -85 133 -85 129 b -101 113 -93 121 -93 115 l -101 125 b -101 113 -108 121 -108 117 b -111 103 -101 107 -97 97 b -112 90 -111 100 -112 94 b -107 76 -108 88 -108 82 l -108 76 l -108 75 l -107 75 l -107 76 l -101 76 l -101 75 l -97 75 b -101 61 -101 71 -101 65 b -103 58 -101 61 -103 61 b -107 61 -104 61 -107 61 b -108 75 -107 65 -107 71 l -112 75 b -114 71 -112 75 -112 72 b -118 65 -114 68 -114 65 b -119 71 -118 65 -119 68 l -119 75 b -129 54 -131 71 -126 64 b -124 51 -126 53 -124 53 l -124 46 b -129 47 -126 46 -126 47 l -129 54 b -133 51 -131 53 -133 53 b -160 -25 -140 25 -147 1 b -160 -61 -168 -36 -168 -51 b -126 -90 -151 -74 -142 -89 b -112 -89 -119 -90 -114 -90 b -79 -64 -101 -82 -90 -72 b -50 -36 -75 -47 -56 -47 b 57 64 -14 -3 24 28 b 118 121 75 86 96 103 b 238 214 160 151 196 182 b 247 226 242 218 244 222 l 235 226 b 250 233 238 233 244 233 b 257 240 251 236 254 236 l 257 233 b 319 267 279 240 299 251 b 326 276 321 269 324 271 l 314 276 b 313 281 314 278 314 279 b 276 263 297 283 285 276 b 281 257 279 258 281 258 b 276 253 281 257 279 257 l 276 263 b 263 253 272 263 268 258 b 254 247 260 253 257 251 b 240 242 250 247 244 246 b 193 207 224 231 206 219 b 185 197 190 207 189 201 b 186 196 185 197 185 196 l 185 197 b 150 178 171 197 163 183 b 104 143 136 165 121 154 b 3 54 69 115 39 86 b -14 47 -1 53 -6 46 b 24 90 -4 65 8 76 b 133 183 58 122 96 151 b 194 231 153 200 175 218 b 257 271 215 247 235 263 b 361 331 292 292 321 317 b 411 354 378 336 394 349 b 418 350 414 354 417 354 l 417 346 b 389 331 406 342 396 336 b 378 319 381 328 378 326 l 392 319 l 392 310 b 396 301 396 308 399 306 b 376 274 392 292 378 283 b 356 231 372 257 367 246 b 269 107 329 190 299 150 b 260 90 268 100 263 94 b 294 19 247 57 269 25 b 428 46 342 14 388 24 b 464 65 440 53 450 61 b 531 107 485 76 506 97 b 600 163 553 129 576 144 b 660 201 621 178 636 192 b 674 214 663 204 669 208 b 749 267 697 233 722 249 l 788 281 b 810 276 797 283 803 279 l 819 276 b 828 292 826 276 831 286 b 797 328 821 308 808 319 b 786 331 794 331 788 331 b 747 322 771 332 758 332 b 711 303 736 317 722 310 b 600 229 672 281 633 258 b 528 178 575 213 553 194 b 474 139 508 163 493 150 b 358 82 439 115 399 94 b 331 76 351 81 342 76 b 321 81 329 75 324 76 b 324 88 321 81 324 86 b 365 150 339 107 351 126 b 392 194 372 165 382 179 b 406 200 396 200 399 201 b 421 197 411 197 417 197 b 433 204 426 197 429 200 b 478 263 444 226 464 242 b 497 338 496 283 501 310 b 489 358 497 349 483 346 l 489 360 b 456 376 474 360 464 361 b 444 376 453 378 449 376 b 378 360 421 378 400 371 b 338 338 365 354 351 346 b 297 315 321 331 308 326 b 264 293 288 303 276 299 b 224 269 250 289 235 283 b 215 263 222 267 219 265 b 172 240 196 258 185 249 l 50 140 b 35 122 43 133 40 129 b 14 104 25 117 17 115 l -51 46 b -93 13 -62 32 -79 24 l -94 8 b -97 15 -97 13 -97 14 b -79 65 -93 29 -83 47 b -74 90 -75 72 -74 82 b -62 117 -71 100 -56 104 b -33 165 -50 129 -44 150 b -24 182 -29 169 -26 178 b -29 190 -24 183 -26 189 b -33 183 -32 190 -32 189 b -36 190 -33 189 -36 190 l -40 190 l -40 192 l -43 192 l -43 204 b -43 192 -51 197 -51 197 l -43 190 l -40 190 l -40 182 b -39 172 -40 178 -39 172 b -50 169 -40 172 -44 169 b -71 133 -51 154 -62 144 l -71 154 l -79 154 z m 756 994 b 682 1040 733 1018 717 1040 b 606 1019 653 1042 624 1042 b 583 1000 596 1013 590 1008 b 567 986 578 994 572 990 b 540 967 557 983 549 974 b 478 911 521 946 501 931 b 414 838 428 858 410 856 l 418 838 l 414 829 b 406 829 411 824 408 828 b 371 788 388 824 376 808 l 376 788 l 376 776 l 371 776 b 369 788 371 778 371 783 b 342 758 356 783 349 771 l 342 754 l 349 754 b 342 747 347 749 347 747 l 342 754 b 321 731 326 754 321 742 l 331 738 b 342 742 332 738 339 740 l 342 731 b 361 747 349 736 356 740 b 371 754 365 751 367 754 b 369 747 371 751 369 749 l 365 747 b 349 711 358 732 358 721 b 339 697 347 707 343 701 b 321 697 332 689 326 690 b 329 708 324 701 326 703 b 332 725 331 713 332 718 b 319 715 329 721 324 718 l 319 731 b 292 697 307 725 294 713 l 299 697 b 297 690 299 692 297 692 b 292 697 294 692 294 692 b 268 668 281 689 274 679 b 264 661 264 667 264 663 b 276 667 269 663 272 663 l 276 654 b 292 658 281 657 288 657 l 292 647 l 299 647 b 301 640 301 644 301 644 b 303 647 303 644 303 644 l 299 647 b 301 650 299 647 299 650 b 304 647 301 650 301 647 l 307 647 b 319 668 314 651 319 657 b 321 667 319 667 321 667 l 319 668 b 361 690 332 676 347 689 b 381 721 372 697 378 711 b 389 747 381 731 382 738 b 399 760 394 751 396 756 b 376 758 388 764 388 764 l 378 760 l 376 760 b 378 774 376 764 376 768 b 392 781 381 776 388 778 l 399 774 l 399 760 b 399 774 406 765 406 768 l 399 781 l 392 781 b 399 788 392 786 394 788 l 399 781 b 408 778 400 781 406 781 b 418 778 411 778 414 776 b 421 783 418 781 418 779 b 583 946 489 844 450 826 b 636 986 600 961 617 974 b 644 996 642 990 642 992 b 669 1019 650 1010 663 1013 b 682 1018 669 1022 681 1019 b 690 979 692 1004 697 994 b 524 760 646 889 588 825 b 446 689 497 736 474 713 b 367 622 421 667 394 640 b 303 571 343 604 326 586 b 279 553 297 564 288 556 b 238 522 264 543 250 532 b 211 497 228 514 218 507 b 176 490 200 486 189 497 b 175 496 176 493 176 493 b 171 490 175 493 172 493 l 176 490 b 165 468 176 481 171 474 b 161 463 163 464 161 463 b 136 453 147 471 147 447 l 136 468 b 114 442 122 463 114 456 b 97 425 104 438 103 429 b 88 422 96 424 92 424 b 86 429 88 425 86 428 b 46 394 74 418 65 400 b 46 388 46 394 43 388 b 53 367 50 381 43 371 b 58 354 57 367 57 358 b 64 349 60 354 64 354 b 99 361 78 350 92 354 b 140 381 114 371 125 376 l 154 388 b 276 468 196 413 240 438 b 349 522 301 485 326 504 b 433 589 378 544 406 565 b 506 658 457 611 483 632 l 542 699 b 581 738 549 713 567 725 b 636 794 600 756 621 774 b 660 817 643 804 654 808 b 756 974 669 831 674 797 b 757 985 756 979 757 983 b 756 994 757 990 757 992 z m 263 654 l 263 651 l 264 651 b 257 639 263 647 263 640 b 244 615 254 629 251 622 b 235 604 240 614 235 610 b 250 601 240 604 244 604 b 244 593 247 600 244 594 b 247 583 242 586 242 583 b 268 589 254 586 260 586 b 272 601 276 593 272 596 b 285 604 274 604 279 604 l 288 604 b 285 610 285 606 285 610 b 272 611 279 610 274 610 b 281 619 272 615 276 615 b 290 624 288 619 290 622 b 279 632 290 629 285 632 l 272 632 b 274 644 272 635 272 639 b 276 654 274 647 276 650 b 264 651 272 651 268 651 l 264 654 l 263 658 b 257 654 260 658 257 657 z m 196 532 l 193 532 l 193 547 b 176 538 189 544 183 543 l 176 553 b 165 532 167 550 165 543 l 171 532 b 160 510 172 521 167 514 b 150 504 160 504 154 503 b 160 510 150 507 153 510 b 154 525 154 514 154 521 b 143 504 147 521 140 514 l 140 503 l 143 503 l 143 504 b 150 503 144 504 147 503 b 136 482 150 493 144 486 l 136 496 b 121 475 126 490 121 485 b 136 482 125 478 131 481 l 136 468 b 150 481 140 474 144 475 b 165 490 154 485 160 490 b 176 510 163 500 167 507 l 176 513 b 193 532 176 522 183 526 b 194 526 194 531 194 531 b 196 532 196 531 196 531 z m -29 226 l -21 226 b -36 204 -21 218 -24 207 l -36 192 l -29 192 b -10 213 -24 200 -15 207 b 14 247 3 222 13 231 l 14 249 l 8 249 l 13 251 b 14 249 14 251 14 249 b 28 269 18 253 24 263 b 22 271 25 271 22 271 b 8 267 17 271 14 269 b -6 247 0 263 3 249 b -11 231 -4 242 -1 233 l -14 229 l -14 226 l -21 226 l -21 240 b -29 226 -29 236 -26 231 z m 206 532 l 200 513 b 215 519 204 513 211 514 b 233 535 222 522 228 531 b 240 550 238 538 244 544 b 224 544 233 556 229 547 b 215 538 222 543 218 538 b 206 532 213 535 211 532 z m 376 319 b 349 303 367 319 356 315 l 369 303 b 367 299 369 301 368 300 b 358 293 365 297 361 297 b 369 292 361 293 367 292 b 392 310 378 297 388 301 l 376 310 z m 414 804 b 428 826 414 814 419 822 b 447 846 432 836 438 842 l 446 844 l 449 844 b 442 838 449 839 446 838 l 440 836 b 438 832 440 835 439 833 l 433 826 b 414 804 432 814 422 810 z m 479 875 l 476 871 l 460 856 b 457 854 458 856 457 854 l 458 854 b 454 847 457 850 454 847 b 456 853 454 849 454 851 l 456 865 b 464 874 460 867 464 868 b 483 888 469 878 475 883 b 479 875 483 883 483 878 z m 219 582 b 201 565 215 576 206 572 l 193 560 l 193 547 b 219 582 213 560 218 564 z m 329 276 b 342 281 331 279 339 276 l 329 281 l 329 283 l 326 283 b 342 292 329 292 338 289 b 347 303 343 293 347 299 b 314 283 331 299 321 293 l 326 283 l 326 281 l 329 281 z m 254 639 l 254 651 b 235 628 247 644 238 639 b 254 639 242 629 250 633 z m 235 601 b 219 582 228 600 219 594 b 235 601 233 583 235 593 z m -58 213 b -71 183 -65 204 -68 194 b -58 213 -58 190 -56 200 z m 314 674 l 307 674 b 319 697 307 686 313 690 b 314 674 321 686 314 681 z m 36 354 b 22 332 25 349 22 344 b 36 354 31 336 35 344 z m -21 269 b -36 249 -32 265 -33 257 b -21 269 -26 251 -21 258 z m -43 231 b -56 213 -54 229 -56 222 b -43 231 -44 218 -43 222 z m -51 174 b -54 182 -51 178 -54 179 b -58 178 -56 179 -58 179 b -62 163 -62 172 -62 168 b -51 169 -58 165 -56 168 z m 179 561 b 176 554 179 560 179 556 b 193 560 183 556 189 560 b 179 561 189 565 183 571 z m -101 76 b -93 90 -101 82 -101 88 b -97 75 -93 86 -93 76 l -97 76 z m 58 332 l 64 332 l 64 346 l 58 346 z m 47 299 b 53 301 50 299 53 301 b 57 310 57 303 57 308 b 47 306 53 308 50 308 b 47 299 46 303 46 299 z m 247 571 b 244 572 247 572 247 572 b 238 564 242 571 240 565 b 240 561 238 561 240 561 b 247 571 244 561 250 564 z m 636 867 b 642 882 636 872 636 878 b 636 867 644 876 644 869 z m -93 90 l -93 93 b -85 104 -93 99 -90 103 b -93 90 -85 100 -85 93 z m 189 194 b 186 196 185 192 188 194 b 189 194 188 196 189 194 z m 314 281 l 314 283 l 313 283 l 313 281 z "},"i":{"ha":494,"x_min":0,"x_max":0,"o":"m 547 306 b 549 335 542 319 556 332 b 500 315 540 336 507 319 b 456 289 485 306 472 297 b 400 253 439 279 415 269 b 376 240 394 247 383 242 b 297 194 347 226 324 208 b 199 139 261 174 233 154 b 149 113 182 126 163 122 b 97 93 131 104 114 97 b 44 75 79 86 61 81 b -7 81 26 71 6 71 b -4 132 -11 100 -10 115 b 13 168 4 144 10 156 b 68 267 24 201 46 236 b 107 326 79 286 93 303 b 149 350 114 342 129 354 l 153 350 b 158 368 158 350 163 361 b 124 396 147 378 136 388 b 79 388 108 403 92 400 b 40 346 68 374 51 360 b -44 204 4 303 -24 257 b -60 140 -50 183 -56 163 b -47 68 -62 115 -57 90 b -18 19 -40 47 -28 36 b -7 15 -17 18 -10 15 b 103 18 29 6 68 6 b 156 38 121 25 138 32 b 261 93 194 53 228 75 b 318 126 279 104 297 117 b 375 163 336 139 353 156 b 429 201 388 178 411 189 l 429 207 l 415 207 b 436 222 421 218 426 222 b 451 229 439 226 446 226 b 474 246 456 240 463 242 b 485 249 478 249 481 249 b 501 257 489 257 497 257 l 501 249 b 547 306 508 251 528 275 z m 178 525 b 199 521 186 522 194 522 l 211 521 b 244 536 226 522 235 531 b 246 560 250 544 246 553 b 226 589 244 572 233 579 b 218 593 224 589 221 593 b 172 579 200 594 186 589 b 178 525 150 564 156 532 z m 490 267 b 376 201 451 247 414 222 b 339 189 364 194 353 189 b 353 200 339 192 347 197 b 440 251 382 218 411 233 b 500 276 460 263 479 271 b 490 267 497 274 493 267 z "},"j":{"ha":461,"x_min":0,"x_max":0,"o":"m 28 163 b 21 154 24 160 21 160 l 28 154 b 21 154 26 150 24 150 b 8 149 14 151 8 156 b 4 140 13 144 13 143 l 4 149 b -8 140 1 149 -3 144 l 4 140 b -8 132 3 132 -1 132 b -10 129 -10 132 -10 129 b -14 132 -12 129 -12 131 l -10 132 l -10 139 l -15 132 b -35 121 -25 132 -31 129 b -31 117 -35 117 -31 117 b -37 113 -31 115 -35 113 l -37 117 b -49 113 -42 117 -49 121 l -37 113 b -49 104 -39 106 -43 104 l -51 104 l -51 113 b -56 104 -54 111 -56 111 l -51 104 b -56 97 -54 103 -54 100 b -60 104 -56 100 -56 103 b -78 90 -69 104 -76 100 b -74 86 -76 88 -76 88 b -78 82 -76 86 -76 86 l -78 90 b -106 68 -93 88 -100 81 l -104 65 b -110 61 -104 64 -106 64 b -115 54 -111 57 -114 54 l -117 54 b -114 61 -117 57 -117 57 b -140 42 -128 61 -136 53 l -128 42 l -128 32 l -144 32 l -144 42 b -149 32 -146 42 -149 38 l -144 32 b -150 25 -144 28 -146 25 l -150 32 l -156 25 l -150 25 b -156 21 -153 24 -156 24 b -157 25 -157 24 -157 24 b -174 18 -164 24 -168 24 b -271 -83 -207 -11 -242 -47 b -312 -143 -286 -101 -299 -124 b -328 -208 -325 -162 -329 -182 b -312 -269 -325 -228 -321 -250 b -286 -306 -306 -285 -299 -294 b -243 -317 -272 -311 -257 -318 b -206 -307 -231 -317 -215 -311 b -139 -261 -179 -292 -157 -278 b -96 -228 -124 -253 -106 -242 b -39 -171 -81 -206 -60 -190 b -26 -158 -37 -168 -31 -162 b 31 -76 -8 -131 18 -108 b 38 -67 32 -74 36 -72 b 65 -36 53 -64 58 -50 l 63 -36 l 60 -33 l 63 -33 l 63 -36 b 107 24 81 -21 89 6 b 125 53 115 29 124 43 b 139 86 129 65 133 76 b 156 115 150 93 147 107 b 185 172 167 132 178 151 b 194 183 185 178 189 182 b 254 208 214 194 235 204 b 340 233 283 218 311 231 b 349 236 343 233 344 236 b 397 253 363 249 381 249 b 442 263 413 257 429 257 b 506 269 463 269 486 269 l 542 269 b 567 271 549 269 557 269 b 556 289 561 276 557 283 b 526 319 550 306 539 310 b 499 322 519 326 510 326 b 393 303 468 308 429 315 b 317 289 368 303 343 293 b 268 271 301 283 286 276 b 217 249 249 269 235 257 b 207 253 213 247 207 249 l 207 360 b 194 381 207 371 204 378 b 185 390 190 383 186 385 b 153 396 175 396 164 396 b 144 390 150 396 144 394 b 144 361 140 381 138 371 b 156 321 157 350 157 336 b 147 271 150 303 150 289 b 124 214 144 249 144 226 b 111 204 117 213 117 207 l 115 204 l 110 200 b 107 204 110 201 107 201 b 92 197 100 204 94 204 b 99 194 94 194 94 194 b 92 192 94 192 94 192 l 92 197 b 56 182 81 192 67 189 b 49 165 49 178 38 174 b 36 163 42 165 40 163 l 35 163 b 36 160 36 163 36 161 b 28 154 35 154 31 154 z m 94 111 b 40 8 82 72 63 42 b -29 -94 21 -28 -3 -61 b -39 -108 -31 -100 -37 -104 b -99 -174 -60 -131 -78 -153 l -167 -228 b -215 -260 -179 -242 -197 -250 b -250 -267 -228 -265 -237 -267 b -281 -260 -260 -265 -271 -267 b -290 -232 -290 -253 -294 -242 b -282 -219 -289 -228 -286 -222 b -254 -171 -275 -203 -260 -190 b -247 -158 -254 -164 -250 -162 b -231 -135 -243 -151 -236 -147 b -157 -54 -211 -106 -186 -79 b -104 -4 -140 -37 -124 -21 b -47 43 -87 13 -67 25 b 8 86 -29 57 -12 72 b 42 107 24 90 32 97 b 67 122 50 115 58 121 b 81 126 71 125 76 126 b 106 133 89 129 92 143 b 94 111 107 125 99 117 z m 156 532 b 217 525 175 525 194 522 l 243 525 b 254 543 254 522 258 532 b 225 572 249 556 236 564 b 190 575 214 579 203 582 b 153 550 179 564 164 556 b 150 538 150 547 150 544 b 156 532 150 536 153 535 z m 450 276 b 385 263 429 267 407 267 b 381 265 383 263 381 265 b 383 267 381 267 383 267 b 419 276 394 269 407 276 b 447 281 429 276 438 279 l 450 281 b 453 279 450 281 450 279 z m 340 249 b 321 247 333 247 326 247 b 340 253 322 258 333 253 l 343 251 z m 235 219 b 254 224 239 229 246 226 b 235 219 253 218 242 219 z m 71 174 b 76 179 72 178 72 178 l 82 172 b 78 169 81 172 78 169 l 71 169 z m 110 207 b 107 204 108 207 107 207 l 111 204 b 110 207 111 206 110 207 z "},"k":{"ha":832,"x_min":0,"x_max":0,"o":"m 654 806 l 654 808 b 683 835 663 815 671 828 b 703 856 690 838 699 849 b 757 918 718 878 736 901 b 778 953 763 931 769 942 b 775 982 782 960 782 975 b 717 1006 758 996 740 1010 b 690 1010 708 1006 699 1006 b 671 1006 683 1011 679 1010 b 575 965 636 999 606 982 b 465 889 532 946 497 917 b 331 758 415 850 371 808 b 228 635 297 718 261 679 b 219 622 224 633 222 628 l 228 622 b 219 606 228 615 224 611 l 219 622 b 211 606 211 619 211 614 l 219 606 b 211 606 215 601 213 601 b 183 572 196 601 189 586 l 189 572 b 183 556 189 565 189 560 l 183 572 b 161 544 172 564 164 556 l 171 544 b 161 536 167 543 164 538 l 161 535 b 154 522 161 531 160 525 l 154 535 b 150 522 147 532 147 526 l 154 522 b 147 522 153 519 150 519 b 126 493 133 519 126 507 l 132 493 b 126 493 132 486 131 486 b 113 474 117 486 108 482 b 104 464 107 474 104 471 l 113 464 b 104 464 108 458 108 458 b 99 451 97 463 99 456 b 103 447 99 451 103 451 l 99 446 b 93 429 97 438 97 433 b 85 428 86 424 86 424 l 85 429 l 82 429 b 85 428 83 429 85 428 b 71 407 75 425 71 418 l 75 407 b 74 403 75 406 75 406 b 71 407 74 406 74 406 b 51 381 57 400 53 394 b 56 378 51 381 53 381 l 56 374 b 43 374 51 367 51 367 b 28 344 33 367 33 354 b 28 331 35 338 35 336 l 28 344 b 6 308 13 336 7 322 b -10 286 -3 303 -6 297 b -24 258 -22 281 -22 269 b -39 236 -32 253 -39 247 b -33 233 -35 236 -33 233 b -39 236 -39 231 -39 233 b -68 189 -54 224 -61 207 b -83 168 -78 183 -79 174 b -103 122 -92 151 -97 139 b -118 81 -111 111 -118 94 b -124 53 -118 68 -119 61 b -112 3 -137 29 -129 14 b -97 8 -107 1 -97 1 b -79 25 -94 18 -92 24 b -69 38 -72 25 -68 29 b -61 51 -69 46 -68 47 b -40 68 -54 54 -46 64 b 46 144 -11 93 17 121 b 104 192 63 163 85 178 b 107 194 104 194 107 194 b 113 190 108 192 113 190 b 113 165 108 182 108 172 b 108 149 113 160 113 151 b 99 104 107 132 103 121 b 121 -14 96 65 96 24 b 196 -65 138 -42 164 -61 b 276 -64 224 -72 250 -72 b 350 -37 303 -60 326 -50 b 429 1 378 -28 406 -14 b 507 43 456 15 479 29 b 518 53 508 46 514 47 b 586 94 540 68 564 82 b 640 126 606 104 622 115 b 672 149 651 139 663 143 b 729 174 690 156 708 168 b 778 207 746 182 758 201 b 781 218 781 207 781 213 b 781 224 775 219 775 222 l 781 222 l 782 224 l 781 224 b 796 229 782 229 790 229 l 796 224 b 825 246 810 226 819 229 b 833 247 825 247 831 249 b 856 249 839 246 847 247 b 929 279 879 263 900 279 b 935 281 933 279 933 279 l 935 286 b 914 317 935 301 922 306 b 899 322 913 322 906 321 b 861 317 885 328 874 326 b 828 299 854 308 838 303 b 753 257 804 286 775 276 b 736 247 747 251 740 249 b 701 226 722 240 713 231 b 611 174 671 208 643 190 b 535 132 586 163 560 150 b 463 90 513 117 486 104 b 407 64 443 81 426 72 b 276 1 365 42 325 18 b 164 -11 240 -14 204 -14 b 153 -3 160 -11 154 -8 b 147 8 150 1 147 3 b 150 88 150 36 150 64 b 156 113 150 97 154 104 b 172 125 160 121 164 125 b 253 149 201 125 228 139 b 326 182 279 156 299 179 b 336 189 331 182 332 183 l 389 226 b 456 276 415 240 433 258 b 486 322 474 289 479 306 b 507 374 497 338 501 356 b 504 383 507 376 507 381 b 444 424 492 407 474 424 b 386 413 426 424 404 424 b 372 407 381 410 376 410 b 325 388 353 406 338 399 b 263 358 307 376 286 361 b 240 349 257 356 250 350 b 224 331 235 344 229 336 b 200 321 211 336 206 326 b 182 310 194 319 186 315 b 132 281 164 301 147 292 b 28 200 97 253 58 231 b 6 189 19 194 13 192 b 18 222 7 200 10 214 b 46 258 28 233 36 247 b 65 299 53 271 65 281 b 75 308 68 301 74 306 b 93 317 81 310 86 315 b 196 367 131 322 164 344 b 325 464 240 396 283 429 b 367 503 338 478 353 490 b 392 526 376 510 382 521 b 424 553 404 535 410 547 b 429 560 426 553 428 554 b 475 606 439 579 457 594 b 485 619 478 611 483 614 b 532 663 501 633 513 651 b 535 667 535 663 535 667 b 532 672 535 668 535 668 b 526 679 531 674 531 676 b 540 686 532 681 535 683 b 546 699 543 689 546 692 b 569 707 554 699 563 699 b 614 754 583 721 600 736 b 629 776 621 758 622 768 b 644 792 640 774 640 786 b 644 800 640 794 640 799 b 654 806 650 804 651 806 z m 310 657 b 349 697 321 668 336 681 b 367 725 356 703 360 715 b 372 740 371 729 371 736 b 388 751 376 742 382 747 b 399 758 389 754 396 756 b 463 833 411 788 439 808 b 492 857 474 839 483 850 b 524 879 504 863 514 868 b 610 935 546 907 581 918 b 665 964 629 944 650 954 b 699 985 679 969 689 976 b 736 986 711 993 722 996 b 740 965 742 982 742 975 b 718 935 733 957 722 946 b 711 922 713 932 713 926 b 703 914 707 918 703 917 b 689 901 694 913 693 906 b 699 896 693 901 694 896 l 699 892 l 689 885 l 689 901 b 665 868 679 892 668 885 b 661 865 663 868 661 867 b 654 856 656 863 654 860 l 660 856 b 654 850 660 853 656 850 l 654 856 b 644 850 651 856 650 853 b 639 843 640 850 639 844 l 644 843 b 640 838 643 839 643 838 b 639 843 640 838 640 839 l 575 778 l 563 765 b 531 736 553 756 542 747 b 535 725 524 729 540 729 b 411 614 494 686 456 650 b 186 435 340 553 263 490 b 154 413 176 428 164 418 b 144 410 153 410 147 410 b 144 422 143 413 143 418 b 171 457 156 429 164 443 b 172 464 171 458 171 463 b 200 497 182 475 193 485 b 224 531 204 510 213 521 b 235 547 228 536 233 543 b 271 594 239 571 257 579 b 281 611 276 600 281 604 b 310 657 286 629 299 640 z m 131 208 b 147 224 133 214 138 219 b 200 258 164 233 182 247 b 253 292 215 271 233 281 b 340 344 283 308 310 326 b 360 354 349 346 353 350 b 438 383 386 361 411 374 l 444 383 b 444 374 444 378 447 376 b 392 299 438 342 415 319 b 283 214 358 269 325 240 b 239 194 269 207 257 197 b 215 182 231 192 224 183 b 196 174 211 179 204 178 b 183 190 189 174 189 183 b 144 208 172 200 161 208 z m 869 281 b 835 267 857 276 847 271 b 681 182 782 240 731 213 b 611 144 656 169 636 156 b 485 72 569 122 526 94 b 447 53 474 65 460 61 l 435 53 b 486 90 450 68 467 81 b 576 143 517 107 546 125 b 610 163 586 150 600 154 l 656 189 b 703 208 671 194 689 201 b 772 247 726 222 751 233 b 867 293 804 263 835 276 l 879 293 b 869 281 879 286 874 283 z m -22 201 l -29 201 b -3 253 -24 222 -17 240 b 6 253 0 253 3 258 l 13 242 l 10 240 b -11 226 -4 247 -6 233 b -22 201 -15 219 -21 208 z m 33 306 l 33 293 b 25 286 29 292 28 289 b 13 274 24 281 18 279 b 33 306 17 289 18 301 z m 183 526 b 161 503 182 514 176 504 b 183 526 164 514 172 522 z m 386 564 b 417 593 399 583 404 586 b 386 564 406 575 399 571 z m 703 913 b 711 918 708 913 711 914 b 717 922 713 918 713 922 b 722 917 722 925 722 925 l 722 913 b 718 907 719 913 719 908 b 703 913 711 907 707 906 z m -33 189 b -39 174 -39 182 -39 178 l -44 174 b -42 183 -44 178 -44 182 b -29 201 -42 192 -40 200 b -33 189 -29 197 -32 192 z m 483 651 b 503 663 486 658 492 663 b 483 651 501 657 492 650 z m 247 614 b 233 601 247 601 247 601 b 247 614 235 606 240 611 z m 433 606 b 447 614 435 614 439 614 b 433 606 444 606 439 606 z m 104 424 l 104 407 l 99 407 b 104 424 99 413 99 422 z m 133 457 b 138 474 133 464 132 471 b 133 457 143 464 138 463 z m 654 806 l 654 800 b 654 806 660 804 660 806 z m -22 201 b -17 200 -21 200 -21 200 b -22 201 -22 194 -22 200 z "},"l":{"ha":554,"x_min":0,"x_max":0,"o":"m 694 760 l 678 760 b 683 765 683 764 683 764 b 696 783 685 776 685 786 b 713 786 701 783 706 783 b 715 789 713 786 715 788 b 711 792 713 792 713 792 b 704 789 706 789 706 789 l 700 789 l 700 794 b 724 806 706 806 713 811 b 733 811 726 806 733 810 b 735 817 735 815 736 817 b 726 819 733 826 729 819 l 719 819 b 722 826 719 824 719 826 b 744 844 726 833 742 833 l 769 879 b 789 913 781 888 783 901 b 786 940 793 922 792 932 b 764 957 781 946 775 953 b 675 963 744 971 701 971 b 515 863 615 935 565 896 b 447 800 490 844 467 824 b 297 654 397 754 349 703 b 257 604 282 639 271 619 l 257 596 l 263 596 b 258 593 263 594 263 594 b 257 596 258 594 258 594 b 224 560 243 589 233 575 l 224 554 l 228 554 b 224 547 225 553 225 550 l 224 554 b 217 547 218 554 217 553 l 224 547 b 221 538 224 544 224 543 l 218 536 l 217 538 l 217 547 b 194 521 203 543 196 532 b 172 490 179 513 174 504 b 124 424 149 474 133 447 l 124 418 l 128 418 l 124 413 b 117 403 124 407 121 406 b 108 390 117 399 115 394 l 108 403 b 101 390 104 400 101 396 l 108 390 b 101 390 106 385 104 383 b 86 368 92 385 86 381 l 94 368 b 86 361 92 367 89 361 l 86 368 b 81 361 82 368 81 367 l 86 361 b 79 346 86 356 86 350 l 81 349 l 79 349 l 79 360 b 75 349 75 358 75 354 l 79 349 b 75 344 79 346 76 344 l 75 349 l 71 349 l 75 346 b 58 326 65 344 58 336 l 65 326 b 63 321 65 322 65 322 b 58 326 63 322 63 322 b 24 269 42 310 31 292 l 29 269 b 24 253 29 265 29 258 l 24 257 l 22 253 l 24 253 b 18 253 22 249 19 249 l 14 257 b 15 253 14 257 14 253 b 7 242 8 251 8 246 b -6 219 0 236 -8 231 l 1 219 b -6 204 1 214 0 208 b -12 204 -8 200 -10 200 b -32 165 -22 194 -26 178 b -53 111 -43 150 -49 129 b -53 71 -56 97 -56 82 b 69 -28 -33 13 1 -22 b 121 -22 89 -28 104 -25 b 167 -8 139 -22 150 -15 b 213 14 179 -3 199 6 b 274 46 233 24 256 32 b 314 75 286 54 303 65 b 349 97 326 81 336 88 b 364 111 353 103 356 104 b 394 129 375 115 388 122 b 432 156 407 143 417 151 b 440 174 439 160 446 165 b 446 182 440 178 446 179 b 472 183 451 178 461 174 b 486 194 476 189 481 192 l 540 233 b 599 271 558 247 578 258 b 643 292 610 281 624 293 b 653 299 644 292 651 297 b 665 310 657 303 661 308 b 663 326 668 319 665 326 b 644 342 656 331 649 331 b 635 346 644 344 639 346 b 594 336 622 349 608 346 b 536 293 578 319 556 306 b 507 269 525 289 513 281 b 486 258 504 263 497 257 b 475 249 485 258 476 253 b 461 236 469 247 467 240 b 361 165 428 218 397 189 b 213 75 313 133 263 103 b 89 25 176 53 133 36 b 8 28 63 19 38 24 b -12 54 -6 29 -12 43 b -3 93 -12 68 -12 82 l -3 94 b 0 113 -17 103 -6 107 b 8 126 1 117 7 122 b 22 154 14 139 19 144 b 40 189 26 168 38 174 b 53 214 42 197 49 204 b 81 246 63 226 75 231 l 110 278 b 575 621 236 354 422 467 b 579 626 576 621 579 622 b 647 699 593 653 626 676 b 653 711 649 701 649 707 b 678 736 663 715 671 729 l 678 747 b 671 738 676 742 672 740 b 644 731 663 732 654 731 b 678 760 649 749 667 754 l 678 747 b 694 760 688 749 693 754 z m 746 926 b 725 888 740 914 735 901 b 696 835 714 868 711 853 b 608 729 667 800 639 764 b 458 583 565 679 503 633 b 306 449 411 533 360 492 b 172 358 249 406 217 388 b 140 338 165 353 153 333 b 149 358 140 349 146 349 b 168 390 158 367 160 381 b 228 463 188 417 207 442 b 246 490 235 474 246 478 b 251 500 246 493 247 496 b 264 519 256 504 258 513 b 282 536 271 525 275 532 b 293 553 286 543 286 547 b 307 572 296 560 303 564 b 331 604 317 582 331 589 b 361 640 339 615 353 629 b 388 672 372 651 379 661 b 397 683 389 676 394 679 b 453 742 417 703 439 718 b 515 800 476 760 492 786 b 581 850 538 817 554 839 b 593 860 586 850 588 857 b 667 907 615 879 643 892 b 719 946 686 918 706 931 b 746 942 726 954 742 953 b 746 926 746 936 750 932 z m 243 75 b 263 86 251 76 257 81 b 354 149 293 107 325 125 b 453 213 383 172 419 190 b 497 240 467 219 481 229 b 568 292 521 257 547 274 b 593 299 576 293 583 299 b 588 289 589 293 589 292 b 550 265 576 279 565 269 b 511 236 536 257 525 246 b 451 194 490 222 472 207 b 446 183 447 192 447 189 b 433 182 439 183 436 182 b 344 121 407 156 372 143 b 218 51 300 97 264 65 l 207 51 b 243 75 217 65 231 71 z m 633 721 b 638 725 636 721 636 725 l 638 718 b 644 725 639 721 643 725 b 653 711 653 725 649 715 b 632 697 643 708 636 703 b 622 690 626 692 625 690 b 619 699 622 692 619 697 b 625 711 618 707 618 707 b 638 718 632 711 636 711 b 633 721 636 718 636 721 z m 588 647 b 581 654 586 650 583 651 l 581 668 l 578 672 l 581 672 l 581 668 l 603 681 b 608 676 604 679 608 676 b 588 647 603 667 596 657 z m 14 178 b 13 172 14 174 14 174 b 8 178 13 174 8 174 b -6 172 4 174 0 172 b 8 190 -6 179 -3 190 b 14 204 8 197 8 201 l 14 192 b 14 178 24 189 24 183 z m -6 125 b -12 121 -8 122 -10 122 b -17 115 -12 121 -17 117 b -21 121 -18 117 -18 121 l -26 121 b -18 133 -26 125 -28 132 l -18 149 b -12 154 -21 150 -18 154 l -12 133 l -8 133 b 0 129 -6 132 -3 132 b -6 125 -3 129 -3 126 z m 496 571 b 517 589 500 576 508 583 l 522 582 b 496 571 518 571 508 565 z m 257 554 b 278 582 257 571 268 575 l 278 565 b 257 554 274 564 264 560 z m 558 619 b 551 624 558 622 557 622 b 565 639 551 633 560 635 b 574 632 568 635 569 633 b 558 619 574 624 565 622 z m 185 468 b 167 442 183 456 178 446 b 185 468 168 453 174 463 z m 24 219 b 38 240 22 229 26 240 b 24 219 40 229 31 224 z m 94 315 l 94 319 b 86 315 89 319 86 317 l 81 315 b 94 332 79 322 82 331 l 94 319 b 99 317 97 319 99 317 b 94 315 99 317 97 315 z m 124 376 b 121 360 121 371 121 367 b 108 356 119 360 115 358 b 124 376 108 368 110 371 z m 167 442 b 150 422 167 429 163 424 b 167 442 150 428 156 435 z m 606 310 b 613 308 608 310 610 308 l 610 306 b 593 299 606 299 600 297 b 606 310 593 306 600 308 z m 150 418 b 139 399 150 407 146 400 b 150 418 136 407 143 417 z m 231 526 b 243 538 231 535 235 536 b 231 526 243 526 242 526 z m 217 504 b 201 490 213 493 213 493 b 217 504 203 497 206 503 z m 286 589 b 293 604 285 596 286 601 b 286 589 296 596 293 593 z m 194 475 b 201 490 194 482 196 486 l 201 475 z m 124 376 b 128 390 121 383 124 388 b 124 376 131 383 131 378 z m 588 647 b 581 640 586 644 583 640 l 581 647 l 575 647 b 581 651 578 650 578 651 l 581 647 z "},"m":{"ha":1183,"x_min":0,"x_max":0,"o":"m 1290 344 b 1271 354 1288 354 1281 360 b 1203 319 1247 344 1226 332 b 1038 231 1150 285 1094 254 b 957 192 1014 217 986 206 b 846 143 919 174 885 157 b 838 151 840 139 838 144 b 864 218 840 175 854 196 b 896 282 876 240 889 260 b 913 332 900 300 906 315 b 914 354 914 339 914 344 b 897 368 914 361 908 368 b 889 379 889 368 890 372 b 879 386 889 382 886 386 b 844 383 868 389 856 390 b 817 368 838 379 826 372 b 672 300 767 351 718 329 b 503 192 617 263 558 228 b 496 189 497 192 497 189 b 490 192 493 189 493 189 l 490 194 b 507 228 496 206 497 214 b 519 281 514 242 515 263 b 546 333 528 300 543 314 b 556 361 547 343 549 354 b 578 453 571 390 572 422 b 556 497 583 472 575 488 b 546 506 554 499 547 499 b 504 510 533 519 518 518 b 454 482 486 504 468 492 b 379 429 429 465 406 447 b 258 328 339 396 297 363 b 183 263 233 304 207 285 l 40 117 b 8 90 31 108 24 100 b 11 104 8 94 8 100 b 57 183 26 129 40 156 b 76 217 64 194 69 207 b 115 275 93 232 101 257 b 118 321 128 286 128 306 b 83 351 111 333 99 343 b 58 342 76 354 64 351 b 24 276 53 315 36 300 b -44 144 -3 235 -28 192 b -61 99 -50 129 -54 115 b -33 1 -71 60 -62 29 b -11 -4 -28 -3 -21 -10 b 4 1 -3 -4 0 -3 b 47 40 17 15 31 29 b 136 129 79 68 104 106 b 138 133 138 129 138 133 b 181 179 154 149 167 165 b 244 242 203 203 224 225 b 293 292 263 257 281 271 b 317 311 303 300 310 304 b 421 396 353 339 388 367 b 439 408 428 399 431 403 b 457 421 444 413 449 417 b 469 431 461 422 467 425 b 489 440 475 433 481 439 b 508 447 493 442 497 450 l 503 422 b 436 232 481 360 461 293 b 421 189 429 217 428 203 b 417 156 417 178 411 165 b 436 110 421 139 429 124 b 474 104 446 94 458 94 b 489 113 479 106 485 108 l 575 174 l 633 208 b 688 242 650 218 668 232 b 735 271 701 254 718 264 b 819 311 761 286 789 300 b 826 314 821 311 822 311 l 826 303 b 793 214 815 271 803 242 b 793 149 788 192 789 168 b 819 93 797 128 803 108 b 835 83 822 90 828 86 b 868 83 844 81 856 81 l 917 106 b 1014 153 947 122 979 138 b 1147 225 1056 175 1106 192 b 1158 232 1150 228 1153 231 b 1247 286 1190 246 1217 265 b 1281 310 1256 293 1268 303 b 1290 344 1296 319 1299 329 z m 310 339 b 331 354 314 344 319 354 b 310 339 328 342 317 339 z m 1176 265 b 1197 282 1181 276 1190 281 b 1176 265 1193 271 1186 269 z m 1215 289 b 1231 303 1217 300 1224 303 b 1215 289 1229 293 1221 289 z m 371 389 b 392 401 378 399 385 401 b 371 389 388 396 382 389 z m 353 372 b 365 382 356 382 360 382 b 353 372 361 372 357 372 z "},"n":{"ha":961,"x_min":0,"x_max":0,"o":"m 1036 339 b 1032 343 1036 342 1035 343 b 996 339 1019 342 1004 344 b 917 306 969 325 942 319 b 828 271 885 293 858 285 b 731 236 797 263 764 246 b 661 207 706 228 685 217 b 579 174 635 194 604 189 b 472 151 546 165 511 153 b 449 168 456 149 446 153 b 456 194 449 178 450 188 b 472 271 461 218 468 246 b 496 372 481 306 489 339 b 496 390 497 379 497 386 b 471 422 489 401 478 413 b 461 429 468 425 463 429 b 422 422 449 429 436 431 b 382 403 410 417 393 411 b 342 382 369 396 358 386 b 281 343 319 368 299 360 b 224 310 263 332 240 325 b 136 246 189 293 165 269 b 57 189 110 225 85 208 b 49 188 54 188 51 188 b 57 207 49 194 54 201 b 104 293 69 235 88 264 b 114 311 106 300 110 306 b 136 357 115 329 125 343 b 136 368 138 360 142 363 b 99 399 126 382 114 390 b 69 383 86 403 76 399 b 0 231 54 329 31 276 b -11 213 -7 225 -10 217 b -33 167 -18 196 -26 183 b -50 128 -40 156 -46 139 b -39 64 -62 104 -50 83 b -18 60 -33 58 -22 58 b -4 76 -12 65 -10 71 b 49 124 18 88 36 104 b 68 143 54 129 61 138 b 189 244 106 179 143 217 b 224 265 197 257 215 257 b 292 311 246 282 269 296 b 338 338 308 319 319 329 b 432 372 367 349 399 361 b 440 368 439 379 440 378 b 436 338 440 357 439 344 b 422 296 433 325 429 310 b 407 161 407 253 406 207 b 415 135 407 151 410 143 b 439 108 421 126 432 115 b 463 94 446 104 457 99 b 531 99 486 90 508 90 b 592 122 550 104 569 110 b 713 167 628 135 672 151 l 863 228 b 871 232 867 231 871 232 b 882 244 868 242 872 244 b 910 253 890 244 900 246 b 993 282 939 263 965 271 b 1036 339 1050 304 1035 319 z m 1004 303 b 942 276 985 293 968 281 b 914 264 935 271 921 275 b 906 260 910 263 907 263 b 803 225 871 254 839 235 b 775 224 793 224 785 218 b 785 232 775 228 781 231 b 849 254 804 240 826 246 b 868 260 853 254 861 257 b 882 264 872 263 878 264 b 896 276 896 264 890 276 b 946 289 914 282 928 293 b 957 293 950 286 956 292 b 1003 306 974 300 986 304 b 1007 304 1003 310 1004 306 b 1004 303 1007 304 1007 303 z m 719 203 l 719 206 b 753 214 729 213 740 217 b 719 203 744 203 731 203 z m 696 194 b 706 203 700 201 701 203 b 717 201 710 203 714 201 b 696 194 713 192 704 192 z m 753 214 b 764 224 753 218 758 224 l 774 224 b 753 214 771 213 763 214 z m 564 144 b 558 149 560 144 560 149 l 560 151 l 575 151 b 564 144 572 144 568 144 z m 586 153 l 576 153 b 594 157 579 161 592 157 b 586 153 594 153 592 153 z "},"o":{"ha":561,"x_min":0,"x_max":0,"o":"m 629 313 b 617 333 629 314 621 338 b 582 328 606 332 594 333 b 553 311 575 319 564 315 b 490 296 529 306 510 303 b 389 276 456 289 422 282 b 321 276 367 271 343 271 b 339 325 329 293 333 310 b 317 433 349 363 347 401 b 297 461 310 442 303 450 b 301 465 293 465 299 465 b 301 482 308 469 308 481 b 250 492 285 488 269 499 b 219 488 240 488 231 488 b 181 488 206 490 193 490 b 154 482 171 488 161 488 b 99 458 136 475 117 468 b 68 429 88 450 78 440 b 58 390 60 418 57 407 b 40 351 58 378 54 363 b -4 296 24 333 11 314 b -71 161 -37 257 -60 213 b -79 124 -78 149 -78 135 b 8 32 -79 81 -49 36 b 99 56 40 32 69 40 b 214 135 140 78 174 110 b 219 143 217 138 217 139 l 268 194 b 333 225 293 231 292 225 b 408 228 360 225 385 225 b 461 232 426 231 444 232 b 478 242 468 232 475 235 b 544 257 479 242 543 260 z m 211 225 b 176 192 196 213 188 203 b 40 99 136 156 92 124 b 1 90 25 93 11 88 l -21 90 b -33 108 -29 93 -37 100 b -4 179 -22 129 -15 157 b 36 257 11 206 24 231 b 68 315 43 281 57 296 b 82 314 69 321 75 321 b 200 240 114 276 150 250 b 207 235 201 236 206 236 b 211 225 211 235 213 228 z m 292 372 b 264 293 290 344 279 319 b 236 282 260 285 250 281 b 163 300 213 286 188 289 b 115 325 147 306 126 311 b 106 338 114 329 108 333 b 106 354 99 343 99 349 l 136 382 b 190 422 154 396 171 411 b 244 457 207 436 224 446 b 253 457 246 458 250 457 b 264 447 258 453 263 450 b 292 372 285 429 297 403 z "},"p":{"ha":811,"x_min":0,"x_max":0,"o":"m 146 303 b 133 296 142 303 136 303 l 146 296 l 146 293 l 150 293 b 133 289 144 289 140 289 l 133 293 l 126 293 b 124 292 126 293 126 292 l 126 289 l 133 289 b 124 282 132 286 126 285 b 121 275 124 281 122 276 l 111 275 b 142 351 115 304 122 329 b 142 382 151 361 154 371 b 111 396 133 389 124 393 b 76 372 94 399 82 390 b 35 281 65 342 53 310 l 19 253 b -15 201 14 232 0 214 b -22 189 -17 196 -21 192 b -22 183 -17 185 -15 183 l -22 188 b -56 161 -40 185 -50 175 l -44 161 b -56 161 -53 153 -53 153 l -79 149 b -124 104 -94 133 -110 117 b -236 -21 -162 65 -207 26 b -287 -93 -254 -43 -271 -68 b -315 -139 -299 -107 -306 -122 b -346 -186 -326 -151 -333 -169 b -365 -283 -365 -215 -371 -249 b -337 -322 -362 -300 -356 -312 b -300 -293 -328 -312 -312 -301 b -240 -222 -281 -271 -256 -247 b -181 -147 -221 -196 -197 -175 b -158 -125 -176 -139 -169 -129 b -146 -100 -151 -118 -153 -106 b -118 -72 -132 -96 -124 -85 b -82 -24 -107 -56 -94 -42 l -75 -14 b -26 54 -65 13 -50 36 b -25 74 -22 58 -21 65 b -22 81 -25 76 -26 81 b 3 106 -7 83 0 93 b 65 192 14 139 47 161 b 75 203 65 196 72 201 b 196 275 111 231 154 254 l 278 306 b 285 310 281 310 282 310 b 332 321 303 306 318 315 b 375 332 346 328 360 329 l 450 332 b 479 325 458 332 468 329 b 511 271 507 314 514 303 b 497 254 511 263 507 257 b 429 232 475 246 453 236 b 303 174 385 218 343 196 b 282 143 290 165 282 156 b 281 122 281 135 281 128 b 328 74 282 93 300 76 b 385 81 349 74 367 76 b 515 156 435 94 476 126 b 526 175 522 161 526 165 b 564 208 528 194 542 206 b 674 236 601 217 635 231 b 726 246 690 242 708 242 b 778 257 742 250 760 253 b 829 264 793 264 811 263 b 868 263 840 265 857 265 b 894 264 878 257 889 257 b 894 285 896 265 890 276 b 886 296 894 289 890 293 b 868 310 879 296 879 296 b 867 311 868 310 868 311 b 829 319 857 319 844 329 b 815 315 822 319 819 315 b 753 310 793 314 771 314 b 694 303 732 304 714 304 b 624 285 669 296 649 289 b 572 275 606 281 588 276 b 542 292 556 271 547 276 b 532 306 538 296 536 303 b 458 354 514 329 492 344 b 397 361 439 360 417 360 b 294 349 360 368 328 363 b 253 342 282 343 269 338 b 243 338 251 343 249 338 b 225 338 238 333 231 338 b 224 332 225 338 224 333 b 203 319 221 321 211 321 b 199 325 203 319 201 321 b 176 314 194 319 183 315 b 169 310 174 314 172 311 b 150 304 161 310 154 311 b 154 303 151 303 151 303 b 156 300 156 303 156 300 b 154 296 156 296 156 296 b 150 294 151 296 150 296 l 150 296 l 146 296 z m -82 65 b -104 29 -89 54 -94 40 b -190 -96 -132 -14 -158 -56 l -250 -175 b -312 -247 -271 -197 -294 -222 b -335 -265 -322 -253 -328 -258 l -339 -265 b -343 -257 -343 -262 -343 -258 b -299 -174 -324 -232 -312 -203 b -276 -140 -289 -164 -283 -150 b -169 -14 -244 -96 -208 -53 b -128 31 -153 -1 -139 15 b -79 74 -111 47 -97 64 b -82 65 -79 71 -79 68 z m 822 293 l 815 289 l 761 282 b 656 263 728 281 690 271 b 593 254 635 257 613 257 l 593 257 b 607 264 600 260 604 264 b 817 303 679 281 747 292 b 822 300 819 303 821 300 b 828 296 822 300 828 300 b 822 293 828 296 828 293 z m 436 163 b 353 126 411 143 385 129 b 339 126 350 124 346 126 b 343 129 339 128 343 129 b 428 167 371 143 397 156 l 439 167 b 436 163 439 165 439 163 z m -158 -90 b -186 -122 -162 -106 -172 -118 b -158 -89 -181 -107 -175 -96 z m -112 -24 b -101 -3 -112 -14 -110 -10 b -112 -24 -101 -14 -104 -21 z m -214 -165 b -201 -146 -214 -157 -210 -150 b -214 -165 -201 -156 -207 -164 z m -194 -139 b -186 -125 -194 -132 -194 -128 b -194 -139 -186 -129 -186 -136 z "},"q":{"ha":608,"x_min":0,"x_max":0,"o":"m 278 25 l 276 26 l 276 31 l 261 31 l 261 38 b 256 31 260 35 258 32 l 261 31 b 256 25 260 29 260 26 b 249 15 254 21 250 18 l 249 25 b 242 32 244 26 235 25 b 250 54 247 38 249 47 b 271 68 254 60 265 58 b 322 143 288 93 307 115 b 328 156 322 149 324 153 l 351 188 b 396 275 368 214 383 244 b 425 360 407 303 415 332 b 418 383 426 368 425 379 b 385 403 404 389 403 407 b 336 413 368 399 353 407 b 306 422 325 418 317 418 b 265 429 294 431 278 431 l 219 417 b 79 333 168 399 122 368 b -7 244 49 306 21 276 b -39 183 -24 225 -29 206 b -35 138 -44 167 -44 153 l -26 124 b 25 104 -17 104 3 94 b 58 113 35 108 49 110 b 79 124 65 115 72 122 b 169 188 111 144 140 165 b 226 231 189 201 210 214 l 306 293 b 333 315 314 303 324 310 b 339 315 333 319 339 319 b 339 311 339 315 342 314 b 317 265 329 296 324 282 b 239 138 296 224 267 178 b 94 -67 192 68 150 -1 b 15 -175 68 -100 44 -140 b -14 -222 3 -187 -7 -204 b -14 -267 -25 -237 -26 -253 b 3 -301 -14 -278 -6 -290 b 17 -304 6 -306 11 -306 b 35 -294 25 -304 32 -301 b 74 -239 49 -276 61 -258 b 153 -146 100 -207 124 -175 b 254 -39 188 -111 225 -76 b 300 18 271 -19 288 1 b 299 21 300 18 300 21 b 296 25 299 21 299 25 b 283 15 294 21 289 18 b 268 3 281 11 276 7 b 265 -1 267 1 265 0 l 265 3 l 268 3 l 265 11 b 276 25 265 18 268 21 z m 329 372 b 276 332 313 360 294 344 b 160 244 238 304 199 275 l 68 185 b 32 167 58 178 43 174 b 22 168 26 167 25 167 l 22 178 b 122 282 54 214 83 254 b 144 303 131 286 138 293 b 260 368 176 333 215 357 b 283 372 267 371 274 371 b 317 383 294 372 306 372 b 324 389 317 386 322 386 l 333 383 b 329 372 333 382 329 378 z m 540 260 b 528 253 533 260 529 257 l 540 253 b 521 236 538 242 528 240 l 521 244 b 499 232 506 244 501 240 l 511 232 b 499 224 510 225 504 225 b 506 206 501 217 504 213 b 538 232 521 213 524 228 b 569 253 550 236 557 244 b 647 300 597 264 621 282 b 682 338 660 311 671 325 b 686 344 686 339 686 343 b 682 354 686 349 686 351 l 678 354 b 651 338 669 349 660 342 b 592 300 631 325 611 311 b 583 286 586 296 586 292 l 597 286 b 581 281 596 282 586 282 l 583 282 b 581 281 583 282 581 282 l 581 286 b 542 260 564 285 550 276 l 554 260 b 540 253 551 253 547 253 z m 153 -33 b 78 -128 131 -68 108 -100 b 71 -129 74 -129 72 -129 b 83 -106 71 -121 78 -111 b 131 -39 101 -85 118 -61 b 163 -11 142 -26 147 -14 b 168 7 164 -3 163 3 b 201 58 179 21 189 40 b 247 124 217 81 235 100 b 283 174 260 139 268 157 b 268 135 283 157 276 149 b 226 71 254 115 239 93 b 188 8 211 51 199 29 b 171 -10 181 3 176 -3 b 164 -11 171 -11 168 -11 b 153 -33 164 -21 160 -28 z m 378 124 l 378 126 l 375 126 l 375 138 b 363 126 371 135 364 133 b 322 88 342 115 333 108 l 333 88 l 339 83 b 342 88 339 86 339 86 l 333 88 b 342 94 336 90 339 93 l 342 88 b 347 94 346 90 347 90 l 342 94 b 347 104 344 99 346 100 l 347 94 b 368 110 357 94 365 100 l 356 110 b 364 124 357 113 363 117 b 375 126 368 124 371 124 l 375 124 l 378 119 b 381 124 378 121 378 122 z m 397 138 b 404 144 403 139 403 139 l 397 144 l 404 153 l 404 149 b 408 153 407 149 407 151 l 404 153 b 408 161 407 156 408 157 b 426 167 415 165 421 167 b 432 174 426 168 431 174 l 432 167 l 447 167 b 450 175 453 168 453 174 b 442 179 447 178 443 179 b 432 175 438 178 435 178 l 432 179 b 421 178 426 179 425 179 b 383 144 404 168 393 161 l 397 144 z m 306 60 l 313 60 l 314 58 b 325 54 317 54 322 54 b 314 58 324 60 318 58 l 314 60 l 313 60 l 313 65 l 306 65 l 306 68 b 313 74 307 71 313 71 l 314 69 b 317 74 314 71 315 74 l 314 74 l 314 76 b 313 74 314 75 313 74 l 313 81 b 283 60 299 81 290 71 l 299 60 l 299 54 b 306 60 304 54 306 56 l 299 60 b 306 65 300 64 304 65 z m 244 -11 l 235 -11 l 235 -3 b 225 3 231 -1 226 1 b 226 8 225 3 225 8 b 242 11 231 8 238 11 l 235 -3 l 256 3 b 261 -3 260 1 260 -1 b 244 -11 254 -14 254 -14 z m 467 192 b 461 194 465 192 465 192 b 467 208 461 201 465 206 b 442 188 453 206 447 201 l 454 188 b 461 194 457 189 460 192 l 461 189 b 467 192 465 189 465 189 z m 199 15 b 221 42 207 26 215 36 b 207 13 226 49 219 26 b 203 13 207 11 203 11 b 199 15 203 13 201 13 z m 471 208 l 482 208 b 490 224 483 214 489 218 b 471 208 481 224 472 218 z m 63 -147 b 54 -151 61 -150 58 -150 b 54 -146 51 -151 51 -147 b 71 -132 61 -140 65 -139 b 63 -147 71 -140 68 -146 z m 221 -24 b 235 -11 221 -19 226 -14 b 221 -24 235 -24 231 -24 z m 171 -31 b 186 -19 174 -26 176 -21 b 171 -31 181 -31 181 -31 z m 561 265 b 578 275 564 271 569 271 b 561 265 574 265 568 265 z "},"r":{"ha":539,"x_min":0,"x_max":0,"o":"m 581 351 b 407 250 549 339 442 257 b 429 293 410 265 425 276 b 447 315 435 303 439 310 b 451 344 457 325 457 338 l 429 368 b 361 383 414 386 385 396 b 258 338 328 367 293 354 b 76 217 194 303 132 264 l 72 217 b 72 224 71 218 71 224 l 110 292 b 144 357 122 311 126 338 b 142 378 150 361 146 371 l 119 390 b 75 378 104 401 81 393 b 43 310 67 351 54 332 b -36 161 18 260 -8 208 b -104 38 -60 117 -82 78 b -115 18 -110 31 -111 26 b -115 -14 -115 8 -118 -3 b -94 -42 -110 -24 -101 -31 b -83 -46 -93 -43 -89 -43 b -65 -39 -75 -50 -71 -49 b -40 -4 -60 -26 -47 -19 b 25 78 -22 26 4 51 b 72 129 36 99 54 113 b 97 151 81 138 90 143 b 122 168 106 157 115 163 b 293 285 174 214 233 246 b 335 303 306 292 321 296 b 346 296 339 304 346 300 b 358 228 338 265 344 254 b 365 208 360 221 364 217 b 386 197 372 199 376 197 b 453 222 413 197 435 199 b 572 321 464 240 561 303 b 583 343 578 328 581 335 b 581 351 583 344 583 350 z "},"s":{"ha":507,"x_min":0,"x_max":0,"o":"m 519 264 l 506 264 b 519 271 510 271 513 271 l 521 271 b 532 276 522 276 528 281 b 557 275 539 271 544 271 b 579 281 563 276 571 276 l 590 286 b 583 300 593 293 589 296 b 554 310 568 311 571 311 b 483 286 532 304 506 296 b 481 281 482 285 481 282 b 481 271 482 276 483 275 b 464 264 475 264 469 264 b 478 271 465 271 471 269 l 478 281 l 464 281 b 343 225 425 260 383 242 b 335 214 339 224 338 218 b 356 218 343 214 347 217 b 367 218 357 224 363 218 b 361 214 365 217 363 214 b 329 203 351 208 343 201 b 335 214 329 206 333 208 b 322 208 329 214 326 213 b 204 144 281 189 240 168 b 181 151 190 138 186 138 b 133 231 169 178 151 203 b 110 292 122 250 111 269 b 119 321 104 304 110 314 b 146 342 128 329 136 338 b 181 343 157 344 167 351 b 201 357 192 339 197 342 b 208 357 204 363 204 361 b 264 349 225 342 247 339 b 265 371 271 354 274 363 b 186 413 243 393 221 411 b 113 407 161 417 136 408 b 68 379 97 403 79 390 b 54 338 56 367 53 351 b 68 282 56 319 56 300 b 122 188 88 253 104 217 b 153 135 132 168 146 153 b 151 115 161 126 158 122 b 43 47 113 93 79 68 b -4 15 26 36 10 26 b -97 -53 -37 -4 -69 -26 b -106 -65 -101 -60 -104 -61 b -108 -122 -117 -85 -115 -103 b -76 -157 -104 -140 -94 -151 b -31 -178 -64 -165 -47 -169 b 33 -178 -8 -187 13 -196 b 68 -169 43 -174 54 -174 b 101 -151 79 -168 93 -161 b 157 -103 119 -136 139 -121 b 210 -31 185 -78 199 -65 b 218 38 218 -10 225 13 b 214 74 215 49 215 60 b 229 99 214 86 215 93 b 264 117 240 106 249 117 b 317 153 283 129 300 139 b 339 165 326 156 333 163 b 353 179 351 165 339 179 b 414 213 374 192 394 201 b 426 214 419 214 425 214 b 465 236 440 225 453 232 b 493 253 478 242 483 246 l 493 257 l 485 257 b 488 260 486 257 488 258 l 483 260 b 506 264 489 265 500 264 b 519 264 511 257 514 257 z m 136 -61 b 117 -78 129 -68 122 -71 b 50 -112 100 -100 78 -107 b 31 -117 43 -112 36 -117 b -15 -117 14 -121 0 -121 b -49 -107 -26 -112 -40 -111 b -53 -103 -53 -107 -54 -106 b -47 -93 -53 -100 -49 -96 b 21 -39 -29 -71 -7 -53 b 113 25 54 -21 83 -1 b 176 65 132 40 153 51 b 136 -61 189 13 169 -26 z m 307 174 l 307 179 l 293 179 b 322 192 299 194 307 194 l 322 188 b 307 179 315 188 310 188 b 324 188 313 179 322 179 l 335 188 b 307 174 329 174 322 168 z m 293 165 l 293 174 l 286 165 l 265 165 b 293 179 271 178 281 179 l 293 174 l 306 174 b 293 165 306 165 299 165 z m 424 231 l 424 236 l 401 236 b 426 250 407 246 414 253 b 424 236 425 246 424 242 l 435 236 b 424 231 432 231 426 231 z m 231 144 b 264 165 238 157 247 161 b 231 144 256 151 243 144 z m 464 260 l 483 260 l 483 257 b 464 253 481 246 471 253 l 464 257 b 458 260 463 257 460 257 b 453 263 454 260 454 260 b 458 264 454 263 454 264 l 464 264 z m 208 129 b 229 143 210 139 218 144 b 208 129 226 135 218 129 z m 392 214 b 407 224 394 224 401 224 b 392 214 404 214 401 214 z m 146 94 b 158 100 150 100 153 100 b 161 99 161 100 161 99 b 147 90 157 94 151 93 l 146 93 z m 335 188 b 351 192 338 194 343 194 b 335 188 347 185 343 188 z m 351 194 b 363 201 353 203 357 203 b 351 194 363 194 356 192 z m 378 208 b 392 214 381 217 385 214 b 378 208 390 207 385 207 z "},"u":{"ha":647,"x_min":0,"x_max":0,"o":"m 718 350 b 653 350 693 376 685 372 l 635 339 b 501 253 589 306 547 281 b 374 169 460 224 419 196 b 307 156 353 157 333 153 b 301 167 301 156 300 157 b 357 286 317 207 340 246 b 364 290 357 286 363 289 b 392 329 375 300 379 318 b 396 350 393 333 396 344 b 383 374 401 363 396 369 b 369 382 379 378 371 378 b 363 383 365 383 363 386 b 333 372 351 382 342 379 l 164 250 b 36 157 119 221 78 189 b 11 144 28 150 18 149 l 4 149 b 17 175 10 156 11 167 b 50 232 26 196 39 214 b 75 276 58 247 67 265 b 107 332 89 294 97 315 b 125 360 113 343 118 351 b 125 374 131 363 129 369 b 119 382 125 378 122 379 b 83 379 106 394 97 394 b -12 243 46 339 17 290 b -47 164 -29 218 -40 192 b -22 88 -54 135 -47 110 b 17 83 -11 76 3 74 b 97 128 46 94 75 106 b 122 150 106 136 113 144 b 193 203 146 168 169 186 b 267 265 217 224 243 243 b 272 267 267 265 268 267 l 274 267 b 276 264 274 265 276 265 b 265 232 272 253 268 243 b 254 185 256 218 254 201 l 254 168 b 274 122 254 150 256 135 b 278 113 276 118 276 117 b 331 94 292 90 307 89 b 356 99 340 94 347 99 b 467 150 399 106 432 124 b 510 179 481 163 496 169 b 547 206 522 189 535 196 b 599 242 564 221 581 231 b 660 282 621 254 643 267 b 706 321 676 293 692 304 b 718 350 714 328 722 339 z m 499 226 b 518 242 500 238 507 242 b 499 226 517 231 507 226 z m 604 276 b 625 290 607 289 614 293 b 604 276 619 282 614 276 z m 618 306 b 631 313 619 313 626 313 b 625 300 629 306 626 303 b 619 300 621 300 619 299 b 611 303 618 300 614 300 z m 535 247 b 521 243 529 243 525 243 b 529 253 522 246 525 250 b 535 253 529 254 535 253 z m 568 254 b 581 264 569 264 575 264 b 568 254 579 254 575 254 z "},"v":{"ha":453,"x_min":0,"x_max":0,"o":"m 499 521 b 479 506 488 521 485 515 l 494 506 b 454 465 485 488 467 476 b 446 465 453 460 447 465 b 449 476 446 469 447 475 b 429 465 439 476 435 471 l 446 465 b 439 451 443 458 443 453 b 379 392 418 433 397 414 b 367 379 375 386 369 383 b 328 340 351 364 340 351 b 303 315 321 332 311 322 b 294 313 303 313 299 315 l 294 315 l 293 315 l 293 328 b 288 315 288 324 288 321 l 293 315 l 293 313 l 294 313 b 288 299 293 306 293 303 b 229 238 271 276 251 254 b 224 236 229 238 225 238 b 239 261 224 247 231 253 b 251 276 243 267 251 271 b 235 272 246 281 242 276 l 201 238 b 69 99 157 189 115 146 b 10 51 53 83 36 61 b 10 65 10 56 7 61 b 29 114 15 83 17 99 b 72 211 49 144 56 178 b 93 257 75 231 82 246 b 101 275 96 264 99 267 b 132 343 104 300 118 321 l 163 397 b 183 447 169 411 174 431 b 207 497 192 460 193 481 b 206 506 207 497 207 500 b 199 510 203 508 201 508 b 146 500 179 528 157 524 l 118 447 b 49 293 93 397 72 344 b 4 189 36 257 19 224 b -40 89 -10 156 -25 122 b -58 49 -44 76 -53 65 b -61 3 -64 38 -65 19 b -40 -32 -60 -10 -50 -24 b -10 -37 -31 -42 -22 -43 b 78 26 25 -24 56 -3 b 122 69 93 44 106 60 b 156 100 133 78 146 89 b 190 139 167 114 179 126 b 231 186 201 156 215 169 b 258 215 242 196 251 206 b 340 315 282 250 308 286 b 382 357 356 328 369 340 b 446 426 400 383 426 401 b 453 431 447 429 449 429 b 515 488 476 447 497 467 b 544 510 526 497 533 504 b 613 568 565 531 590 549 b 613 583 621 574 617 578 b 538 596 590 603 565 603 b 533 572 526 594 524 579 b 536 560 536 568 542 567 b 515 536 532 554 519 546 b 528 533 519 536 524 533 b 494 506 519 521 510 508 b 499 521 497 510 497 517 z m 167 174 b 169 179 167 175 167 178 b 201 214 175 193 185 206 b 199 203 201 211 201 206 b 167 174 190 193 175 185 z m 201 215 b 224 236 203 226 207 236 b 201 215 221 225 214 218 z m 146 153 b 142 153 146 150 144 153 l 142 156 b 167 169 150 164 153 174 b 146 153 163 163 153 157 z m 260 289 b 285 313 269 294 275 304 b 260 289 271 310 264 303 z m 122 124 b 118 126 118 124 118 126 b 117 128 117 126 117 128 b 128 140 122 135 124 139 l 132 140 b 133 139 133 140 133 140 b 122 124 128 135 126 128 z "},"w":{"ha":703,"x_min":0,"x_max":0,"o":"m 713 504 b 707 497 713 503 713 500 b 706 503 707 497 706 500 l 706 515 b 699 503 704 511 701 507 l 699 486 b 699 472 706 482 706 476 l 699 486 b 692 472 692 483 692 476 l 699 472 b 692 458 699 465 699 461 l 692 471 b 685 458 685 471 685 464 l 692 458 b 672 426 689 446 682 436 l 672 432 l 669 432 l 669 426 l 672 426 b 665 415 669 424 667 418 b 644 390 660 407 650 400 b 643 381 644 389 644 385 b 678 415 656 389 667 403 b 706 447 688 426 696 438 b 713 446 706 447 707 446 l 713 443 b 626 346 688 408 656 374 b 621 344 625 344 622 344 l 619 344 l 619 358 b 608 344 611 357 608 350 l 619 344 b 617 331 619 339 619 335 b 582 306 601 326 594 314 b 560 282 575 296 568 289 b 550 279 558 279 551 282 b 572 307 551 294 565 299 b 586 321 576 311 582 314 b 563 314 575 324 569 318 b 536 290 551 307 542 299 b 393 185 493 249 443 219 b 375 174 389 181 383 178 b 325 146 360 164 342 158 b 246 133 303 135 274 133 b 229 151 235 133 229 136 b 244 213 229 172 235 192 l 286 296 b 318 340 294 314 303 331 b 331 350 324 344 325 349 b 354 381 336 361 346 369 b 375 400 361 389 369 393 b 374 415 376 403 376 414 b 336 426 361 424 351 432 b 308 414 324 426 317 419 b 268 375 296 400 285 389 b 176 296 239 349 207 324 b 118 243 156 282 136 265 b 24 153 88 213 57 182 b 1 136 18 144 11 140 b 4 146 1 142 1 144 b 29 188 11 160 21 172 b 53 231 39 199 43 214 b 90 306 67 256 86 276 b 115 353 96 324 106 339 b 113 375 119 361 118 369 b 68 386 97 385 86 390 b 51 369 61 385 53 381 b 31 335 47 357 39 346 b -67 144 0 269 -35 208 b -86 103 -74 133 -81 117 b -78 33 -97 79 -93 56 b -39 28 -68 21 -50 18 b 33 93 -17 54 18 61 b 92 153 58 111 76 133 b 183 243 122 185 158 210 b 193 249 185 247 188 247 b 197 249 193 249 197 253 b 199 243 199 249 199 243 l 193 213 b 219 93 178 168 194 131 b 224 89 219 90 222 90 b 296 79 246 76 268 67 b 331 85 307 81 318 85 b 399 113 354 90 375 101 b 444 142 415 122 432 133 b 553 232 489 164 522 197 l 638 314 b 735 432 672 350 704 389 b 747 476 744 446 747 461 l 747 503 b 713 594 751 540 731 568 b 689 607 706 601 696 603 b 678 603 688 607 685 603 b 682 597 678 601 678 600 b 706 515 696 572 704 544 b 713 504 713 513 713 507 z m 497 231 l 493 231 b 540 279 507 249 522 265 l 550 279 b 497 231 536 260 513 239 z m 478 224 b 493 231 481 231 486 231 b 478 224 490 221 486 224 z m 450 203 b 463 210 453 210 458 210 b 450 203 463 199 457 203 z "},"x":{"ha":601,"x_min":0,"x_max":0,"o":"m 671 357 b 563 281 636 332 600 306 b 501 240 542 264 522 253 b 472 224 493 233 483 231 b 335 124 426 189 382 156 b 265 86 311 110 289 97 b 249 97 256 83 256 83 b 247 101 249 100 247 100 b 242 100 243 101 242 100 l 231 82 b 211 156 221 110 211 132 l 211 172 b 200 211 208 183 203 194 b 192 254 197 225 193 240 b 197 276 190 263 192 268 b 282 374 226 310 251 342 b 306 396 289 382 296 389 b 354 464 328 414 344 436 b 357 482 357 468 357 475 b 339 492 357 488 344 493 b 321 475 331 486 328 482 b 306 457 314 468 308 463 b 200 347 267 421 233 385 b 178 328 192 339 188 331 b 164 357 168 332 168 347 b 132 436 163 388 147 411 b 103 463 125 447 114 457 b 65 463 90 467 79 468 b 51 458 61 458 56 463 b 33 446 44 457 38 453 b 32 435 32 444 28 439 b 38 417 32 429 35 421 b 43 417 38 414 40 417 b 65 411 56 421 61 418 b 74 394 67 406 71 399 b 113 278 93 357 101 317 b 103 238 118 263 114 251 b 38 163 81 214 61 189 b -43 61 11 132 -12 93 b -47 47 -47 58 -51 54 b 11 88 -28 61 -8 75 b 50 115 24 97 35 106 b 96 172 65 133 81 151 b 132 201 108 181 118 193 b 135 190 132 199 135 193 b 163 83 140 154 153 117 b 169 72 164 82 168 76 b 215 32 182 57 197 42 b 233 26 221 29 228 26 b 289 36 256 25 271 29 b 346 65 308 43 329 54 b 397 101 364 78 382 88 b 411 111 404 104 406 106 b 494 183 438 133 467 157 b 569 242 521 203 542 225 b 614 282 588 254 601 268 b 653 328 626 297 643 310 b 688 356 661 339 671 347 b 697 367 692 357 697 360 b 671 357 688 369 678 361 z "},"y":{"ha":749,"x_min":0,"x_max":0,"o":"m 182 38 b 169 25 174 35 169 33 l 182 25 b 154 3 178 13 169 3 b 168 25 160 11 161 18 b 160 24 165 24 160 25 b 133 -1 150 15 140 8 l 149 -1 b 154 3 149 1 150 3 b 149 -4 154 -1 151 -4 b 121 -24 140 -15 132 -24 b 111 -33 117 -28 115 -33 b 117 -24 115 -28 115 -26 l 117 -19 b 110 -19 115 -19 110 -17 b 76 -54 97 -28 82 -37 l 92 -54 b 75 -68 92 -62 82 -64 b 64 -79 72 -74 68 -78 b 58 -68 64 -76 64 -72 b 47 -76 54 -67 51 -72 b -32 -165 19 -103 -7 -135 b -67 -226 -44 -186 -61 -203 b -74 -290 -83 -244 -82 -268 l -60 -332 b 3 -379 -46 -358 -26 -375 b 65 -362 28 -385 47 -376 b 107 -322 81 -350 93 -333 b 122 -307 111 -318 117 -314 l 139 -283 b 156 -265 144 -278 151 -272 b 172 -244 151 -250 169 -253 b 179 -231 174 -240 178 -236 b 197 -197 182 -217 188 -203 b 211 -181 204 -193 208 -187 b 231 -151 218 -168 222 -160 b 240 -142 236 -151 236 -143 b 247 -117 242 -131 246 -124 b 267 -86 261 -112 261 -96 b 279 -60 274 -78 274 -67 b 299 -15 288 -46 301 -33 b 332 42 317 1 319 25 b 342 68 342 49 346 54 l 342 74 b 381 126 354 92 361 113 b 376 128 381 128 378 128 b 381 126 381 132 381 128 b 388 139 388 128 388 132 b 383 142 388 139 385 142 b 388 139 388 143 388 142 b 403 149 394 139 400 138 b 418 153 407 149 415 143 l 410 160 l 396 160 b 410 167 399 167 406 167 l 410 160 l 418 160 l 418 156 b 425 156 422 153 424 153 b 428 157 428 156 428 157 b 425 160 428 157 428 160 l 418 160 b 410 167 418 165 415 167 b 425 175 413 175 418 175 b 438 167 428 167 433 167 l 438 175 l 425 175 b 438 182 428 182 433 182 l 438 189 b 403 178 425 189 413 182 b 394 178 399 178 396 175 b 389 185 388 178 389 182 b 418 250 400 207 407 228 b 474 378 435 292 451 336 b 507 421 482 394 490 411 b 507 443 517 424 517 433 b 482 456 503 450 490 450 b 467 463 478 461 478 464 b 433 443 456 458 438 461 b 418 435 429 439 424 439 l 346 393 b 218 311 303 365 261 336 b 149 264 194 296 169 279 b 117 254 139 258 126 257 b 111 257 115 254 111 257 b 125 293 117 268 121 282 b 172 372 140 321 151 347 b 179 386 174 378 178 382 b 182 415 183 394 183 406 b 151 429 178 431 160 433 b 125 406 144 421 133 413 b 53 268 92 365 65 321 b 57 211 47 250 51 229 b 115 185 68 189 93 178 b 208 229 149 194 179 210 b 368 333 258 267 317 296 b 378 336 371 333 376 336 b 383 332 378 336 383 333 b 381 321 383 328 381 324 b 308 138 356 258 332 200 b 286 110 306 126 299 114 b 269 99 279 108 271 104 b 281 93 274 99 276 93 b 276 86 279 92 279 88 l 269 76 b 253 68 261 74 257 76 b 224 51 246 60 233 54 b 211 47 219 49 213 49 l 210 47 l 211 47 b 182 25 207 33 194 31 z m 253 13 b 226 -39 247 -7 236 -21 b 190 -108 213 -64 201 -86 l 190 -117 b 174 -140 179 -121 174 -128 b 156 -160 165 -142 161 -151 b 32 -301 125 -215 82 -261 b -22 -318 18 -312 -3 -319 b -36 -311 -26 -318 -32 -312 b -43 -300 -37 -307 -43 -301 b -22 -239 -36 -279 -44 -254 b -11 -222 -17 -236 -14 -231 b 32 -165 1 -203 14 -181 b 47 -146 38 -160 43 -153 b 94 -89 57 -124 76 -106 b 169 -19 121 -67 149 -44 b 201 8 178 -7 190 1 l 231 31 b 263 53 242 40 253 42 b 274 47 269 54 274 51 b 253 13 263 35 258 25 z m 174 -175 b 169 -181 172 -175 169 -178 b 168 -187 161 -182 165 -186 b 151 -215 161 -197 156 -204 l 149 -231 b 129 -239 133 -226 133 -226 b 132 -253 126 -243 132 -249 l 140 -253 l 140 -256 b 139 -265 140 -261 139 -262 b 132 -256 133 -262 133 -261 l 132 -253 b 115 -254 126 -253 122 -262 b 104 -268 111 -261 107 -262 l 93 -278 b 100 -282 94 -279 97 -279 b 97 -289 103 -283 103 -289 b 71 -304 85 -289 76 -294 b 28 -337 57 -319 43 -328 l 19 -337 b 38 -318 24 -328 29 -324 b 88 -268 57 -304 71 -283 b 172 -151 122 -232 149 -193 b 178 -140 174 -147 174 -143 b 190 -118 183 -136 190 -128 l 204 -112 b 201 -125 207 -117 211 -121 b 200 -136 200 -128 200 -135 b 190 -153 204 -146 197 -147 l 190 -165 b 182 -168 188 -168 183 -168 b 174 -175 179 -171 178 -174 z m 693 253 l 696 253 l 696 254 b 736 264 711 253 726 253 b 760 267 742 264 751 264 b 815 274 778 274 794 276 b 860 279 828 274 843 274 b 810 286 839 282 826 286 b 693 279 769 288 732 286 b 674 274 689 276 681 276 b 553 236 632 264 592 254 b 547 231 550 236 550 235 b 572 235 554 231 564 229 b 658 258 600 246 629 254 b 686 267 667 263 674 267 b 696 254 690 264 693 264 l 693 254 z m 510 210 b 543 225 521 217 532 225 l 543 231 b 490 211 525 231 507 221 l 490 210 z m 439 189 b 486 210 458 189 475 196 b 439 189 467 211 453 200 z m 439 161 b 442 156 439 160 439 157 b 446 161 442 157 446 160 l 446 167 l 447 167 b 467 171 454 167 463 167 b 471 179 471 175 471 178 l 467 179 b 439 182 457 171 447 182 l 439 175 b 446 167 439 171 442 169 l 439 167 b 439 161 439 165 438 161 z m 674 253 l 672 250 b 674 246 672 246 674 246 b 693 253 681 246 690 240 z m 247 81 b 226 68 236 81 229 78 b 247 81 236 64 242 74 z m 497 189 b 510 201 510 189 510 189 b 497 189 497 201 497 200 z m 211 49 b 218 60 213 51 213 54 b 197 49 207 63 201 54 z m 267 93 b 247 82 257 93 251 92 b 267 93 257 81 263 88 z m 75 -54 b 64 -67 68 -54 64 -60 l 75 -67 z m 204 -108 b 211 -96 204 -103 204 -99 l 211 -99 b 204 -108 218 -108 218 -108 z m 247 -46 l 240 -46 b 247 -33 240 -43 240 -35 b 251 -49 249 -49 251 -49 b 247 -46 247 -54 247 -49 z m 197 47 b 182 40 190 49 188 47 b 197 47 190 38 194 38 z m 560 217 b 547 225 557 225 553 225 l 547 217 z m 53 -89 b 42 -101 53 -96 47 -101 b 53 -89 43 -92 43 -92 z m 190 -181 l 190 -168 l 197 -168 b 190 -181 197 -174 200 -178 z m 218 -79 b 211 -96 218 -89 219 -94 b 218 -79 211 -92 211 -85 z m 233 -60 b 240 -46 233 -54 231 -49 b 233 -60 240 -50 240 -60 z m 396 153 l 389 153 b 383 157 388 153 385 156 b 389 160 385 157 388 160 l 396 160 z m 482 189 b 485 185 482 188 485 185 b 496 189 490 182 494 185 b 486 190 492 189 490 190 b 482 189 485 190 482 189 z m 510 210 l 510 206 l 525 206 b 510 210 522 210 514 210 z m 104 -39 b 111 -33 104 -35 107 -33 b 104 -39 111 -37 110 -39 z m 497 188 l 497 189 l 496 189 b 497 188 496 188 496 188 z "},"z":{"ha":531,"x_min":0,"x_max":0,"o":"m 526 185 b 421 165 490 179 456 171 b 333 151 392 158 361 157 b 251 142 307 147 281 147 b 224 135 242 142 235 140 b 183 129 213 129 196 128 l 179 129 b 183 136 179 131 179 135 b 215 157 193 142 199 154 b 218 165 217 158 217 161 b 240 171 226 165 233 168 b 303 219 260 190 282 204 l 313 228 b 346 251 324 236 339 238 l 360 258 b 399 288 375 264 389 274 b 418 311 407 296 411 304 b 450 346 429 324 440 331 b 472 386 461 357 461 375 b 475 401 475 390 475 399 b 467 431 475 413 469 421 b 399 471 449 454 429 471 b 282 461 360 472 321 461 b 281 460 282 461 282 460 b 136 414 231 450 183 432 b 22 363 96 401 58 383 b 11 351 18 361 11 356 b 17 296 3 333 3 313 b 21 294 17 296 18 294 b 40 301 31 286 40 288 b 58 331 40 313 46 324 b 144 375 86 347 115 363 b 156 381 147 379 154 379 b 272 408 194 386 233 399 b 325 421 290 413 310 419 b 394 428 351 424 372 421 l 421 428 b 433 413 429 428 436 421 b 410 364 428 396 421 381 b 290 267 375 326 333 296 b 194 208 260 247 226 228 b 118 169 169 194 144 181 b -7 119 76 150 36 131 b -14 118 -10 118 -11 118 b -29 97 -21 111 -28 107 b -28 49 -33 79 -29 67 b -10 33 -22 40 -17 33 b 31 44 3 39 18 40 b 88 57 51 53 68 57 b 154 61 108 57 131 60 b 206 72 169 68 188 71 b 285 83 233 72 260 79 b 325 97 299 90 314 93 b 364 107 339 101 349 107 b 421 122 383 111 400 118 b 500 146 449 129 472 136 b 510 147 501 146 508 146 b 546 158 519 157 531 157 b 557 168 549 158 557 165 b 547 171 557 175 549 169 l 536 171 b 543 179 536 176 540 179 b 599 190 564 176 581 185 b 603 193 603 190 603 193 b 526 185 576 194 553 186 z m 526 168 l 486 158 b 456 161 475 157 467 154 b 531 171 485 165 508 175 b 526 168 529 169 529 168 z m 233 101 b 194 106 218 100 207 97 b 193 110 194 106 193 107 l 194 111 b 217 107 201 110 211 110 l 235 107 l 236 106 b 233 101 235 106 235 101 z m 136 151 b 175 171 147 158 163 168 b 136 151 167 157 154 150 z m 99 129 b 115 142 99 140 108 140 b 125 142 118 146 121 142 b 99 129 119 135 110 129 z m 403 146 l 365 146 b 371 150 369 147 369 150 l 411 150 b 403 146 410 147 407 146 z m 604 194 l 625 194 b 628 197 626 194 626 197 b 625 199 626 199 626 199 b 604 194 619 199 610 204 z m 79 122 b 88 128 81 128 82 128 l 97 128 b 79 122 92 122 86 122 z m 213 193 b 199 186 211 185 206 186 b 213 193 201 193 207 193 z "},"A":{"ha":817,"x_min":0,"x_max":0,"o":"m 501 -60 b 497 -69 501 -62 500 -67 b 497 -74 496 -69 497 -72 b 497 -69 489 -69 496 -69 l 496 -60 b 500 -49 496 -53 497 -51 l 499 -47 l 494 -39 l 493 -43 b 479 -97 483 -61 482 -81 b 481 -100 476 -99 481 -97 b 485 -106 485 -104 492 -103 b 475 -115 482 -110 475 -112 b 465 -157 465 -129 471 -144 l 465 -165 b 472 -169 467 -168 471 -169 l 471 -164 b 474 -160 471 -161 472 -161 b 478 -162 474 -161 478 -160 b 472 -169 479 -164 479 -168 b 471 -175 472 -174 472 -175 b 469 -197 461 -179 458 -189 b 471 -207 471 -200 471 -204 b 471 -211 472 -208 471 -210 b 465 -210 469 -210 469 -208 b 460 -206 463 -208 463 -201 b 457 -231 458 -212 457 -224 l 444 -243 b 446 -244 446 -243 446 -243 b 442 -272 447 -256 446 -262 l 442 -274 b 439 -304 443 -283 442 -293 l 440 -306 b 439 -329 442 -315 440 -324 l 442 -349 b 465 -404 444 -369 453 -389 b 511 -439 478 -421 493 -431 l 528 -446 b 517 -419 522 -437 518 -429 l 515 -410 b 508 -385 511 -401 508 -392 l 506 -372 b 500 -361 506 -368 501 -367 b 503 -350 500 -358 500 -354 b 497 -339 499 -344 499 -342 b 500 -319 496 -331 500 -326 b 503 -299 500 -311 500 -307 b 506 -279 500 -293 504 -285 b 510 -262 507 -274 506 -265 b 511 -244 500 -254 513 -247 b 526 -193 511 -225 521 -208 b 526 -182 528 -189 526 -183 b 531 -139 526 -168 533 -156 b 547 -96 542 -129 539 -108 b 547 -78 549 -89 547 -86 b 557 -15 563 -60 563 -39 b 554 -14 556 -14 556 -14 b 550 -11 551 -11 550 -11 b 546 -22 547 -15 546 -17 b 531 -53 543 -32 542 -44 l 531 -42 l 550 25 l 551 25 b 556 13 553 22 553 18 b 556 1 560 8 554 6 b 563 -8 557 -4 558 -7 b 571 -1 568 -10 571 -6 l 579 29 b 590 56 586 35 582 47 b 599 86 594 64 593 75 b 617 135 604 101 610 119 b 614 144 617 139 617 143 b 597 147 607 149 606 153 l 593 142 b 593 157 593 147 594 154 b 611 182 594 172 601 181 b 639 207 638 185 632 183 l 639 210 b 660 224 643 219 647 226 b 669 222 664 224 667 222 b 696 215 678 221 685 221 b 711 226 707 215 708 215 b 708 238 718 229 708 233 b 692 276 713 257 704 268 b 675 290 688 282 681 283 b 675 293 672 289 675 292 b 678 311 686 299 675 304 b 690 338 683 318 686 328 b 697 371 692 349 701 360 b 701 381 699 375 701 379 l 713 410 b 725 417 715 414 715 419 l 726 419 b 726 426 729 422 729 424 b 731 446 722 433 722 442 b 736 453 732 446 736 451 b 739 475 736 458 739 467 b 782 575 751 507 765 542 b 849 739 806 629 825 682 b 883 811 858 763 869 786 b 910 864 890 828 903 846 b 950 933 919 889 932 911 l 956 943 b 978 975 957 957 968 967 l 990 994 b 907 1032 926 1049 917 1039 b 896 1018 900 1031 896 1025 l 901 1019 b 907 1017 901 1017 903 1017 l 903 1014 l 897 1013 l 890 1006 l 890 1013 l 897 1013 l 896 1018 b 890 1013 892 1018 889 1015 b 883 1004 885 1011 885 1010 l 890 1006 b 885 1000 889 1001 886 1000 l 883 1004 b 869 992 874 1003 871 1000 b 853 976 860 990 853 986 b 840 972 846 975 843 974 l 828 954 b 818 939 825 951 826 942 b 815 943 818 940 817 949 b 818 939 815 940 817 940 b 811 936 817 936 815 936 b 797 925 800 936 800 936 l 801 924 b 799 919 800 922 799 919 b 788 904 799 913 793 908 b 783 914 788 907 788 911 b 781 914 783 914 782 915 l 774 903 l 788 904 b 775 897 786 899 779 897 b 764 883 775 890 771 886 b 756 874 765 875 758 876 b 747 869 753 874 751 872 l 747 872 l 744 872 b 747 869 744 871 746 869 b 736 861 747 863 743 863 b 733 856 738 857 736 856 l 725 847 l 725 854 b 717 838 715 850 715 850 b 697 824 706 842 700 833 b 704 818 707 821 707 819 l 683 799 b 679 799 683 800 682 806 b 683 799 681 799 683 800 b 667 783 682 788 676 785 b 650 763 665 775 658 768 b 646 757 650 760 650 757 b 639 749 646 753 644 750 b 631 733 639 743 638 738 l 626 729 l 626 733 l 631 733 l 626 740 b 626 733 626 740 625 736 l 618 732 b 614 731 617 732 617 731 b 618 729 617 729 617 729 b 626 729 621 728 622 728 b 614 715 624 722 619 718 b 592 693 610 706 606 696 b 571 668 588 682 582 674 l 560 646 b 551 631 556 640 551 636 b 563 638 557 631 561 636 b 590 672 572 649 579 661 l 617 699 b 649 735 625 710 633 724 b 653 744 651 735 651 739 b 665 760 657 751 658 754 l 678 771 b 726 828 692 793 711 808 b 736 839 731 833 736 836 b 747 850 739 846 746 847 b 803 907 767 868 786 885 l 808 914 b 836 936 819 919 828 928 b 888 979 854 951 868 967 b 888 971 888 978 889 971 l 865 947 b 801 882 839 928 819 907 b 767 850 788 875 779 858 b 713 789 747 831 726 811 l 703 779 b 653 722 683 764 671 739 b 592 651 632 701 614 675 b 535 583 572 631 554 607 b 483 518 515 563 499 539 b 433 447 465 494 449 471 b 382 371 418 422 396 399 b 339 317 368 353 354 335 b 332 307 338 311 333 308 b 315 308 326 306 318 301 b 300 303 310 308 307 304 b 283 296 294 297 288 301 b 263 297 275 292 268 300 b 214 283 249 288 231 288 b 193 281 206 283 197 282 b 171 269 185 272 176 271 b 142 261 160 268 149 265 b 117 247 133 256 128 250 b 76 221 100 240 88 233 b 49 196 65 211 60 200 b 18 174 36 190 31 182 b -24 126 1 163 -11 143 l -29 113 b -19 104 -31 106 -21 104 l -15 104 b 15 122 -6 111 7 118 b 71 154 36 135 57 140 b 97 168 78 163 86 171 b 126 185 110 168 114 183 l 131 186 b 154 192 140 188 147 188 b 185 204 165 197 175 201 b 222 210 196 207 207 208 b 228 208 224 210 228 210 b 231 200 229 207 231 203 l 238 200 b 232 194 236 196 238 194 b 226 185 232 190 231 186 b 232 194 226 192 229 193 l 231 200 b 219 193 228 199 219 196 b 217 179 217 190 217 183 l 221 179 b 218 172 221 175 219 174 b 211 164 213 169 211 167 l 211 151 l 192 132 b 183 135 192 135 189 138 l 178 131 l 179 124 b 165 99 169 119 164 111 l 169 99 b 167 92 171 94 168 92 b 161 83 164 89 165 85 b 151 65 157 78 156 72 b 143 69 146 65 144 69 b 128 44 133 63 126 57 l 135 44 l 129 38 b 126 25 128 33 131 26 b 115 25 124 29 117 32 l 107 14 b 110 13 108 14 110 13 b 107 14 107 10 108 13 b 97 -4 99 11 103 3 l 89 -11 b 82 -25 89 -14 86 -24 b 40 -89 68 -47 58 -71 b 31 -100 39 -93 33 -97 b 7 -146 26 -121 14 -128 b -21 -190 1 -161 -12 -176 b -31 -242 -31 -207 -35 -222 b -17 -267 -29 -253 -26 -261 b 32 -283 -7 -285 13 -292 b 46 -264 39 -281 46 -278 b 47 -235 49 -254 43 -244 b 42 -226 49 -232 47 -231 l 78 -161 b 139 -54 97 -126 113 -89 b 182 19 156 -31 165 -4 l 188 29 b 207 65 194 42 204 51 b 231 100 213 79 222 89 l 247 124 b 258 153 256 132 257 142 b 274 169 260 157 267 165 b 286 200 285 178 289 183 b 296 208 286 203 290 207 b 306 217 300 208 301 211 b 324 229 307 222 314 228 l 371 235 b 411 235 382 229 399 235 b 449 236 425 236 435 242 b 493 235 465 238 479 236 b 567 238 518 240 542 233 b 572 229 571 239 572 235 l 574 219 b 567 196 563 214 564 206 b 557 182 561 193 557 188 b 558 176 557 182 558 179 l 560 176 b 568 183 563 179 564 182 l 567 196 l 572 196 b 575 210 574 199 571 207 b 575 196 576 201 578 199 b 576 194 575 194 575 193 b 574 183 578 188 579 185 l 568 183 l 568 175 b 553 135 561 163 556 150 b 543 124 554 131 549 128 b 540 128 543 125 543 128 l 539 125 b 543 124 540 125 543 125 b 546 103 544 117 547 108 b 531 46 539 82 535 67 b 517 33 528 38 524 33 b 518 26 510 32 510 32 b 515 17 521 22 521 22 b 511 -15 519 6 514 -4 b 507 -11 511 -14 507 -14 b 500 -11 504 -7 503 -6 b 497 -28 494 -17 494 -22 b 503 -28 501 -29 501 -29 l 507 -26 b 508 -29 507 -26 510 -29 b 500 -49 506 -37 507 -47 z m 357 321 b 368 336 358 326 364 333 b 375 332 368 332 375 328 l 397 346 b 400 365 401 353 401 358 l 388 364 l 394 372 b 400 369 397 376 399 374 l 400 365 b 410 381 408 369 408 378 b 406 390 410 385 406 389 b 425 415 410 401 415 411 l 426 406 b 433 403 426 404 428 404 l 435 404 b 447 421 433 413 443 414 b 453 446 454 428 454 438 b 463 460 464 449 464 449 b 465 464 464 460 464 461 b 461 464 463 463 463 463 b 461 474 461 468 460 472 l 482 494 b 493 500 486 499 489 499 b 513 515 504 501 507 507 b 522 528 518 517 521 525 b 531 531 524 531 529 529 l 542 557 b 558 578 550 563 557 568 b 565 585 560 579 563 585 b 579 596 571 586 579 589 b 600 621 585 608 593 614 b 621 644 606 631 611 638 b 638 676 632 651 635 665 l 625 675 b 646 700 632 685 638 692 b 644 688 646 697 647 690 l 638 676 b 649 681 640 678 647 678 b 675 708 657 690 668 697 b 678 715 675 714 676 715 b 728 772 699 732 711 753 l 754 801 b 756 808 756 803 754 806 l 751 814 l 751 818 b 753 817 753 818 753 817 b 756 808 754 814 756 813 b 801 847 774 819 792 832 b 828 874 810 860 819 868 b 822 847 829 863 826 853 b 811 815 815 835 811 826 b 813 803 804 811 806 808 b 808 792 814 799 815 792 b 800 794 807 793 804 797 b 799 786 799 794 799 790 l 799 783 b 810 789 801 786 806 788 b 800 771 810 782 807 774 b 789 751 801 764 796 754 l 788 763 b 782 750 781 763 782 754 l 789 750 b 783 744 789 747 786 744 b 782 732 783 739 786 733 b 776 718 778 728 783 721 b 769 704 774 715 778 707 l 767 696 b 749 679 767 685 758 681 b 744 671 747 674 744 671 b 744 639 756 658 747 650 l 743 639 b 742 644 743 642 743 644 b 736 650 742 647 740 649 l 735 649 b 722 614 728 638 725 622 b 731 610 722 614 732 613 b 719 589 728 603 729 592 b 708 583 711 594 708 586 l 697 564 b 707 558 696 561 696 561 l 708 558 b 707 547 708 554 708 551 b 699 549 700 542 699 542 b 696 550 697 550 696 550 b 692 526 694 542 686 535 b 689 518 699 521 699 515 b 681 514 686 519 682 517 b 685 507 679 507 683 508 b 690 504 689 507 690 504 b 681 489 685 499 690 492 l 681 493 b 678 500 681 493 678 497 b 675 492 674 497 675 493 b 675 489 674 492 675 490 l 681 489 b 676 472 682 482 682 476 b 663 468 674 471 664 476 l 656 453 l 657 443 b 653 433 653 440 651 436 b 651 421 657 428 657 424 b 649 417 650 421 650 419 b 650 406 657 413 657 411 l 649 417 b 642 404 640 415 644 408 b 650 403 644 401 649 403 b 643 397 650 401 650 399 b 642 385 643 390 647 389 l 640 397 b 639 385 632 389 632 388 b 631 358 643 374 636 363 b 626 354 631 353 628 354 b 617 346 617 357 618 350 b 621 339 614 340 617 338 b 617 325 622 336 622 328 b 613 313 617 319 621 314 b 604 304 613 307 617 299 b 588 300 601 301 596 300 b 550 307 575 304 563 306 b 542 308 547 306 546 308 b 486 308 525 303 507 313 b 460 308 479 307 469 315 b 429 311 449 307 438 306 b 406 310 421 314 411 310 l 389 307 l 369 313 b 357 321 367 313 361 319 z m 143 18 b 146 29 146 25 142 28 b 167 68 150 42 157 57 b 192 111 175 81 186 94 b 214 136 196 124 204 129 b 214 125 215 131 215 128 l 201 110 b 163 46 189 88 175 67 b 143 18 158 38 151 28 z m 578 104 b 579 115 578 107 578 113 b 586 139 586 122 588 129 b 593 142 586 139 592 140 l 597 111 b 586 86 599 101 597 100 b 585 78 581 83 583 83 b 582 74 585 76 585 75 b 578 75 582 74 578 74 l 571 85 b 571 97 568 89 568 94 z m 261 203 l 260 213 b 272 222 261 221 263 221 l 274 222 b 275 218 276 221 276 221 l 261 203 l 261 199 b 215 136 249 176 236 153 b 215 142 215 138 214 139 b 251 200 225 163 238 183 b 261 203 254 203 260 203 z m 479 535 b 467 522 472 533 468 526 b 479 535 479 524 479 524 b 488 542 481 538 485 538 b 501 558 489 546 493 556 b 526 589 507 571 521 579 b 531 606 532 594 532 597 l 524 600 b 485 564 513 586 503 572 b 481 565 485 565 483 568 b 485 564 482 565 482 564 l 481 549 b 479 535 478 544 478 540 z m 388 407 b 378 406 386 413 382 406 l 371 404 l 374 392 l 358 374 l 333 349 b 331 351 333 351 333 356 b 333 349 332 351 332 349 b 321 329 333 342 329 333 b 325 321 321 328 324 325 b 332 322 326 319 331 318 b 344 344 333 332 342 338 l 369 379 b 374 392 375 382 374 386 l 383 399 b 388 407 388 401 389 406 z m 199 264 l 196 264 b 199 269 196 268 197 269 l 240 275 b 275 278 249 275 263 281 b 236 269 264 268 249 271 b 199 264 226 267 211 264 z m 572 60 b 563 32 565 51 561 42 b 553 26 564 26 557 28 b 554 40 550 33 553 38 b 561 71 558 51 561 63 l 569 75 b 571 71 569 74 571 72 b 572 60 572 65 571 64 z m 407 440 b 413 442 408 440 411 440 b 429 472 421 450 428 460 l 417 471 b 407 446 415 463 411 453 b 407 440 404 444 404 442 z m 524 -81 b 529 -54 522 -71 526 -64 l 531 -53 b 540 -67 532 -57 533 -62 b 547 -78 544 -68 546 -74 b 524 -81 538 -75 531 -78 z m 467 521 l 454 519 l 446 507 b 446 493 444 503 444 499 l 465 511 b 467 521 467 511 465 519 z m 606 164 b 608 157 601 158 604 158 b 614 157 608 156 613 157 b 624 156 615 154 617 151 b 625 167 624 160 625 161 b 618 175 624 171 621 172 b 613 172 614 172 613 172 b 606 164 610 171 607 167 z m 676 365 l 669 365 b 669 372 669 367 671 368 b 674 375 669 372 674 372 b 697 371 685 389 685 389 b 676 365 688 374 681 369 z m 674 335 b 660 331 669 332 665 332 b 660 342 661 335 660 340 b 672 346 661 347 665 347 b 681 344 674 346 679 344 b 674 335 681 338 679 335 z m 621 215 b 619 201 621 213 621 206 b 610 194 621 192 621 192 b 617 217 607 203 615 211 b 619 224 615 222 619 226 b 621 215 624 222 621 217 z m 551 631 b 531 606 542 626 533 617 b 551 631 544 608 550 617 z m 575 210 l 574 219 l 585 233 l 586 233 b 590 232 586 232 590 232 b 575 210 586 224 588 213 z m 518 -126 b 514 -124 515 -126 514 -124 b 515 -107 513 -119 514 -111 b 517 -106 515 -106 517 -106 b 518 -107 517 -106 518 -106 l 525 -111 b 518 -126 526 -119 526 -122 z m 503 528 l 515 546 l 519 540 l 522 528 b 503 528 515 529 510 528 z m 608 653 b 589 633 607 642 600 632 b 608 653 593 642 596 650 z m 393 417 b 400 419 397 414 401 414 b 401 429 401 421 403 424 b 399 432 403 432 401 432 l 392 431 b 390 422 390 429 389 428 b 393 417 390 421 392 418 z m 504 0 b 510 4 506 1 510 1 b 515 17 511 6 510 13 b 503 15 510 19 507 21 l 501 4 b 504 0 501 4 503 0 z m 799 783 b 788 763 789 779 786 771 l 800 771 z m 776 718 b 765 719 768 721 767 721 l 758 708 b 765 704 757 704 764 706 l 769 704 b 776 718 769 710 767 715 z m 131 -6 b 138 17 126 4 132 11 l 143 18 b 131 -6 139 13 139 1 z m 526 -33 b 518 -39 526 -37 518 -40 b 518 -28 517 -35 517 -33 b 525 -15 524 -25 521 -18 b 526 -33 526 -19 526 -26 z m 751 528 l 738 526 l 738 532 b 744 538 736 536 740 540 b 751 533 746 538 747 533 b 757 533 753 532 753 532 z m 497 522 l 503 526 l 513 515 l 501 514 b 493 515 499 514 497 515 b 497 522 496 519 496 522 z m 349 289 l 365 292 l 372 292 b 367 286 372 288 371 286 b 351 285 364 285 363 286 b 350 283 357 283 351 283 b 347 288 349 283 347 288 b 349 289 347 288 347 289 z m 710 463 b 707 464 708 463 708 463 b 707 471 707 464 708 465 b 710 474 708 472 710 472 l 717 475 l 717 474 b 710 463 721 464 721 463 z m 706 765 b 690 750 706 756 700 751 b 706 765 692 758 699 764 z m 546 575 b 540 571 546 574 544 572 l 542 557 l 531 554 b 540 571 529 561 536 565 b 546 575 539 572 540 575 z m 425 289 b 411 286 421 286 419 288 l 404 286 l 403 288 l 404 290 l 424 293 z m 439 486 b 429 472 432 486 428 485 b 439 486 438 475 440 481 z m 576 617 b 568 601 578 607 578 603 b 576 617 568 610 572 615 z m 703 485 l 701 493 b 703 496 703 494 703 496 b 704 493 704 494 706 493 b 703 485 704 492 704 489 b 696 472 703 481 704 475 b 703 485 696 475 694 483 z m 443 438 b 432 425 442 426 442 426 b 443 438 433 428 435 436 z m 639 749 b 646 757 640 754 644 757 l 644 763 l 639 761 b 636 754 636 760 635 758 b 639 749 636 751 639 751 z m 578 153 b 574 139 581 147 582 144 b 578 153 572 146 571 151 z m 735 510 l 732 500 l 726 500 b 729 510 725 504 725 508 l 733 510 b 735 510 733 510 735 511 z m 554 94 l 558 99 l 558 93 b 556 88 560 90 558 90 l 556 79 b 550 83 551 79 550 82 b 556 88 550 83 554 88 z m 724 544 b 719 529 725 539 726 535 b 724 544 719 535 717 542 z m 308 285 l 310 285 b 317 283 311 285 315 283 b 311 279 315 282 313 279 b 307 278 310 278 310 279 b 303 282 307 278 306 278 b 308 285 306 282 307 283 z m 464 -237 l 464 -233 b 463 -224 463 -232 461 -229 l 465 -222 b 468 -233 465 -226 468 -232 b 464 -237 468 -236 467 -236 z m 653 319 b 660 331 656 324 651 329 b 653 319 661 325 663 321 z m 640 329 b 644 342 640 333 638 339 b 640 329 644 339 649 331 z m 778 618 b 769 614 776 615 771 614 l 769 621 b 775 622 769 622 769 622 z m 454 285 l 450 285 b 443 286 449 285 449 288 b 450 290 449 290 449 290 l 453 290 b 458 289 454 290 457 289 z m 632 301 b 628 297 632 299 632 299 l 628 300 b 632 308 625 306 626 307 b 632 301 632 307 633 306 z m 578 104 l 579 96 b 585 94 579 96 582 96 l 585 97 b 578 104 588 100 585 103 z m 533 18 b 539 29 533 22 532 28 b 533 18 540 25 540 19 z m 613 313 l 611 325 b 613 313 604 318 604 317 z m 217 179 b 211 171 211 179 210 175 l 218 172 z m 503 -112 b 504 -118 503 -112 504 -114 b 497 -121 504 -118 503 -119 b 497 -115 497 -119 496 -119 b 503 -112 497 -115 497 -114 z m 814 803 l 813 815 l 817 815 b 814 803 817 813 819 806 z m 644 293 l 642 294 l 649 303 l 650 300 b 644 293 650 297 650 293 z m 517 -49 l 518 -50 b 517 -58 518 -56 518 -57 b 513 -56 517 -57 513 -57 b 517 -49 513 -50 513 -50 z m 165 99 b 160 90 160 97 160 96 l 167 92 z m 493 286 l 476 285 l 474 285 b 475 286 475 285 475 286 l 493 289 b 494 288 494 289 494 288 b 493 286 494 286 494 286 z m 600 714 l 614 715 b 600 714 610 721 608 721 z m 539 29 l 539 38 b 539 39 538 39 539 39 b 543 38 543 39 543 39 b 539 29 546 36 544 32 z m 636 317 b 640 329 636 321 635 326 b 636 317 640 322 642 318 z m 533 -8 b 525 -14 529 -11 526 -14 b 526 -8 525 -12 526 -10 b 528 -3 525 -4 525 -4 b 533 -8 529 -7 533 -8 z m 754 882 b 747 875 750 882 746 879 l 756 876 z m 124 -14 b 119 -10 124 -14 121 -10 b 121 -8 119 -8 121 -8 b 131 -6 122 -7 124 -7 z m 594 199 b 596 203 589 201 594 201 b 597 214 594 208 594 210 l 599 215 b 600 211 599 214 600 213 l 596 203 b 594 199 594 201 594 200 z m 725 485 b 721 482 722 483 721 483 b 721 488 721 483 718 486 b 721 493 719 490 719 490 l 724 492 z m 754 883 b 764 883 757 882 761 883 b 754 883 761 890 757 889 z m 432 424 b 425 417 432 422 431 418 b 432 424 424 421 425 424 z m 647 342 b 649 353 647 344 643 353 b 647 342 649 349 653 344 z m 538 638 b 532 628 532 636 532 633 b 538 638 538 633 539 633 z m 749 604 b 750 615 747 610 746 611 b 749 604 750 611 754 604 z m 732 861 b 725 854 728 860 726 858 l 733 856 z m 724 544 b 728 556 725 550 722 554 b 724 544 728 553 729 546 z m 565 115 l 565 126 l 567 125 b 565 115 571 118 568 115 z m 308 319 b 307 318 307 319 307 318 l 308 319 b 313 328 313 324 314 324 b 308 319 310 328 307 326 z m 451 460 b 458 463 451 461 456 463 b 461 464 458 464 460 464 l 463 460 z m 568 671 l 560 669 b 558 668 560 669 560 668 b 565 667 560 668 565 667 l 569 668 b 568 671 569 668 568 669 z m 811 692 b 803 694 807 692 807 693 l 810 696 b 814 693 811 696 813 693 b 811 692 813 693 811 692 z m 492 -92 b 486 -90 490 -93 489 -90 b 489 -83 489 -86 489 -85 b 492 -85 490 -83 492 -83 b 492 -92 492 -85 490 -89 z m 665 444 b 665 449 664 446 665 446 b 665 444 668 444 667 444 b 661 438 661 442 661 438 b 657 443 660 438 660 442 z m 579 164 b 581 165 579 164 581 164 b 582 164 581 164 582 164 b 581 154 582 158 583 154 z m 360 396 b 364 404 363 396 365 399 b 360 396 361 403 360 401 z m 250 214 l 244 208 b 244 218 244 211 246 214 z m 796 668 l 794 668 b 794 675 794 671 793 672 b 800 672 794 672 799 674 z m 576 43 b 575 46 576 44 575 46 b 575 53 574 50 575 53 l 578 47 b 576 43 578 44 578 44 z m 226 185 b 221 179 228 182 226 181 b 226 185 222 183 221 185 z m 235 131 b 239 139 233 135 236 139 b 235 131 239 133 238 133 z m 696 418 b 694 417 696 418 694 418 b 693 422 693 418 693 422 b 694 428 692 425 693 426 z m 632 310 b 638 315 632 313 633 315 b 632 310 638 313 636 310 z m 761 586 b 758 590 760 585 758 589 l 763 592 l 764 590 b 761 586 763 590 764 586 z m 244 208 b 238 200 242 204 239 200 b 244 208 238 206 239 206 z m 615 661 b 608 653 617 654 615 653 b 615 661 611 656 615 656 z m 689 750 b 686 742 690 744 688 744 b 689 750 686 747 686 750 z m 444 493 b 440 486 443 493 440 490 b 444 493 444 488 446 490 z m 372 342 b 368 336 374 338 371 336 b 372 342 368 339 369 342 z m 561 597 b 558 592 563 594 563 594 b 561 597 556 596 557 596 z m 518 51 l 518 46 b 518 51 519 46 526 47 z m 160 90 l 156 88 b 161 83 157 86 158 83 z m 565 107 b 564 114 557 111 563 114 b 565 107 564 113 565 110 z m 533 8 l 533 7 b 532 10 532 7 531 8 b 535 15 532 14 533 15 b 533 8 535 14 535 10 z m 722 783 b 719 779 722 783 724 782 b 722 783 714 782 718 783 z m 546 -56 l 550 -57 b 547 -61 550 -61 550 -61 z m 546 50 b 543 50 546 51 543 50 b 546 56 543 54 546 56 b 547 51 546 56 547 56 b 546 50 547 51 546 51 z m 651 356 b 654 361 651 356 651 358 b 651 356 657 356 656 356 z m 444 446 b 443 438 446 440 444 439 b 444 446 442 440 443 444 z m 797 925 b 793 924 797 924 793 924 b 799 919 793 922 797 919 z m 713 828 b 717 833 711 832 713 833 b 713 828 717 833 717 832 z m 589 631 b 583 626 589 629 589 626 b 589 631 582 628 583 629 z m 532 -101 l 525 -99 b 532 -101 531 -94 532 -100 z m 697 824 b 693 819 693 824 693 821 b 697 824 697 819 699 821 z m 682 736 b 674 729 678 733 675 729 b 682 736 674 732 675 735 z m 521 -89 b 522 -81 517 -86 521 -86 b 521 -89 522 -85 522 -87 z m 317 315 b 315 310 317 313 315 310 b 317 315 317 310 324 311 z m 826 829 b 828 836 819 835 825 835 b 826 829 828 836 825 833 z m 589 181 l 589 189 b 592 186 590 188 592 188 b 589 181 592 183 590 183 z m 508 -158 b 510 -153 501 -154 508 -153 b 508 -158 508 -156 508 -156 z m 742 810 b 744 804 742 807 743 806 b 743 803 744 804 743 804 b 739 806 742 804 740 806 z m 671 724 l 664 715 b 671 724 663 717 664 719 z m 701 447 b 700 447 703 442 701 442 l 700 450 l 701 450 b 701 447 701 449 707 449 z m 742 639 b 739 633 742 638 743 635 b 742 639 738 638 739 638 z m 642 404 b 640 397 640 401 640 400 l 643 397 z m 128 44 l 125 38 b 129 38 126 39 128 39 z m 228 128 b 235 131 229 129 229 131 b 228 128 235 129 233 128 z m 251 157 b 254 165 251 163 253 164 b 251 157 254 164 253 157 z m 829 879 b 828 874 835 875 831 874 b 829 879 829 876 829 876 z m 607 189 b 608 194 603 193 608 194 b 607 189 608 192 608 190 z m 717 475 b 718 482 717 478 717 482 b 717 475 719 476 718 475 z m 626 671 b 621 667 626 668 625 667 b 626 671 622 668 622 671 z m 153 64 l 144 58 b 153 64 146 61 146 64 z m 314 331 b 313 328 314 331 313 329 l 319 329 b 314 331 319 331 314 331 z m 528 65 b 526 68 528 67 526 68 b 524 67 525 68 524 68 b 525 64 524 65 525 65 b 528 65 526 64 528 65 z m 207 167 l 210 167 l 210 163 l 211 167 l 210 167 l 210 171 b 207 167 208 171 207 168 z m 450 450 b 451 446 451 447 451 447 l 446 446 b 450 450 446 447 450 447 z m 719 606 b 718 601 717 606 718 601 b 721 601 718 601 718 600 b 719 606 721 601 719 603 z m 711 511 b 713 518 711 511 713 517 b 711 511 717 513 713 513 z m 179 111 b 178 107 182 107 181 107 b 179 111 176 110 176 110 z m 489 482 b 488 488 490 482 489 486 b 485 486 488 488 488 486 z m 710 769 b 706 765 714 765 710 765 b 710 769 710 768 710 768 z m 492 -154 l 490 -153 b 492 -144 490 -151 490 -147 z m 758 572 l 763 572 b 758 572 758 565 758 571 z m 540 108 l 539 110 b 536 107 539 110 536 110 b 539 104 536 107 538 107 b 540 108 539 107 540 108 z m 839 861 b 838 854 843 860 839 860 b 839 861 838 860 839 861 z m 744 553 b 746 549 746 553 746 549 l 744 547 l 743 549 z m 651 704 b 647 701 653 701 651 701 b 651 704 647 703 647 703 z m 854 969 l 853 975 b 856 974 854 975 856 975 b 854 969 856 974 856 969 z m 733 867 b 732 861 733 864 733 864 l 736 861 z m 725 847 l 719 838 b 725 847 722 846 724 847 z m 583 624 b 579 618 583 621 582 618 b 583 624 579 621 582 621 z m 749 560 b 747 561 749 560 749 561 b 749 564 749 561 749 564 b 749 560 753 563 753 561 z m 764 650 l 765 654 b 764 650 772 651 765 651 z m 290 218 b 289 214 290 218 290 217 b 290 218 285 218 289 218 z m 818 817 b 821 821 818 818 818 821 b 818 817 822 817 821 818 z m 653 313 b 653 318 649 317 651 318 z m 782 750 l 781 743 l 783 744 z m 682 444 l 686 446 l 686 442 z m 203 163 l 207 163 l 207 167 z m 581 61 b 578 63 579 63 579 63 l 579 65 b 582 63 582 65 582 63 b 581 61 582 63 579 63 z m 717 526 b 719 529 713 529 717 529 b 717 526 719 528 717 526 z m 853 965 b 854 969 846 968 853 967 b 853 965 854 967 853 965 z m 883 993 b 885 999 882 999 883 999 b 883 993 885 994 883 994 z m 890 985 b 889 981 894 982 892 982 b 890 985 889 982 889 982 z m 667 794 b 665 790 667 794 665 793 b 667 794 667 793 674 792 z m 357 315 b 356 321 351 319 354 321 b 357 315 356 319 357 317 z m 414 472 l 417 472 l 415 476 b 414 472 415 476 414 476 z m 567 601 b 564 597 567 599 565 597 b 567 601 564 600 565 601 z m 674 728 b 671 724 674 725 674 724 b 674 728 671 725 671 728 z m 614 328 l 611 325 l 617 325 b 614 328 615 326 615 328 z m 549 68 b 549 63 551 67 551 67 z m 707 510 b 706 506 707 510 708 507 b 707 510 704 510 704 510 z m 478 -139 l 476 -137 l 476 -133 b 478 -139 479 -137 479 -137 z m 743 599 b 747 601 742 601 747 601 b 743 599 747 601 747 600 z m 693 401 l 699 401 b 693 401 696 397 696 400 z m 753 615 b 754 619 751 618 751 619 b 753 615 756 618 754 618 z m 838 851 b 838 854 831 853 836 854 z m 647 767 b 644 763 647 765 647 763 l 650 763 b 647 767 649 763 649 765 z m 665 790 b 664 785 665 786 664 786 b 667 783 664 785 665 785 z m 454 521 l 453 525 b 451 522 451 525 451 525 b 454 521 453 522 453 521 z m 685 394 b 686 393 685 394 686 394 b 683 393 686 390 686 390 b 685 394 683 394 685 394 z m 714 576 l 715 576 b 719 576 715 576 719 578 l 715 575 b 714 576 715 575 714 575 z m 732 563 b 728 557 733 558 729 557 b 732 563 729 557 729 558 z m 674 489 b 671 486 674 488 672 488 l 674 485 b 674 489 675 485 674 488 z m 254 167 b 258 169 254 168 256 169 b 254 167 258 168 256 167 z m 531 93 l 536 93 b 531 93 536 96 536 96 z m 621 665 b 617 661 621 664 618 663 b 621 665 617 663 618 665 z m 769 607 b 769 613 765 611 768 613 b 769 607 768 613 769 608 z m 125 24 l 119 21 b 125 24 118 22 122 24 z m 869 988 l 869 990 b 874 989 869 990 872 990 b 869 988 872 989 869 988 z m 828 838 l 829 842 b 828 838 832 838 829 838 z m 765 647 b 764 642 764 647 764 644 b 765 647 761 647 764 647 z m 719 838 b 718 833 719 836 718 835 l 717 838 z m 621 339 b 622 342 622 340 622 340 b 621 339 628 339 622 339 z m 775 732 b 778 731 776 732 778 731 b 775 732 778 732 776 738 z m 263 174 l 263 179 b 263 174 265 175 264 175 z m 388 357 b 388 361 383 358 386 361 z m 489 -174 l 486 -172 l 489 -171 b 489 -174 490 -172 490 -172 z m 293 225 b 290 219 294 221 293 221 b 293 225 290 219 293 224 z m 485 -193 l 483 -189 l 485 -189 b 485 -193 486 -189 486 -193 z m 736 524 b 738 526 732 526 736 526 b 736 524 736 525 736 525 z m 275 200 b 276 203 276 201 276 201 b 275 200 281 200 276 200 z m 694 469 b 696 472 689 471 694 472 b 694 469 694 471 694 471 z m 710 564 b 711 567 710 564 710 565 b 710 564 714 564 711 564 z m 497 -136 l 496 -135 b 496 -131 494 -131 496 -131 z m 549 582 b 547 576 550 578 549 576 b 549 582 549 576 549 578 z m 175 107 l 171 99 b 175 107 171 100 172 103 z m 688 457 l 689 458 b 689 457 689 458 690 457 b 688 457 690 453 689 453 z m 699 433 l 700 433 b 696 429 700 431 699 431 b 699 433 699 431 699 433 z m 529 554 b 528 550 529 551 528 550 b 529 554 526 554 528 551 z m 753 574 b 756 572 754 579 756 574 b 753 574 756 574 754 574 z m 693 819 l 689 817 b 692 817 689 815 692 817 b 693 819 692 817 693 818 z m 479 -242 l 478 -239 l 481 -239 b 479 -242 481 -240 481 -240 z m 532 628 b 531 625 531 628 528 628 b 532 628 531 626 532 626 z m 185 125 b 183 122 185 125 185 124 b 179 124 183 124 182 124 z m 844 874 b 846 872 846 875 846 872 b 844 874 844 869 844 869 z m 482 -121 l 483 -122 b 482 -121 483 -125 481 -126 z m 454 531 b 453 526 454 531 454 529 b 457 529 454 529 457 529 b 454 531 457 531 454 531 z m 599 711 l 600 708 b 600 711 600 708 601 710 z m 228 119 b 228 124 225 124 226 124 z m 572 139 l 572 136 b 572 139 569 136 569 138 z m 203 160 b 203 163 204 161 203 163 b 203 160 201 163 200 161 z m 389 433 b 392 431 389 432 390 432 b 389 433 390 432 390 438 z m 668 458 l 668 460 l 674 460 z m 586 694 b 590 693 588 694 590 694 b 586 694 590 694 590 697 z m 725 790 b 724 786 726 788 725 788 z m 774 903 l 772 900 b 775 897 774 900 774 900 z m 540 642 b 538 638 540 642 540 639 b 540 642 540 639 542 638 z m 511 -67 l 514 -69 b 511 -67 513 -71 513 -71 z m 400 453 l 399 454 l 397 453 b 400 453 399 451 399 451 z m 735 575 l 736 575 b 735 575 738 571 738 571 z m 683 740 b 682 738 683 739 683 738 b 683 740 681 739 682 740 z m 471 -186 b 474 -187 472 -186 472 -186 b 471 -186 472 -189 472 -189 z m 306 317 b 307 318 306 317 306 318 b 306 317 304 318 301 318 z m 524 -157 b 522 -154 524 -157 524 -154 b 524 -153 522 -154 524 -154 z m 357 393 b 358 396 358 393 358 394 b 357 393 357 394 356 396 z m 867 979 b 869 982 864 981 868 981 b 867 979 868 981 868 979 z m 657 372 b 656 372 658 369 657 369 z m 100 -3 b 101 -4 100 -4 101 -4 b 100 -3 100 -10 100 -4 z m 667 396 l 665 393 l 665 396 b 667 396 665 397 665 397 z m 508 -137 l 510 -137 l 510 -139 b 508 -137 510 -140 508 -140 z m 772 664 l 772 665 l 774 665 b 772 664 774 664 774 664 z m 690 408 b 692 404 692 407 692 407 z m 243 142 b 240 139 244 139 243 140 b 243 142 243 140 243 142 z m 193 147 l 193 149 b 192 146 192 147 192 147 z m 735 621 l 735 622 b 735 621 736 624 736 624 z m 510 -150 b 508 -151 511 -151 510 -151 b 510 -150 510 -151 510 -150 z m 517 44 l 517 46 b 515 44 517 44 515 44 z m 508 -81 b 510 -82 510 -81 510 -82 z m 672 410 b 671 408 672 410 672 408 z "}}}
